<svg xmlns="http://www.w3.org/2000/svg" width="306" height="164" fill="none" viewBox="0 0 306 164">
  <g clip-path="url(#a)">
    <path fill="#fff" d="M0 0h306v164H0z"/>
    <path fill="#000" d="M52.148 35V23.364h2.108v4.926h5.392v-4.926h2.113V35h-2.113v-4.943h-5.392V35h-2.108Zm17.378-3.67v-5.057h2.056V35h-1.994v-1.551h-.09a2.637 2.637 0 0 1-.972 1.199c-.447.31-.998.466-1.654.466-.572 0-1.078-.127-1.517-.381a2.646 2.646 0 0 1-1.023-1.12c-.246-.492-.369-1.087-.369-1.784v-5.556h2.057v5.238c0 .553.151.993.454 1.319.303.325.701.488 1.194.488.303 0 .596-.074.88-.221.284-.148.517-.368.7-.66.185-.295.278-.664.278-1.107ZM73.697 35v-8.727h1.966v1.483h.103c.181-.5.483-.89.903-1.17.42-.285.922-.427 1.506-.427.59 0 1.089.144 1.494.432.41.284.697.672.864 1.165h.09c.194-.485.52-.872.978-1.16.462-.291 1.01-.437 1.642-.437.803 0 1.458.254 1.966.762.507.507.761 1.248.761 2.221V35h-2.062v-5.54c0-.541-.144-.937-.432-1.187a1.542 1.542 0 0 0-1.057-.381c-.496 0-.884.155-1.165.466-.276.307-.415.706-.415 1.199V35h-2.017v-5.625c0-.45-.136-.81-.409-1.08-.269-.269-.62-.403-1.056-.403-.296 0-.565.076-.807.227a1.585 1.585 0 0 0-.58.631 1.969 1.969 0 0 0-.216.943V35h-2.057Zm14.45 0V23.364h2.057v4.352h.086c.106-.212.255-.438.449-.676a2.38 2.38 0 0 1 .784-.62c.33-.174.75-.26 1.261-.26.674 0 1.282.171 1.824.516.545.341.977.847 1.295 1.517.322.667.483 1.485.483 2.455 0 .958-.157 1.772-.471 2.443-.315.67-.743 1.182-1.284 1.534a3.302 3.302 0 0 1-1.841.528c-.5 0-.915-.083-1.245-.25a2.531 2.531 0 0 1-.795-.602 3.894 3.894 0 0 1-.46-.676h-.12V35h-2.022Zm2.018-4.364c0 .565.08 1.06.238 1.483.163.425.396.756.7.995.306.235.677.352 1.113.352.455 0 .835-.121 1.142-.364.307-.246.538-.581.693-1.005.16-.428.239-.915.239-1.46 0-.542-.078-1.023-.233-1.444-.156-.42-.386-.75-.693-.989-.307-.238-.69-.357-1.148-.357-.44 0-.813.115-1.12.346-.306.231-.54.555-.698.972-.156.416-.233.907-.233 1.471Zm10.027-7.272V35h-2.057V23.364h2.057Zm5.978 11.806c-.875 0-1.63-.181-2.267-.545a3.698 3.698 0 0 1-1.46-1.557c-.341-.674-.511-1.468-.511-2.38 0-.898.17-1.686.511-2.364a3.87 3.87 0 0 1 1.443-1.591c.618-.383 1.343-.574 2.176-.574.538 0 1.046.087 1.523.262.481.17.906.435 1.273.795.371.36.663.818.875 1.375.212.553.318 1.212.318 1.977v.63h-7.153v-1.386h5.182a2.211 2.211 0 0 0-.256-1.05 1.863 1.863 0 0 0-.699-.734 1.963 1.963 0 0 0-1.034-.267c-.421 0-.79.103-1.108.307-.318.2-.566.466-.744.796a2.27 2.27 0 0 0-.267 1.073v1.21c0 .508.092.944.278 1.308.186.36.445.636.778.83.334.189.724.283 1.171.283.299 0 .57-.041.812-.125.243-.087.453-.214.631-.38.178-.167.313-.374.403-.62l1.921.216a2.99 2.99 0 0 1-.693 1.33 3.377 3.377 0 0 1-1.296.875c-.526.204-1.129.306-1.807.306Zm5.621-.17v-8.727h2.057V35h-2.057Zm1.034-9.966c-.325 0-.606-.108-.841-.324a1.047 1.047 0 0 1-.352-.79c0-.31.118-.573.352-.79.235-.219.516-.329.841-.329.33 0 .61.11.841.33.235.216.352.479.352.79 0 .306-.117.57-.352.79a1.186 1.186 0 0 1-.841.323Zm6.945 10.136c-.871 0-1.619-.19-2.244-.573a3.828 3.828 0 0 1-1.438-1.586c-.333-.678-.5-1.458-.5-2.34 0-.887.171-1.67.511-2.347a3.813 3.813 0 0 1 1.444-1.591c.625-.383 1.363-.574 2.216-.574.708 0 1.335.13 1.88.392.549.258.987.623 1.313 1.097.325.47.511 1.019.557 1.648h-1.966a1.882 1.882 0 0 0-.569-1.052c-.295-.284-.691-.426-1.187-.426-.421 0-.79.114-1.108.341-.318.224-.566.546-.744.966-.175.42-.262.924-.262 1.511 0 .595.087 1.106.262 1.534.174.425.418.752.733.983a1.87 1.87 0 0 0 1.119.341c.303 0 .574-.056.812-.17.243-.118.446-.286.608-.506a1.95 1.95 0 0 0 .336-.801h1.966a3.44 3.44 0 0 1-.546 1.642 3.224 3.224 0 0 1-1.284 1.114c-.542.265-1.178.397-1.909.397Zm9.234 0c-.852 0-1.591-.187-2.216-.562a3.82 3.82 0 0 1-1.454-1.574c-.341-.674-.512-1.462-.512-2.363 0-.902.171-1.692.512-2.37a3.813 3.813 0 0 1 1.454-1.58c.625-.374 1.364-.562 2.216-.562.853 0 1.591.188 2.216.563a3.775 3.775 0 0 1 1.449 1.58c.345.677.517 1.467.517 2.369 0 .901-.172 1.689-.517 2.363a3.783 3.783 0 0 1-1.449 1.574c-.625.375-1.363.563-2.216.563Zm.012-1.647c.462 0 .848-.127 1.159-.381.31-.258.541-.602.693-1.034.155-.432.233-.913.233-1.443 0-.534-.078-1.017-.233-1.45-.152-.435-.383-.781-.693-1.039-.311-.257-.697-.386-1.159-.386-.474 0-.868.129-1.182.386-.311.258-.544.604-.699 1.04a4.343 4.343 0 0 0-.227 1.449c0 .53.075 1.011.227 1.443.155.432.388.777.699 1.034.314.254.708.38 1.182.38Zm7.973-3.637V35h-2.057v-8.727h1.966v1.483H137c.201-.489.521-.877.96-1.165.443-.288.991-.432 1.642-.432.603 0 1.127.129 1.574.387a2.6 2.6 0 0 1 1.046 1.119c.25.488.373 1.081.369 1.778V35h-2.057v-5.239c0-.583-.151-1.04-.454-1.369-.3-.33-.714-.494-1.245-.494-.36 0-.68.08-.96.238a1.65 1.65 0 0 0-.653.677c-.156.295-.233.653-.233 1.073Zm14.591-1.306-1.875.204a1.501 1.501 0 0 0-.279-.534 1.383 1.383 0 0 0-.523-.403c-.219-.103-.488-.154-.806-.154-.428 0-.788.093-1.08.279-.288.185-.43.426-.426.721a.755.755 0 0 0 .278.62c.194.159.512.29.955.392l1.488.318c.826.178 1.44.46 1.841.846.406.387.61.892.614 1.517a2.376 2.376 0 0 1-.483 1.455c-.314.417-.752.742-1.312.977-.561.235-1.205.352-1.932.352-1.068 0-1.928-.223-2.58-.67-.651-.45-1.04-1.078-1.165-1.88l2.006-.194c.091.394.284.691.58.892.295.2.68.301 1.153.301.489 0 .881-.1 1.176-.3.299-.202.449-.45.449-.745a.773.773 0 0 0-.29-.62c-.189-.162-.485-.287-.886-.375l-1.489-.312c-.837-.174-1.456-.468-1.858-.88-.401-.417-.6-.944-.596-1.58-.004-.538.142-1.004.437-1.398.3-.398.714-.704 1.245-.92.534-.22 1.149-.33 1.846-.33 1.023 0 1.828.218 2.415.654.591.435.956 1.024 1.097 1.767Z"/>
    <path stroke="#252A34" stroke-linecap="round" stroke-linejoin="round" stroke-width="2" d="m141 107 6-6 4 4 7.5-7.5"/>
    <path stroke="#252A34" stroke-linecap="round" stroke-width="2" d="M154 97h4.95v5"/>
    <path stroke="#FF2E63" stroke-linejoin="round" stroke-width="2" d="M65 102H52v4a4 4 0 0 0 4 4h5a4 4 0 0 0 4-4v-4Z"/>
    <path stroke="#FF2E63" stroke-linecap="round" stroke-width="2" d="M61 99s1-1 .5-2l-1-2c-.5-1 .5-2 .5-2m-4.36 6s1-1 .5-2l-1-2c-.5-1 .5-2 .5-2"/>
    <path fill="#FF2E63" d="M65 103h2v-2h-2v2Zm3 1v1h2v-1h-2Zm-1 2h-2v2h2v-2Zm1-1a1 1 0 0 1-1 1v2a3 3 0 0 0 3-3h-2Zm-1-2a1 1 0 0 1 1 1h2a3 3 0 0 0-3-3v2Z"/>
    <path stroke="#252A34" stroke-linecap="round" stroke-width="2" d="M121 108h-3.75a5.25 5.25 0 0 1-5.25-5.25v0a5.25 5.25 0 0 1 5.25-5.25H127"/>
    <path stroke="#252A34" stroke-linecap="round" stroke-width="2" d="m124.5 94 3.5 3.5-3.5 3.5"/>
    <path stroke="#252A34" stroke-linecap="round" stroke-linejoin="round" stroke-width="2" d="M118 78v-.107c0-.795-.496-1.487-1.117-1.984a5 5 0 1 1 6.234 0c-.621.496-1.117 1.189-1.117 1.984V78m-4 0v2a1 1 0 0 0 1 1h2a1 1 0 0 0 1-1v-2m-4 0h4m6-6h1m-17 0h-1m9-8v-1m5.657 3.343.707-.707m-12.021.707-.707-.707M120 75v-2"/>
    <circle cx="180" cy="98" r="3" stroke="#252A34" stroke-width="2"/>
    <path stroke="#252A34" stroke-linecap="round" stroke-linejoin="round" stroke-width="2" d="M174 109.25v-1.5c0-2.071 1.919-3.75 4.286-3.75h3.428c2.367 0 4.286 1.679 4.286 3.75v1.5"/>
    <path stroke="#252A34" stroke-linecap="round" stroke-width="2" d="m171 65 16 16m1-3V68a1 1 0 0 0-1-1h-2.382a.999.999 0 0 1-.894-.553l-.448-.894a.999.999 0 0 0-.894-.553h-4.661a1 1 0 0 0-.949.684l-.272.816M184 78h-11a1 1 0 0 1-1-1v-9a1 1 0 0 1 1-1v0"/>
    <path stroke="#252A34" stroke-linecap="round" stroke-width="2" d="M179 69.17a3 3 0 0 1 3.829 3.83"/>
    <path stroke="#252A34" stroke-width="2" d="M30 128c-1.574-1.635-4.46-2.135-6.035-.5-1.573 1.635-1.34 3.836 0 5.752 1.341 1.916 3.445 3.637 6.035 5.748 2.59-2.111 4.694-3.832 6.035-5.748 1.34-1.916 1.574-4.117 0-5.752-1.574-1.635-4.461-1.135-6.035.5Z"/>
    <path stroke="#252A34" stroke-linecap="round" stroke-width="2" d="M60 125v8.5m3-6.5-3-3-3 3"/>
    <path stroke="#252A34" stroke-linecap="round" stroke-linejoin="round" stroke-width="2" d="M53 132v5a2 2 0 0 0 2 2h10a2 2 0 0 0 2-2v-5m78-4-4 4 4 4"/>
    <path stroke="#252A34" stroke-linecap="round" stroke-width="2" d="m148.5 138 3-12"/>
    <path stroke="#252A34" stroke-linecap="round" stroke-linejoin="round" stroke-width="2" d="m155 128 4 4-4 4"/>
    <circle cx="180" cy="129.5" r="2" fill="#252A34"/>
    <path stroke="#252A34" stroke-width="2" d="M185.5 129.5c0 3.038-2 6.5-5.5 10.5-3.5-4-5.5-7.462-5.5-10.5a5.5 5.5 0 1 1 11 0Z"/>
    <path stroke="#252A34" stroke-linecap="round" stroke-linejoin="round" stroke-width="2" d="m144 66 .934 13.071a.999.999 0 0 0 .997.929h8.138c.525 0 .96-.405.997-.929L156 66m-6 5v4m8-9h-16m4.5 0 .544-1.632A2 2 0 0 1 148.942 63h2.116a2 2 0 0 1 1.898 1.368L153.5 66M59 63.5V63m-6.5 7H52m11.596-4.596.354-.354m-9.546.354-.354-.354M58 73.036a3.484 3.484 0 0 1 1.975.99M61.645 67a4 4 0 0 0-6.59 3.666M54 76.5a3.5 3.5 0 0 0 3.5 3.5h9.75a2.75 2.75 0 0 0 .734-5.4 5 5 0 0 0-9.614-1.491A3.504 3.504 0 0 0 54 76.5Z"/>
    <path stroke="#252A34" stroke-linejoin="round" stroke-width="2" d="M27.5 70v-6h5v6l4.743 5.174A2.88 2.88 0 0 1 35.12 80H24.88a2.88 2.88 0 0 1-2.123-4.826L27.5 70Z"/>
    <path stroke="#252A34" stroke-linecap="round" stroke-width="2" d="M26.5 64h7"/>
    <path stroke="#252A34" stroke-width="2" d="M24 74c3.5 2 4 0 6 0s2.5 2 6 0"/>
    <path stroke="#000" stroke-linecap="round" stroke-linejoin="round" stroke-width="2" d="M38 96c-3.573 2.225-5.943 3.854-8.55 6m8.55 6c-2.626-1.635-4.602-2.949-6.5-4.382m-4.902-4.079a3 3 0 1 0-3.196-5.079 3 3 0 0 0 3.196 5.08Zm0 0A90.05 90.05 0 0 0 29.45 102m-2.852 2.461a3 3 0 1 0-3.197 5.078 3 3 0 0 0 3.197-5.078Zm0 0A89.691 89.691 0 0 1 29.45 102"/>
    <path stroke="#252A34" stroke-linejoin="round" stroke-width="2" d="M87.882 135c3.379 0 6.118-2.462 6.118-5.5s-2.739-5.5-6.118-5.5c-3.378 0-6.117 2.462-6.117 5.5 0 .818.198 1.594.554 2.292L81 135l3.823-.736c.9.468 1.945.736 3.06.736Z"/>
    <path stroke="#252A34" stroke-linecap="round" stroke-linejoin="round" stroke-width="2" d="M88.804 138.124a6.595 6.595 0 0 0 3.314.876 6.623 6.623 0 0 0 3.059-.736L99 139l-1.32-3.208a5.022 5.022 0 0 0 .555-2.292c0-1.245-.46-2.393-1.235-3.315-.749-.89-1.792-1.569-3-1.92"/>
    <circle r="1" fill="#252A34" transform="matrix(-1 0 0 1 91 129.5)"/>
    <circle r="1" fill="#252A34" transform="matrix(-1 0 0 1 88 129.5)"/>
    <circle r="1" fill="#252A34" transform="matrix(-1 0 0 1 85 129.5)"/>
    <path stroke="#252A34" stroke-linecap="round" stroke-linejoin="round" stroke-width="2" d="M83 77h2m0 0h10m-10 0v-6a5 5 0 0 1 10 0v6m0 0h2m-7.5-11.5V64a.5.5 0 0 1 1 0v1.5M91 80a1 1 0 1 1-2 0h2Zm22 48h9.11a1.89 1.89 0 0 0 1.89-1.89v0c0-1.615-1.894-2.486-3.12-1.435l-.38.325m-9.5 7h14.902c1.159 0 2.098.939 2.098 2.098v0c0 2.152-2.853 2.91-3.92 1.041L124 135m-11 1h6.11a1.89 1.89 0 0 1 1.89 1.89v0c0 1.615-1.894 2.486-3.12 1.435l-.38-.325m-26-41.5 3 3M82 110v-3.5l11.293-11.293a1 1 0 0 1 1.414 0l2.086 2.086a1 1 0 0 1 0 1.414L85.5 110H82Z"/>
    <path stroke="#000" stroke-linecap="round" stroke-linejoin="round" stroke-width="2" d="M201 72h4.597a5 5 0 0 1 3.904 1.876l.998 1.248A5 5 0 0 0 214.403 77H219m0 0-3-3m3 3-3 3m3-13h-5.078a4 4 0 0 0-3.123 1.501l-1.598 1.998A4 4 0 0 1 206.078 72H204m15-5-3-3m3 3-3 3m-15 30a13.328 13.328 0 0 0 3 2.685M219 100a13.328 13.328 0 0 1-3 2.685m-8 1.624-.5 2.191m.5-2.191c1.325.255 2.675.255 4 0m-4 0a11.267 11.267 0 0 1-4-1.624m8 1.624.5 2.191m-.5-2.191a11.267 11.267 0 0 0 4-1.624m0 0 1.5 1.815m-13.5-1.815-1.5 1.815M21 27a13.358 13.358 0 0 0 3 2.685M39 27a13.358 13.358 0 0 1-3 2.685m-8 1.624-.5 2.191m.5-2.19a10.59 10.59 0 0 0 4 0m-4 0a11.275 11.275 0 0 1-4-1.625m8 1.624.5 2.191m-.5-2.19a11.275 11.275 0 0 0 4-1.625m0 0 1.5 1.815M24 29.685 22.5 31.5M243 96h-6a6 6 0 1 0 0 12h6a6 6 0 1 0 0-12Z"/>
    <circle cx="243" cy="102" r="3" fill="#000" stroke="#000" stroke-width="2"/>
    <path fill="#000" d="m206.5 128.5-.6-.8a1.002 1.002 0 0 0 .153 1.694l.447-.894Zm4 2 .99.141a.999.999 0 0 0-.543-1.035l-.447.894Zm-1.49 3.359a1 1 0 0 0 1.98.282l-1.98-.282Zm1.49-8.359.707-.707a1 1 0 0 0-1.307-.093l.6.8Zm2.5 2.5-.707.707A.997.997 0 0 0 213 129v-1Zm2 1a1 1 0 0 0 0-2v2Zm-9 5a2 2 0 0 1-2 2v2a4 4 0 0 0 4-4h-2Zm-2 2a2 2 0 0 1-2-2h-2a4 4 0 0 0 4 4v-2Zm-2-2a2 2 0 0 1 2-2v-2a4 4 0 0 0-4 4h2Zm2-2a2 2 0 0 1 2 2h2a4 4 0 0 0-4-4v2Zm2.053-2.606 4 2 .894-1.788-4-2-.894 1.788Zm3.457.965-.5 3.5 1.98.282.5-3.5-1.98-.282Zm-2.41-1.059 4-3-1.2-1.6-4 3 1.2 1.6Zm2.693-3.093 2.5 2.5 1.414-1.414-2.5-2.5-1.414 1.414ZM213 129h2v-2h-2v2Zm5 5a2 2 0 0 1-2 2v2a4 4 0 0 0 4-4h-2Zm-2 2a2 2 0 0 1-2-2h-2a4 4 0 0 0 4 4v-2Zm-2-2a2 2 0 0 1 2-2v-2a4 4 0 0 0-4 4h2Zm2-2a2 2 0 0 1 2 2h2a4 4 0 0 0-4-4v2Zm-3-9v2a2 2 0 0 0 2-2h-2Zm0 0h-2a2 2 0 0 0 2 2v-2Zm0 0v-2a2 2 0 0 0-2 2h2Zm0 0h2a2 2 0 0 0-2-2v2Z"/>
    <path stroke="#000" stroke-linecap="round" stroke-linejoin="round" stroke-width="2" d="m273 74 2.045-1.533c2.424-1.819 3.497-5.486 2.955-8.467-2.981-.542-6.648.531-8.467 2.955L268 69m5 5-3.5 2.5-4-4L268 69m5 5v2.667c0 .865-.281 1.707-.8 2.4l-.7.933-1-1M268 69h-2.667c-.865 0-1.707.28-2.4.8l-.933.7 1 1m3.5 6.5-3.5 1 1.166-3.5m9.334-6a1 1 0 1 0 0-2 1 1 0 0 0 0 2Z"/>
    <path stroke="#000" stroke-width="2" d="M268 105.5a2.5 2.5 0 1 1-5 0 2.5 2.5 0 0 1 5 0Zm9 0a2.5 2.5 0 1 1-5 0 2.5 2.5 0 0 1 5 0Z"/>
    <path stroke="#000" stroke-linecap="round" stroke-linejoin="round" stroke-width="2" d="m268 105 .211-.106a4.001 4.001 0 0 1 3.578 0L272 105m3-6-1.65-4.124a1 1 0 0 0-1.245-.578l-1.473.491c-.41.137-.854.137-1.264 0l-1.473-.49a1 1 0 0 0-1.245.576L265 99m-4 1c7.5-1 11-1 18 0m-42-19 1.726-2.761a7.987 7.987 0 0 0 1.06-2.671l.059-.291a8.024 8.024 0 0 0 .155-1.57V72m-9 3.5c.5-1 1-2.043 1-3.5 0-1.74.556-3.352 1.5-4.665m0 11.165c2-2 2.5-5.237 2.5-6.5a4 4 0 0 1 7.954-.61m3.546 6.11c.5-2 .5-4 .5-5.5a8 8 0 0 0-12-6.93m7.954 9.93c-.174 1.394-.666 3.181-1.954 5.5"/>
    <path stroke="#000" stroke-linejoin="round" stroke-width="2" d="M233 138v-16a1 1 0 0 1 1-1h6.172a2 2 0 0 1 1.414.586l4.828 4.828a2 2 0 0 1 .586 1.414V138a1 1 0 0 1-1 1h-12a1 1 0 0 1-1-1Z"/>
    <path stroke="#000" stroke-linejoin="round" stroke-width="2" d="M240 121v6a1 1 0 0 0 1 1h6"/>
    <path stroke="#000" stroke-linecap="round" stroke-linejoin="round" stroke-width="2" d="M279 132.57c-4 1.733-4-4.767-9-1.767-5-3-5 3.5-9 1.767 1 4.233 6 4.233 9 1.233 3 3 8 3 9-1.233Z"/>
  </g>
  <defs>
    <clipPath id="a">
      <path fill="#fff" d="M0 0h306v164H0z"/>
    </clipPath>
  </defs>
</svg>
