<?xml version="1.0" encoding="utf-8"?><svg xmlns="http://www.w3.org/2000/svg" xmlns:xlink="http://www.w3.org/1999/xlink"><symbol fill="none" stroke="currentColor" viewBox="0 0 24 24" id="align-objects-bottom" xmlns="http://www.w3.org/2000/svg"><g stroke-linecap="round" stroke-width="2"><path d="M20 20H4M12 17V6M15 14l-3 3-3-3"/></g></symbol><symbol fill="none" stroke="currentColor" viewBox="0 0 24 24" id="align-objects-center" xmlns="http://www.w3.org/2000/svg"><g stroke-linecap="round" stroke-width="2"><path d="M12 4v16M16 12h5M18 9l-3 3 3 3M8 12H3M6 9l3 3-3 3"/></g></symbol><symbol fill="none" stroke="currentColor" viewBox="0 0 24 24" id="align-objects-left" xmlns="http://www.w3.org/2000/svg"><g stroke-linecap="round" stroke-width="2"><path d="M4 4v16M7 12h11M10 9l-3 3 3 3"/></g></symbol><symbol fill="none" stroke="currentColor" viewBox="0 0 24 24" id="align-objects-middle" xmlns="http://www.w3.org/2000/svg"><g stroke-linecap="round" stroke-width="2"><path d="M4 12h16M12 8V3M9 6l3 3 3-3M12 16v5M9 18l3-3 3 3"/></g></symbol><symbol fill="none" stroke="currentColor" viewBox="0 0 24 24" id="align-objects-right" xmlns="http://www.w3.org/2000/svg"><g stroke-linecap="round" stroke-width="2"><path d="M20 4v16M17 12H6M14 9l3 3-3 3"/></g></symbol><symbol fill="none" stroke="currentColor" viewBox="0 0 24 24" id="align-objects-top" xmlns="http://www.w3.org/2000/svg"><g stroke-linecap="round" stroke-width="2"><path d="M20 4H4M12 7v11M15 10l-3-3-3 3"/></g></symbol><symbol fill="none" stroke="currentColor" viewBox="0 0 24 24" id="arrow-down" xmlns="http://www.w3.org/2000/svg"><g stroke-linecap="round" stroke-width="2"><path d="M12 4v16M6 14l6 6 6-6"/></g></symbol><symbol fill="none" stroke="currentColor" viewBox="0 0 24 24" id="arrow-left" xmlns="http://www.w3.org/2000/svg"><g stroke-linecap="round" stroke-width="2"><path d="M20 12H4M10 6l-6 6 6 6"/></g></symbol><symbol fill="none" stroke="currentColor" viewBox="0 0 24 24" id="arrow-right" xmlns="http://www.w3.org/2000/svg"><g stroke-linecap="round" stroke-width="2"><path d="M4 12h16M14 18l6-6-6-6"/></g></symbol><symbol fill="none" stroke="currentColor" viewBox="0 0 24 24" id="arrow-up" xmlns="http://www.w3.org/2000/svg"><g stroke-linecap="round" stroke-width="2"><path d="M12 20V4M18 10l-6-6-6 6"/></g></symbol><symbol viewBox="0 0 24 24" id="arrows" xmlns="http://www.w3.org/2000/svg"><g fill="currentColor"><path d="M4 12l-.707-.707-.707.707.707.707L4 12zm16 0l.707.707.707-.707-.707-.707L20 12zm-3.207 1.793a1 1 0 001.414 1.414l-1.414-1.414zm1.414-5a1 1 0 10-1.414 1.414l1.414-1.414zm-11 1.414a1 1 0 00-1.414-1.414l1.414 1.414zm-1.414 5a1 1 0 001.414-1.414l-1.414 1.414zM4 13h16v-2H4v2zm14.207 2.207l2.5-2.5-1.414-1.414-2.5 2.5 1.414 1.414zm-1.414-5l2.5 2.5 1.414-1.414-2.5-2.5-1.414 1.414zm-11-1.414l-2.5 2.5 1.414 1.414 2.5-2.5-1.414-1.414zm1.414 5l-2.5-2.5-1.414 1.414 2.5 2.5 1.414-1.414z"/><path fill-rule="evenodd" d="M11.293 20.707l.707.707.707-.707 2.5-2.5a1 1 0 00-1.414-1.414l-.793.793V14h-2v3.586l-.793-.793a1 1 0 00-1.414 1.414l2.5 2.5zM11 10V6.414l-.793.793a1 1 0 01-1.414-1.414l2.5-2.5.707-.707.707.707 2.5 2.5a1 1 0 01-1.414 1.414L13 6.414V10h-2z" clip-rule="evenodd"/></g></symbol><symbol fill="currentColor" viewBox="0 0 24 24" id="bars" xmlns="http://www.w3.org/2000/svg"><rect width="18" height="2" x="3" y="5" rx="1"/><path d="M3 12a1 1 0 011-1h16a1 1 0 110 2H4a1 1 0 01-1-1z"/><rect width="18" height="2" x="3" y="17" rx="1"/></symbol><symbol fill="none" stroke="currentColor" viewBox="0 0 24 24" id="brush-big" xmlns="http://www.w3.org/2000/svg"><g stroke-width="2"><path d="M6 16l4.5 4.5 4-4a.707.707 0 011 0v0a.707.707 0 001 0l2.293-2.293a1 1 0 000-1.414l-2.086-2.086a1 1 0 010-1.414l3.586-3.586a1 1 0 000-1.414l-.586-.586a1 1 0 00-1.414 0l-3.586 3.586a1 1 0 01-1.414 0l-2.086-2.086a1 1 0 00-1.414 0L7.5 7.5a.707.707 0 000 1v0a.707.707 0 010 1l-4 4L6 16zm0 0l2.5-2.5M7.5 8.5l8 8"/></g></symbol><symbol fill="none" stroke="currentColor" viewBox="0 0 24 24" id="check" xmlns="http://www.w3.org/2000/svg"><path stroke-linecap="round" stroke-width="3" d="M5 14l3.293 3.293a1 1 0 001.414 0L19 8"/></symbol><symbol fill="none" stroke="currentColor" viewBox="0 0 24 24" id="chevron-down" xmlns="http://www.w3.org/2000/svg"><path stroke-linecap="round" stroke-width="2" d="M5 10l7 7 7-7"/></symbol><symbol fill="none" stroke="currentColor" viewBox="0 0 24 24" id="chevron-left" xmlns="http://www.w3.org/2000/svg"><path stroke-linecap="round" stroke-width="2" d="M14 5l-7 7 7 7"/></symbol><symbol fill="none" stroke="currentColor" viewBox="0 0 24 24" id="chevron-right" xmlns="http://www.w3.org/2000/svg"><path stroke-linecap="round" stroke-width="2" d="M10 5l7 7-7 7"/></symbol><symbol fill="none" stroke="currentColor" viewBox="0 0 24 24" id="chevron-up" xmlns="http://www.w3.org/2000/svg"><path stroke-linecap="round" stroke-width="2" d="M5 14l7-7 7 7"/></symbol><symbol fill="none" stroke="currentColor" viewBox="0 0 24 24" id="cog" xmlns="http://www.w3.org/2000/svg"><path fill="currentColor" d="M13 13.731a2 2 0 11-2-3.462 2 2 0 112 3.462z" stroke="none"/><path stroke-width="2" d="M18.005 15.98l-.482-.006-.306.373c-.274.335-.58.645-.916.924l-.366.306.007.477.021 1.486a1 1 0 01-.737.98l-1.819.495a1 1 0 01-1.139-.484l-.699-1.272-.233-.425-.478-.08a6.7 6.7 0 01-1.244-.335l-.454-.17-.415.252-1.243.753a1 1 0 01-1.228-.151l-1.328-1.338a1 1 0 01-.148-1.217l.762-1.278.245-.41-.165-.447c-.15-.409-.26-.83-.332-1.259l-.078-.475-.421-.234-1.273-.71a1 1 0 01-.479-1.133l.5-1.863a1 1 0 01.98-.741l1.458.021.482.007.306-.373c.275-.335.58-.645.916-.924l.366-.306-.007-.477-.021-1.486a1 1 0 01.737-.98l1.819-.494a1 1 0 011.139.483l.699 1.273.233.424.478.08a6.72 6.72 0 011.244.335l.454.17.415-.251 1.243-.754a1 1 0 011.228.151l1.328 1.338a1 1 0 01.148 1.217L18.44 8.73l-.245.41.165.447c.148.405.261.832.332 1.259l.078.475.421.234 1.273.71a1 1 0 01.479 1.133l-.5 1.863a1 1 0 01-.98.741l-1.458-.021v-.001z"/></symbol><symbol fill="none" stroke="currentColor" viewBox="0 0 24 24" id="desktop" xmlns="http://www.w3.org/2000/svg"><g stroke-width="2"><path d="M20 5H4a1 1 0 00-1 1v9a1 1 0 001 1h16a1 1 0 001-1V6a1 1 0 00-1-1zM8 20h8M12 20v-5"/></g></symbol><symbol fill="none" stroke="currentColor" viewBox="0 0 24 24" id="document" xmlns="http://www.w3.org/2000/svg"><g stroke-linejoin="round" stroke-width="2"><path d="M5 20V4a1 1 0 011-1h6.172a2 2 0 011.414.586l4.828 4.828A2 2 0 0119 9.828V20a1 1 0 01-1 1H6a1 1 0 01-1-1z"/><path d="M12 3v6a1 1 0 001 1h6"/></g></symbol><symbol fill="none" stroke="currentColor" viewBox="0 0 24 24" id="document-add" xmlns="http://www.w3.org/2000/svg"><g stroke-linejoin="round" stroke-width="2"><path d="M15 15H9M12 18v-6M5 20V4a1 1 0 011-1h6.172a2 2 0 011.414.586l4.828 4.828A2 2 0 0119 9.828V20a1 1 0 01-1 1H6a1 1 0 01-1-1z"/><path d="M12 3v6a1 1 0 001 1h6"/></g></symbol><symbol fill="currentColor" viewBox="0 0 24 24" id="dots-horizontal" xmlns="http://www.w3.org/2000/svg"><rect width="4" height="4" x="3" y="10" rx="2"/><rect width="4" height="4" x="10" y="10" rx="2"/><rect width="4" height="4" x="17" y="10" rx="2"/></symbol><symbol fill="none" stroke="currentColor" viewBox="0 0 24 24" id="exchange-vertical" xmlns="http://www.w3.org/2000/svg"><g stroke-linecap="round" stroke-width="2"><path d="M16.5 19.5v-16M13 16l3.5 3.5L20 16M7.5 19.5v-16M4 7l3.5-3.5L11 7"/></g></symbol><symbol viewBox="0 0 24 24" id="exclamation" xmlns="http://www.w3.org/2000/svg"><g fill="currentColor"><path d="M9.413 5.971l1.07 7.708a1.531 1.531 0 003.034 0l1.07-7.708a2.612 2.612 0 10-5.174 0z"/><circle cx="12" cy="19" r="2"/></g></symbol><symbol fill="none" viewBox="0 0 24 24" id="exclamation-triangle" xmlns="http://www.w3.org/2000/svg"><path stroke="currentColor" stroke-width="2" d="M10.245 4.208c.759-1.387 2.751-1.387 3.51 0l7.018 12.832c.73 1.333-.235 2.96-1.754 2.96H4.98c-1.519 0-2.483-1.627-1.754-2.96l7.018-12.832z"/><path fill="currentColor" d="M10.615 8.996l.314 4.08a1 1 0 00.997.924h.148a1 1 0 00.997-.923l.314-4.081a1.39 1.39 0 10-2.77 0z"/><circle cx="12" cy="16.5" r="1.5" fill="currentColor"/></symbol><symbol viewBox="0 0 24 24" id="heading" xmlns="http://www.w3.org/2000/svg"><path fill="none" d="M7 6H6a1 1 0 010-2h4a1 1 0 110 2H9v6h8V6h-1a1 1 0 110-2h4a1 1 0 110 2h-1v14h1a1 1 0 110 2h-4a1 1 0 110-2h1v-6H9v6h1a1 1 0 110 2H6a1 1 0 110-2h1V6z"/></symbol><symbol fill="none" viewBox="0 0 24 24" id="image" xmlns="http://www.w3.org/2000/svg"><path stroke="currentColor" stroke-width="2" d="M21 19V5a1 1 0 00-1-1H4a1 1 0 00-1 1v14a1 1 0 001 1h16a1 1 0 001-1z"/><circle cx="15.5" cy="8.5" r="1.5" fill="currentColor"/><path stroke="currentColor" stroke-linecap="round" stroke-linejoin="round" stroke-width="2" d="M15.5 15.5L9.5 9 3 17"/><path fill="currentColor" d="M17 12l.707-.707a1 1 0 00-1.414 0L17 12zm3.293 4.707a1 1 0 001.414-1.414l-1.414 1.414zm-4-4l4 4 1.414-1.414-4-4-1.414 1.414zm-1.086 2.5l2.5-2.5-1.414-1.414-2.5 2.5 1.414 1.414z"/></symbol><symbol fill="none" stroke="currentColor" viewBox="0 0 24 24" stroke-width="2" id="mobile" xmlns="http://www.w3.org/2000/svg"><path d="M17 19V5a1 1 0 00-1-1H8a1 1 0 00-1 1v14a1 1 0 001 1h8a1 1 0 001-1z"/><path stroke-linecap="round" d="M10 17h4"/></symbol><symbol fill="none" stroke="currentColor" viewBox="0 0 24 24" id="plus" xmlns="http://www.w3.org/2000/svg"><g stroke-linecap="round" stroke-width="3"><path d="M12 19V5M19 12H5"/></g></symbol><symbol fill="none" stroke="currentColor" viewBox="0 0 24 24" id="plus-circle" xmlns="http://www.w3.org/2000/svg"><g stroke-width="2"><path stroke-linecap="round" d="M12 16V8M16 12H8"/><circle cx="12" cy="12" r="9"/></g></symbol><symbol fill="none" stroke="currentColor" viewBox="0 0 24 24" id="search" xmlns="http://www.w3.org/2000/svg"><g stroke-width="2"><path stroke-linecap="round" d="M20 20l-6-6"/><circle cx="9.5" cy="9.5" r="5.5"/></g></symbol><symbol viewBox="0 0 24 24" id="text" xmlns="http://www.w3.org/2000/svg"><path fill="currentColor" d="M20 3H4v3a1 1 0 002 0V5h5v14h-1a1 1 0 100 2h4a1 1 0 100-2h-1V5h5v1a1 1 0 102 0V3z"/></symbol><symbol fill="none" stroke="currentColor" viewBox="0 0 24 24" id="times" xmlns="http://www.w3.org/2000/svg"><g stroke-linecap="round" stroke-width="3"><path d="M6 18L18 6M18 18L6 6"/></g></symbol><symbol fill="none" stroke="currentColor" viewBox="0 0 24 24" id="trash" xmlns="http://www.w3.org/2000/svg"><g stroke-width="2"><path d="M6 6l.934 13.071A1 1 0 007.93 20h8.138a1 1 0 00.997-.929L18 6"/><path stroke-linecap="round" stroke-linejoin="round" d="M12 11v4"/><path stroke-linejoin="round" d="M21 6H3"/><path d="M8.5 6l.544-1.632A2 2 0 0110.941 3h2.117a2 2 0 011.898 1.368L15.5 6"/></g></symbol><symbol fill="none" stroke="currentColor" viewBox="0 0 24 24" id="upload" xmlns="http://www.w3.org/2000/svg"><g stroke-linecap="round" stroke-width="2"><path d="M12 11v9M15 13l-3-3-3 3"/><path d="M19 14.792a3.02 3.02 0 001-2.233c0-1.578-1.242-2.881-2.853-3.085.02-.155.03-.312.03-.472C17.177 6.792 15.28 5 12.94 5c-1.546 0-2.898.782-3.637 1.95a5.024 5.024 0 00-.598-.035C6.106 6.915 4 8.906 4 11.362c0 1.504.79 2.833 2 3.638"/></g></symbol><symbol fill="none" viewBox="0 0 24 24" id="user" xmlns="http://www.w3.org/2000/svg"><g stroke="currentColor" stroke-width="2"><circle cx="12" cy="7" r="3"/><path d="M10 13h4a4 4 0 014 4v2H6v-2a4 4 0 014-4z"/></g></symbol><symbol fill="none" viewBox="0 0 24 24" id="users" xmlns="http://www.w3.org/2000/svg"><g stroke="currentColor" stroke-width="2"><circle cx="9" cy="7" r="3"/><path d="M7 13h4a4 4 0 014 4v2H3v-2a4 4 0 014-4z"/></g><path fill="currentColor" fill-rule="evenodd" d="M13.751 8.562a4.994 4.994 0 01-1.001 1.745 4 4 0 100-6.615 4.994 4.994 0 011.001 1.746 2 2 0 110 3.124zM16.977 20H21a1 1 0 001-1v-2a5 5 0 00-5-5h-2.613a6.064 6.064 0 011.78 2H17a3 3 0 013 3v1h-3v1.75c0 .086-.008.17-.023.25z" clip-rule="evenodd"/></symbol></svg>