<?xml version="1.0" encoding="utf-8"?><svg xmlns="http://www.w3.org/2000/svg" xmlns:xlink="http://www.w3.org/1999/xlink"><symbol fill="none" stroke="currentColor" viewBox="0 0 24 24" id="align-objects-bottom" xmlns="http://www.w3.org/2000/svg"><g stroke-linecap="round" stroke-width="2"><path d="M20 20H4M12 17V6M15 14l-3 3-3-3"/></g></symbol><symbol fill="none" stroke="currentColor" viewBox="0 0 24 24" id="align-objects-center" xmlns="http://www.w3.org/2000/svg"><g stroke-linecap="round" stroke-width="2"><path d="M12 4v16M16 12h5M18 9l-3 3 3 3M8 12H3M6 9l3 3-3 3"/></g></symbol><symbol fill="none" stroke="currentColor" viewBox="0 0 24 24" id="align-objects-left" xmlns="http://www.w3.org/2000/svg"><g stroke-linecap="round" stroke-width="2"><path d="M4 4v16M7 12h11M10 9l-3 3 3 3"/></g></symbol><symbol fill="none" stroke="currentColor" viewBox="0 0 24 24" id="align-objects-middle" xmlns="http://www.w3.org/2000/svg"><g stroke-linecap="round" stroke-width="2"><path d="M4 12h16M12 8V3M9 6l3 3 3-3M12 16v5M9 18l3-3 3 3"/></g></symbol><symbol fill="none" stroke="currentColor" viewBox="0 0 24 24" id="align-objects-right" xmlns="http://www.w3.org/2000/svg"><g stroke-linecap="round" stroke-width="2"><path d="M20 4v16M17 12H6M14 9l3 3-3 3"/></g></symbol><symbol fill="none" stroke="currentColor" viewBox="0 0 24 24" id="align-objects-top" xmlns="http://www.w3.org/2000/svg"><g stroke-linecap="round" stroke-width="2"><path d="M20 4H4M12 7v11M15 10l-3-3-3 3"/></g></symbol><symbol fill="none" viewBox="0 0 24 24" id="align-text-center" xmlns="http://www.w3.org/2000/svg"><g stroke="currentColor" stroke-linecap="round" stroke-width="2"><path d="M4 6h16M7 10h10M4 14h16M9 18h6"/></g></symbol><symbol fill="none" viewBox="0 0 24 24" id="align-text-justify" xmlns="http://www.w3.org/2000/svg"><g stroke="currentColor" stroke-linecap="round" stroke-width="2"><path d="M4 6h16M4 10h16M4 14h16M4 18h16"/></g></symbol><symbol fill="none" viewBox="0 0 24 24" id="align-text-left" xmlns="http://www.w3.org/2000/svg"><g stroke="currentColor" stroke-linecap="round" stroke-width="2"><path d="M4 6h16M4 10h13M4 14h16M4 18h5.5"/></g></symbol><symbol fill="none" viewBox="0 0 24 24" id="align-text-right" xmlns="http://www.w3.org/2000/svg"><g stroke="currentColor" stroke-linecap="round" stroke-width="2"><path d="M4 6h16M7 10h13M4 14h16M14 18h6"/></g></symbol><symbol fill="none" viewBox="0 0 24 24" id="archive" xmlns="http://www.w3.org/2000/svg"><g stroke="currentColor" stroke-width="2"><path stroke-linejoin="round" d="M3 5a1 1 0 011-1h16a1 1 0 011 1v3H3V5z"/><path stroke-linecap="round" d="M9.5 13h5"/><path stroke-linejoin="round" d="M4 8h16v11a1 1 0 01-1 1H5a1 1 0 01-1-1V8z"/></g></symbol><symbol fill="none" stroke="currentColor" viewBox="0 0 24 24" id="arrow-down" xmlns="http://www.w3.org/2000/svg"><g stroke-linecap="round" stroke-width="2"><path d="M12 4v16M6 14l6 6 6-6"/></g></symbol><symbol fill="none" viewBox="0 0 24 24" id="arrow-go-back" xmlns="http://www.w3.org/2000/svg"><g stroke="currentColor" stroke-linecap="round" stroke-width="2"><path d="M11 18h3.75c2.9 0 5.25-2.35 5.25-5.25v0c0-2.9-2.35-5.25-5.25-5.25H5"/><path d="M7.5 4L4 7.5 7.5 11"/></g></symbol><symbol fill="none" viewBox="0 0 24 24" id="arrow-go-forward" xmlns="http://www.w3.org/2000/svg"><g stroke="currentColor" stroke-linecap="round" stroke-width="2"><path d="M13 18H9.25A5.25 5.25 0 014 12.75v0C4 9.85 6.35 7.5 9.25 7.5H19"/><path d="M16.5 4L20 7.5 16.5 11"/></g></symbol><symbol fill="none" stroke="currentColor" viewBox="0 0 24 24" id="arrow-left" xmlns="http://www.w3.org/2000/svg"><g stroke-linecap="round" stroke-width="2"><path d="M20 12H4M10 6l-6 6 6 6"/></g></symbol><symbol fill="none" viewBox="0 0 24 24" id="arrow-left-down" xmlns="http://www.w3.org/2000/svg"><g stroke="currentColor" stroke-linecap="round" stroke-width="2"><path d="M17.657 6.343L6.343 17.657M6.343 9.172v8.485h8.485"/></g></symbol><symbol fill="none" viewBox="0 0 24 24" id="arrow-left-up" xmlns="http://www.w3.org/2000/svg"><g stroke="currentColor" stroke-linecap="round" stroke-width="2"><path d="M17.657 17.9L6.343 6.585M6.343 15.071V6.586h8.485"/></g></symbol><symbol fill="none" stroke="currentColor" viewBox="0 0 24 24" id="arrow-right" xmlns="http://www.w3.org/2000/svg"><g stroke-linecap="round" stroke-width="2"><path d="M4 12h16M14 18l6-6-6-6"/></g></symbol><symbol fill="none" viewBox="0 0 24 24" id="arrow-right-down" xmlns="http://www.w3.org/2000/svg"><g stroke="currentColor" stroke-linecap="round" stroke-width="2"><path d="M6.343 6.343l11.314 11.314M9.172 17.657h8.485V9.172"/></g></symbol><symbol fill="none" viewBox="0 0 24 24" id="arrow-right-up" xmlns="http://www.w3.org/2000/svg"><g stroke="currentColor" stroke-linecap="round" stroke-width="2"><path d="M6.343 17.657L17.657 6.343M17.657 14.828V6.343H9.172"/></g></symbol><symbol fill="none" stroke="currentColor" viewBox="0 0 24 24" id="arrow-up" xmlns="http://www.w3.org/2000/svg"><g stroke-linecap="round" stroke-width="2"><path d="M12 20V4M18 10l-6-6-6 6"/></g></symbol><symbol viewBox="0 0 24 24" id="arrows" xmlns="http://www.w3.org/2000/svg"><g fill="currentColor"><path d="M4 12l-.707-.707-.707.707.707.707L4 12zm16 0l.707.707.707-.707-.707-.707L20 12zm-3.207 1.793a1 1 0 001.414 1.414l-1.414-1.414zm1.414-5a1 1 0 10-1.414 1.414l1.414-1.414zm-11 1.414a1 1 0 00-1.414-1.414l1.414 1.414zm-1.414 5a1 1 0 001.414-1.414l-1.414 1.414zM4 13h16v-2H4v2zm14.207 2.207l2.5-2.5-1.414-1.414-2.5 2.5 1.414 1.414zm-1.414-5l2.5 2.5 1.414-1.414-2.5-2.5-1.414 1.414zm-11-1.414l-2.5 2.5 1.414 1.414 2.5-2.5-1.414-1.414zm1.414 5l-2.5-2.5-1.414 1.414 2.5 2.5 1.414-1.414z"/><path fill-rule="evenodd" d="M11.293 20.707l.707.707.707-.707 2.5-2.5a1 1 0 00-1.414-1.414l-.793.793V14h-2v3.586l-.793-.793a1 1 0 00-1.414 1.414l2.5 2.5zM11 10V6.414l-.793.793a1 1 0 01-1.414-1.414l2.5-2.5.707-.707.707.707 2.5 2.5a1 1 0 01-1.414 1.414L13 6.414V10h-2z" clip-rule="evenodd"/></g></symbol><symbol fill="none" viewBox="0 0 24 24" id="arrows-horizontal" xmlns="http://www.w3.org/2000/svg"><g stroke="currentColor" stroke-width="2"><path stroke-linecap="round" d="M7 9l-3 3 3 3m10 0l3-3-3-3"/><path d="M20 12H4"/></g></symbol><symbol fill="none" viewBox="0 0 24 24" id="arrows-vertical" xmlns="http://www.w3.org/2000/svg"><g stroke="currentColor" stroke-width="2"><path stroke-linecap="round" d="M9 17l3 3 3-3m0-10l-3-3-3 3"/><path d="M12 4v16"/></g></symbol><symbol fill="none" viewBox="0 0 24 24" id="ban" xmlns="http://www.w3.org/2000/svg"><g stroke="currentColor" stroke-width="2"><circle cx="12" cy="12" r="9"/><path d="M5.5 5.5l13 13"/></g></symbol><symbol fill="currentColor" viewBox="0 0 24 24" id="bars" xmlns="http://www.w3.org/2000/svg"><rect width="18" height="2" x="3" y="5" rx="1"/><path d="M3 12a1 1 0 011-1h16a1 1 0 110 2H4a1 1 0 01-1-1z"/><rect width="18" height="2" x="3" y="17" rx="1"/></symbol><symbol fill="none" viewBox="0 0 24 24" id="bell" xmlns="http://www.w3.org/2000/svg"><path fill="currentColor" d="M5 16a1 1 0 100 2v-2zm14 2a1 1 0 100-2v2zm-2-1h-1v1h1v-1zM7 17v1h1v-1H7zm-2 1h14v-2H5v2zm14-2h-2v2h2v-2zm-1 1v-6h-2v6h2zM6 11v6h2v-6H6zm1 5H5v2h2v-2zm1-5a4 4 0 014-4V5a6 6 0 00-6 6h2zm10 0a6 6 0 00-6-6v2a4 4 0 014 4h2zM10 19.5a2 2 0 104 0h-4zm0-.5v.5h4V19h-4z"/><path stroke="currentColor" stroke-linejoin="round" stroke-width="2" d="M11.5 6V4h1v2"/></symbol><symbol fill="none" viewBox="0 0 24 24" id="book" xmlns="http://www.w3.org/2000/svg"><g stroke="currentColor" stroke-linejoin="round" stroke-width="2"><path d="M18 16V4H8a2 2 0 00-2 2v12"/><path d="M18 20H8a2 2 0 110-4h10c-.673 1.613-.66 2.488 0 4z"/></g></symbol><symbol fill="none" viewBox="0 0 24 24" id="book-open" xmlns="http://www.w3.org/2000/svg"><path fill="currentColor" d="M4 7.321l-.277-.96A1 1 0 003 7.32h1zm4.183-1.205l-.277-.96.277.96zM4 16.474H3a1 1 0 001.277.961L4 16.475zm4.183-1.205l.277.961-.277-.96zM4.277 8.282L8.46 7.077l-.554-1.922-4.183 1.206.554 1.921zM8.46 7.077c1.044-.3 1.946.033 2.379.75l1.713-1.03c-1-1.662-2.935-2.135-4.646-1.642l.554 1.922zM4.277 17.435L8.46 16.23l-.554-1.922-4.183 1.206.554 1.921zm.723-.96V7.32H3v9.153h2zm3.46-.245c.643-.185 1.23-.161 1.665.014.407.165.744.481.92 1.05l1.91-.589c-.353-1.144-1.116-1.926-2.082-2.315-.936-.378-1.994-.362-2.967-.082l.554 1.922zM11 8.754V16h2V8.754h-2zm-.161-.926c.108.18.161.458.161.926h2c0-.532-.041-1.282-.448-1.957l-1.713 1.03z"/><path stroke="currentColor" stroke-linejoin="round" stroke-width="2" d="M12 8c.529-1.714 2.201-2.35 3.817-1.884L20 7.321v9.153l-4.183-1.205C14.2 14.803 12.529 15.286 12 17"/><path stroke="currentColor" stroke-linejoin="round" d="M12.5 17h-1v.5h1V17z"/></symbol><symbol fill="none" viewBox="0 0 24 24" id="bookmark" xmlns="http://www.w3.org/2000/svg"><path stroke="currentColor" stroke-linejoin="round" stroke-width="2" d="M6 20V5a1 1 0 011-1h10a1 1 0 011 1v15l-6-3-6 3z"/></symbol><symbol fill="none" viewBox="0 0 24 24" id="briefcase" xmlns="http://www.w3.org/2000/svg"><path stroke="currentColor" stroke-linecap="round" stroke-width="2" d="M8 8V6a2 2 0 012-2h4a2 2 0 012 2v2M4 14l3.15.787a20 20 0 009.7 0L20 14"/><path stroke="currentColor" stroke-linejoin="round" stroke-width="2" d="M4 10a2 2 0 012-2h12a2 2 0 012 2v8a2 2 0 01-2 2H6a2 2 0 01-2-2v-8z"/><circle cx="12" cy="12" r="1" fill="currentColor"/></symbol><symbol fill="none" stroke="currentColor" viewBox="0 0 24 24" id="brush-big" xmlns="http://www.w3.org/2000/svg"><g stroke-width="2"><path d="M6 16l4.5 4.5 4-4a.707.707 0 011 0v0a.707.707 0 001 0l2.293-2.293a1 1 0 000-1.414l-2.086-2.086a1 1 0 010-1.414l3.586-3.586a1 1 0 000-1.414l-.586-.586a1 1 0 00-1.414 0l-3.586 3.586a1 1 0 01-1.414 0l-2.086-2.086a1 1 0 00-1.414 0L7.5 7.5a.707.707 0 000 1v0a.707.707 0 010 1l-4 4L6 16zm0 0l2.5-2.5M7.5 8.5l8 8"/></g></symbol><symbol fill="none" viewBox="0 0 24 24" id="calendar" xmlns="http://www.w3.org/2000/svg"><g stroke="currentColor" stroke-width="2"><path stroke-linejoin="round" d="M4 6a1 1 0 011-1h14a1 1 0 011 1v4H4V6z"/><path stroke-linecap="round" d="M8 6.5v-3M16 6.5v-3"/><path stroke-linejoin="round" d="M4 10h16v9a1 1 0 01-1 1H5a1 1 0 01-1-1v-9z"/></g></symbol><symbol fill="none" viewBox="0 0 24 24" id="camera" xmlns="http://www.w3.org/2000/svg"><g stroke="currentColor" stroke-width="2"><path d="M20 17V8a1 1 0 00-1-1h-2.382a1 1 0 01-.894-.553l-.448-.894A1 1 0 0014.382 5H9.618a1 1 0 00-.894.553l-.448.894A1 1 0 017.382 7H5a1 1 0 00-1 1v9a1 1 0 001 1h14a1 1 0 001-1z"/><circle cx="12" cy="12" r="3"/></g></symbol><symbol fill="none" viewBox="0 0 24 24" id="camera-off" xmlns="http://www.w3.org/2000/svg"><path stroke="currentColor" stroke-linecap="round" stroke-width="2" d="M4 4l16 16"/><path fill="currentColor" fill-rule="evenodd" d="M9.172 9.172a4 4 0 005.657 5.657l-1.415-1.415a2 2 0 11-2.828-2.828L9.172 9.172zm6.692 3.864l-4.9-4.9a4 4 0 014.9 4.9z" clip-rule="evenodd"/><path fill="currentColor" fill-rule="evenodd" d="M6 6H5a2 2 0 00-2 2v9a2 2 0 002 2h14l-2-2H5V8h2.382c.186 0 .369-.026.543-.075L6 6zm13 10.172V8h-2.382a2 2 0 01-1.789-1.106L14.382 6H9.618l-.263.526-1.49-1.49A2 2 0 019.618 4h4.764a2 2 0 011.789 1.106l.447.894H19a2 2 0 012 2v9c0 .34-.084.659-.233.938l-.06-.06L19 16.173zm1.09 2.505l-.09-.091c.026.026.05.06.073.102l.018-.011z" clip-rule="evenodd"/></symbol><symbol fill="none" viewBox="0 0 24 24" id="camera-video" xmlns="http://www.w3.org/2000/svg"><g stroke="currentColor" stroke-width="2"><path d="M16 16V8a1 1 0 00-1-1H5a1 1 0 00-1 1v8a1 1 0 001 1h10a1 1 0 001-1z"/><path stroke-linejoin="round" d="M20 7l-4 3v4l4 3V7z"/></g></symbol><symbol fill="none" viewBox="0 0 24 24" id="camera-video-off" xmlns="http://www.w3.org/2000/svg"><path stroke="currentColor" stroke-linejoin="round" stroke-width="2" d="M20 7l-4 3v4l4 3V7z"/><path stroke="currentColor" stroke-linecap="round" stroke-width="2" d="M3 5l14 14"/><path fill="currentColor" fill-rule="evenodd" d="M4.622 6.036A2 2 0 003 8v8a2 2 0 002 2h10c.447 0 .86-.146 1.192-.394L14.586 16H5V8h1.586L4.622 6.036zM15 13.586V8H9.414l-2-2H15a2 2 0 012 2v7.586l-2-2z" clip-rule="evenodd"/></symbol><symbol fill="none" viewBox="0 0 24 24" id="cart" xmlns="http://www.w3.org/2000/svg"><circle cx="7.5" cy="18.5" r="1.5" fill="currentColor"/><circle cx="16.5" cy="18.5" r="1.5" fill="currentColor"/><path stroke="currentColor" stroke-linecap="round" stroke-linejoin="round" stroke-width="2" d="M3 5h2l.6 3m0 0L7 15h10l2-7H5.6z"/></symbol><symbol fill="none" viewBox="0 0 24 24" id="chart" xmlns="http://www.w3.org/2000/svg"><g stroke="currentColor" stroke-linecap="round" stroke-width="2"><path d="M17 5v15M12 11v9M7 14v6"/></g></symbol><symbol fill="none" viewBox="0 0 24 24" id="chat" xmlns="http://www.w3.org/2000/svg"><g fill="currentColor"><path d="M4 19l-.93-.37a1 1 0 001.125 1.35L4 19zm4.706-.936l.474-.881-.317-.17-.352.07.195.98zm-3.082-3.147l.93.37.163-.414-.196-.399-.897.443zM19 12c0 3.246-2.853 6-6.53 6v2c4.641 0 8.53-3.514 8.53-8h-2zM5.941 12c0-3.246 2.854-6 6.53-6V4C7.83 4 3.94 7.514 3.94 12h2zm6.53-6C16.147 6 19 8.754 19 12h2c0-4.486-3.889-8-8.53-8v2zm0 12c-1.205 0-2.328-.3-3.291-.817l-.948 1.761A8.934 8.934 0 0012.471 20v-2zm-8.276 1.98l4.706-.936-.39-1.961-4.706.936.39 1.962zm2.326-5.506A5.564 5.564 0 015.94 12h-2c0 1.2.282 2.338.786 3.36l1.794-.886zm-1.826.073L3.07 18.631l1.858.738 1.624-4.083-1.858-.739z"/><circle cx="9" cy="12" r="1"/><circle cx="12.5" cy="12" r="1"/><circle cx="16" cy="12" r="1"/></g></symbol><symbol fill="none" viewBox="0 0 24 24" id="chats" xmlns="http://www.w3.org/2000/svg"><g fill="currentColor"><path d="M3 15l-.925-.38a1 1 0 001.114 1.362L3 15zm3.824-.736l.46-.887-.308-.16-.341.065.189.982zm-2.505-2.472l.925.38.175-.425-.209-.41-.89.455zM15 9.5c0 2.388-2.188 4.5-5.118 4.5v2C13.711 16 17 13.187 17 9.5h-2zm-10.235 0c0-2.388 2.188-4.5 5.117-4.5V3C6.054 3 2.765 5.813 2.765 9.5h2zM9.882 5C12.812 5 15 7.112 15 9.5h2C17 5.813 13.71 3 9.882 3v2zm0 9c-.953 0-1.84-.23-2.597-.623l-.923 1.774a7.623 7.623 0 003.52.849v-2zM3.19 15.982l3.824-.736-.378-1.964-3.824.736.378 1.964zm2.021-4.645A4.019 4.019 0 014.765 9.5h-2c0 .982.239 1.914.664 2.746l1.781-.909zm-1.815.074l-1.32 3.209 1.85.76 1.32-3.208-1.85-.76z"/><circle r="1" transform="matrix(-1 0 0 1 13 9.5)"/><circle r="1" transform="matrix(-1 0 0 1 10 9.5)"/><circle r="1" transform="matrix(-1 0 0 1 7 9.5)"/><path fill-rule="evenodd" d="M17.957 10.285c.803.807 1.278 1.86 1.278 2.972 0 .653-.158 1.274-.445 1.837l-.21.41.176.425.615 1.496-2.006-.386-.341-.066-.309.16a5.623 5.623 0 01-2.597.624 5.541 5.541 0 01-2.97-.834 8.6 8.6 0 01-3.006-.126c1.286 1.803 3.52 2.96 5.976 2.96a7.653 7.653 0 003.197-.691l3.496.673a1 1 0 001.114-1.363l-1.154-2.805c.3-.718.464-1.498.464-2.314 0-2.42-1.417-4.464-3.474-5.583a7.072 7.072 0 01.196 2.61z" clip-rule="evenodd"/></g></symbol><symbol fill="none" viewBox="0 0 24 24" id="check" xmlns="http://www.w3.org/2000/svg"><path fill="currentColor" d="M5.707 13.293a1 1 0 00-1.414 1.414l1.414-1.414zM9 18l-.707.707a1 1 0 001.414 0L9 18zm10.707-9.293a1 1 0 00-1.414-1.414l1.414 1.414zm-15.414 6l4 4 1.414-1.414-4-4-1.414 1.414zm5.414 4l10-10-1.414-1.414-10 10 1.414 1.414z"/></symbol><symbol fill="none" viewBox="0 0 24 24" id="check-circle" xmlns="http://www.w3.org/2000/svg"><circle cx="12" cy="12" r="9" stroke="currentColor" stroke-width="2"/><path fill="currentColor" d="M8.707 11.793a1 1 0 00-1.414 1.414l1.414-1.414zM10.2 14.7l-.707.707a1 1 0 001.414 0L10.2 14.7zm6.207-4.793a1 1 0 00-1.414-1.414l1.414 1.414zm-9.114 3.3l2.2 2.2 1.414-1.414-2.2-2.2-1.414 1.414zm3.614 2.2l5.5-5.5-1.414-1.414-5.5 5.5 1.414 1.414z"/></symbol><symbol fill="none" stroke="currentColor" viewBox="0 0 24 24" id="chevron-down" xmlns="http://www.w3.org/2000/svg"><path stroke-linecap="round" stroke-width="2" d="M5 10l7 7 7-7"/></symbol><symbol fill="none" stroke="currentColor" viewBox="0 0 24 24" id="chevron-left" xmlns="http://www.w3.org/2000/svg"><path stroke-linecap="round" stroke-width="2" d="M14 5l-7 7 7 7"/></symbol><symbol fill="none" stroke="currentColor" viewBox="0 0 24 24" id="chevron-right" xmlns="http://www.w3.org/2000/svg"><path stroke-linecap="round" stroke-width="2" d="M10 5l7 7-7 7"/></symbol><symbol fill="none" stroke="currentColor" viewBox="0 0 24 24" id="chevron-up" xmlns="http://www.w3.org/2000/svg"><path stroke-linecap="round" stroke-width="2" d="M5 14l7-7 7 7"/></symbol><symbol fill="none" viewBox="0 0 24 24" id="circle" xmlns="http://www.w3.org/2000/svg"><circle cx="12" cy="12" r="9" stroke="currentColor" stroke-width="2"/></symbol><symbol fill="none" viewBox="0 0 24 24" id="clipboard" xmlns="http://www.w3.org/2000/svg"><path stroke="currentColor" stroke-linejoin="round" stroke-width="2" d="M9 3h6v4H9z"/><path fill="currentColor" fill-rule="evenodd" d="M9 3.056H6a2 2 0 00-2 2v14.888a2 2 0 002 2h12a2 2 0 002-2V5.056a2 2 0 00-2-2h-3v2h3v14.888H6V5.056h3v-2z" clip-rule="evenodd"/></symbol><symbol fill="none" viewBox="0 0 24 24" id="clock" xmlns="http://www.w3.org/2000/svg"><g stroke="currentColor" stroke-width="2"><circle cx="12" cy="12" r="9"/><path stroke-linecap="round" stroke-linejoin="round" d="M12 6.5V12l3.5 2"/></g></symbol><symbol fill="none" viewBox="0 0 24 24" id="cloud" xmlns="http://www.w3.org/2000/svg"><path fill="currentColor" d="M9.268 10.732a1 1 0 101.414-1.414l-1.414 1.414zm-1.41-.707a2.485 2.485 0 011.41.707l1.414-1.414a4.485 4.485 0 00-2.54-1.272l-.284 1.98z"/><path stroke="currentColor" stroke-linecap="round" stroke-linejoin="round" stroke-width="2" d="M7.5 16a3.5 3.5 0 11.87-6.891 5.002 5.002 0 019.614 1.49A2.751 2.751 0 0117.25 16H7.5z"/></symbol><symbol fill="none" viewBox="0 0 24 24" id="cloud-sun" xmlns="http://www.w3.org/2000/svg"><path fill="currentColor" fill-rule="evenodd" d="M7 10a3 3 0 015.39-1.814 7.02 7.02 0 012.205-.161 5.001 5.001 0 00-9.197 3.933 5.473 5.473 0 011.83-.81A2.992 2.992 0 017 10z" clip-rule="evenodd"/><path stroke="currentColor" stroke-linecap="round" stroke-width="2" d="M10 3.5V3M3.5 10H3M14.596 5.404l.354-.354M5.404 5.404L5.05 5.05"/><path fill="currentColor" d="M10.268 14.732a1 1 0 001.414-1.414l-1.414 1.414zm-1.41-.706a2.484 2.484 0 011.41.706l1.414-1.414a4.484 4.484 0 00-2.54-1.272l-.284 1.98z"/><path stroke="currentColor" stroke-linecap="round" stroke-linejoin="round" stroke-width="2" d="M8.5 20a3.5 3.5 0 11.87-6.891 5.002 5.002 0 019.614 1.49A2.751 2.751 0 0118.25 20H8.5z"/></symbol><symbol fill="none" viewBox="0 0 24 24" id="code" xmlns="http://www.w3.org/2000/svg"><g stroke="currentColor" stroke-linecap="round" stroke-width="2"><path stroke-linejoin="round" d="M7 8l-4 4 4 4"/><path d="M10.5 18l3-12"/><path stroke-linejoin="round" d="M17 8l4 4-4 4"/></g></symbol><symbol fill="none" viewBox="0 0 24 24" id="coffee" xmlns="http://www.w3.org/2000/svg"><path stroke="currentColor" stroke-linejoin="round" stroke-width="2" d="M17 12H4v4a4 4 0 004 4h5a4 4 0 004-4v-4z"/><path stroke="currentColor" stroke-linecap="round" stroke-width="2" d="M13 9s1-1 .5-2l-1-2C12 4 13 3 13 3M8.64 9s1-1 .5-2l-1-2c-.5-1 .5-2 .5-2"/><path fill="currentColor" d="M17 13h2v-2h-2v2zm3 1v1h2v-1h-2zm-1 2h-2v2h2v-2zm1-1a1 1 0 01-1 1v2a3 3 0 003-3h-2zm-1-2a1 1 0 011 1h2a3 3 0 00-3-3v2z"/></symbol><symbol fill="none" stroke="currentColor" viewBox="0 0 24 24" id="cog" xmlns="http://www.w3.org/2000/svg"><path fill="currentColor" d="M13 13.731a2 2 0 11-2-3.462 2 2 0 112 3.462z" stroke="none"/><path stroke-width="2" d="M18.005 15.98l-.482-.006-.306.373c-.274.335-.58.645-.916.924l-.366.306.007.477.021 1.486a1 1 0 01-.737.98l-1.819.495a1 1 0 01-1.139-.484l-.699-1.272-.233-.425-.478-.08a6.7 6.7 0 01-1.244-.335l-.454-.17-.415.252-1.243.753a1 1 0 01-1.228-.151l-1.328-1.338a1 1 0 01-.148-1.217l.762-1.278.245-.41-.165-.447c-.15-.409-.26-.83-.332-1.259l-.078-.475-.421-.234-1.273-.71a1 1 0 01-.479-1.133l.5-1.863a1 1 0 01.98-.741l1.458.021.482.007.306-.373c.275-.335.58-.645.916-.924l.366-.306-.007-.477-.021-1.486a1 1 0 01.737-.98l1.819-.494a1 1 0 011.139.483l.699 1.273.233.424.478.08a6.72 6.72 0 011.244.335l.454.17.415-.251 1.243-.754a1 1 0 011.228.151l1.328 1.338a1 1 0 01.148 1.217L18.44 8.73l-.245.41.165.447c.148.405.261.832.332 1.259l.078.475.421.234 1.273.71a1 1 0 01.479 1.133l-.5 1.863a1 1 0 01-.98.741l-1.458-.021v-.001z"/></symbol><symbol fill="none" viewBox="0 0 24 24" id="corner-down-left" xmlns="http://www.w3.org/2000/svg"><g stroke="currentColor" stroke-linecap="round" stroke-width="2"><path d="M20 5v6.5a3 3 0 01-3 3H5"/><path d="M7.5 18L4 14.5 7.5 11"/></g></symbol><symbol fill="none" viewBox="0 0 24 24" id="corner-down-right" xmlns="http://www.w3.org/2000/svg"><g stroke="currentColor" stroke-linecap="round" stroke-width="2"><path d="M4 5v6.5a3 3 0 003 3h12"/><path d="M16.5 18l3.5-3.5-3.5-3.5"/></g></symbol><symbol fill="none" viewBox="0 0 24 24" id="corner-left-down" xmlns="http://www.w3.org/2000/svg"><g stroke="currentColor" stroke-linecap="round" stroke-width="2"><path d="M19 4h-6.5a3 3 0 00-3 3v12"/><path d="M6 16.5L9.5 20l3.5-3.5"/></g></symbol><symbol fill="none" viewBox="0 0 24 24" id="corner-left-up" xmlns="http://www.w3.org/2000/svg"><g stroke="currentColor" stroke-linecap="round" stroke-width="2"><path d="M19 20h-6.5a3 3 0 01-3-3V5"/><path d="M6 7.5L9.5 4 13 7.5"/></g></symbol><symbol fill="none" viewBox="0 0 24 24" id="corner-right-down" xmlns="http://www.w3.org/2000/svg"><g stroke="currentColor" stroke-linecap="round" stroke-width="2"><path d="M5 4h6.5a3 3 0 013 3v12"/><path d="M18 16.5L14.5 20 11 16.5"/></g></symbol><symbol fill="none" viewBox="0 0 24 24" id="corner-right-up" xmlns="http://www.w3.org/2000/svg"><g stroke="currentColor" stroke-linecap="round" stroke-width="2"><path d="M5 20h6.5a3 3 0 003-3V5"/><path d="M18 7.5L14.5 4 11 7.5"/></g></symbol><symbol fill="none" viewBox="0 0 24 24" id="corner-top-left" xmlns="http://www.w3.org/2000/svg"><g stroke="currentColor" stroke-linecap="round" stroke-width="2"><path d="M20 19v-6.5a3 3 0 00-3-3H5"/><path d="M7.5 6L4 9.5 7.5 13"/></g></symbol><symbol fill="none" viewBox="0 0 24 24" id="corner-up-right" xmlns="http://www.w3.org/2000/svg"><g stroke="currentColor" stroke-linecap="round" stroke-width="2"><path d="M4 19v-6.5a3 3 0 013-3h12"/><path d="M16.5 6L20 9.5 16.5 13"/></g></symbol><symbol fill="none" viewBox="0 0 24 24" id="crop" xmlns="http://www.w3.org/2000/svg"><path stroke="currentColor" stroke-linecap="round" stroke-linejoin="round" stroke-width="2" d="M4 7h12a1 1 0 011 1v12"/><path fill="currentColor" fill-rule="evenodd" d="M20 18a1 1 0 100-2H8V9H6v7a2 2 0 002 2h12zM6 8h2V4a1 1 0 10-2 0v4z" clip-rule="evenodd"/></symbol><symbol fill="none" viewBox="0 0 24 24" id="database" xmlns="http://www.w3.org/2000/svg"><ellipse cx="12" cy="6" stroke="currentColor" stroke-width="2" rx="8" ry="3"/><path stroke="currentColor" stroke-width="2" d="M4 6v12M20 6v12"/><path fill="currentColor" fill-rule="evenodd" d="M5 9.384c-.39.206-.74.439-1.035.7C3.437 10.552 3 11.197 3 12c0 .803.437 1.448.965 1.916.53.469 1.238.846 2.027 1.142C7.578 15.653 9.702 16 12 16c2.297 0 4.422-.348 6.008-.942.79-.296 1.498-.673 2.027-1.142.527-.468.965-1.113.965-1.916 0-.803-.438-1.448-.965-1.916a5.282 5.282 0 00-1.035-.7V12c0 .025-.01.17-.292.42-.28.248-.744.518-1.402.765-1.31.49-3.185.815-5.306.815s-3.997-.324-5.306-.815c-.658-.247-1.121-.517-1.402-.766C5.01 12.17 5 12.025 5 12V9.384z" clip-rule="evenodd"/><path fill="currentColor" fill-rule="evenodd" d="M5 15.384c-.39.206-.74.439-1.035.7C3.437 16.552 3 17.197 3 18c0 .803.437 1.448.965 1.916.53.469 1.238.846 2.027 1.142C7.578 21.653 9.702 22 12 22c2.297 0 4.422-.348 6.008-.942.79-.296 1.498-.673 2.027-1.142.527-.468.965-1.113.965-1.916 0-.803-.438-1.448-.965-1.916a5.283 5.283 0 00-1.035-.7V18c0 .026-.01.17-.292.42-.28.248-.744.518-1.402.765-1.31.49-3.185.815-5.306.815s-3.997-.324-5.306-.815c-.658-.247-1.121-.517-1.402-.765C5.01 18.17 5 18.024 5 18v-2.616z" clip-rule="evenodd"/></symbol><symbol fill="none" stroke="currentColor" viewBox="0 0 24 24" id="desktop" xmlns="http://www.w3.org/2000/svg"><g stroke-width="2"><path d="M20 5H4a1 1 0 00-1 1v9a1 1 0 001 1h16a1 1 0 001-1V6a1 1 0 00-1-1zM8 20h8M12 20v-5"/></g></symbol><symbol fill="none" stroke="currentColor" viewBox="0 0 24 24" id="document" xmlns="http://www.w3.org/2000/svg"><g stroke-linejoin="round" stroke-width="2"><path d="M5 20V4a1 1 0 011-1h6.172a2 2 0 011.414.586l4.828 4.828A2 2 0 0119 9.828V20a1 1 0 01-1 1H6a1 1 0 01-1-1z"/><path d="M12 3v6a1 1 0 001 1h6"/></g></symbol><symbol fill="none" viewBox="0 0 24 24" id="document-add" xmlns="http://www.w3.org/2000/svg"><g stroke="currentColor" stroke-linejoin="round" stroke-width="2"><path stroke-linecap="round" d="M14.5 15.5h-5M12 18v-5"/><path d="M5 20V4a1 1 0 011-1h6.172a2 2 0 011.414.586l4.828 4.828A2 2 0 0119 9.828V20a1 1 0 01-1 1H6a1 1 0 01-1-1z"/><path d="M12 3v6a1 1 0 001 1h6"/></g></symbol><symbol fill="none" viewBox="0 0 24 24" id="document-remove" xmlns="http://www.w3.org/2000/svg"><g stroke="currentColor" stroke-linejoin="round" stroke-width="2"><path stroke-linecap="round" d="M14.5 15.5h-5"/><path d="M5 20V4a1 1 0 011-1h6.172a2 2 0 011.414.586l4.828 4.828A2 2 0 0119 9.828V20a1 1 0 01-1 1H6a1 1 0 01-1-1z"/><path d="M12 3v6a1 1 0 001 1h6"/></g></symbol><symbol fill="none" viewBox="0 0 24 24" id="documents" xmlns="http://www.w3.org/2000/svg"><path stroke="currentColor" stroke-linejoin="round" stroke-width="2" d="M8 16V4a1 1 0 011-1h5.06a1 1 0 01.737.324l4.94 5.39a1 1 0 01.263.675V16a1 1 0 01-1 1H9a1 1 0 01-1-1z"/><path stroke="currentColor" stroke-linejoin="round" stroke-width="2" d="M13 3v7h7"/><path fill="currentColor" fill-rule="evenodd" d="M6 6H5a2 2 0 00-2 2v12a2 2 0 002 2h9a2 2 0 002-2v-1h-2v1H5V8h1V6z" clip-rule="evenodd"/></symbol><symbol fill="currentColor" viewBox="0 0 24 24" id="dots-horizontal" xmlns="http://www.w3.org/2000/svg"><rect width="4" height="4" x="3" y="10" rx="2"/><rect width="4" height="4" x="10" y="10" rx="2"/><rect width="4" height="4" x="17" y="10" rx="2"/></symbol><symbol fill="none" viewBox="0 0 24 24" id="dots-vertical" xmlns="http://www.w3.org/2000/svg"><g fill="currentColor"><rect width="4" height="4" x="10" y="3" rx="2"/><rect width="4" height="4" x="10" y="10" rx="2"/><rect width="4" height="4" x="10" y="17" rx="2"/></g></symbol><symbol fill="none" viewBox="0 0 24 24" id="download" xmlns="http://www.w3.org/2000/svg"><path stroke="currentColor" stroke-linecap="round" stroke-width="2" d="M12 11.5V20M15 17l-3 3-3-3"/><path fill="currentColor" d="M9.268 8.732a1 1 0 001.414-1.414L9.268 8.732zm-1.41-.706a2.484 2.484 0 011.41.706l1.414-1.414a4.485 4.485 0 00-2.54-1.272l-.284 1.98z"/><path stroke="currentColor" stroke-linecap="round" stroke-linejoin="round" stroke-width="2" d="M17.5 14c1.519 0 2.5-1.231 2.5-2.75a2.75 2.75 0 00-2.016-2.65A5 5 0 008.37 7.108a3.5 3.5 0 00-1.87 6.746"/></symbol><symbol fill="none" viewBox="0 0 24 24" id="download-alt" xmlns="http://www.w3.org/2000/svg"><g stroke="currentColor" stroke-linecap="round" stroke-width="2"><path d="M12 5v8.5M15 10.5l-3 3-3-3M5 15v2a2 2 0 002 2h10a2 2 0 002-2v-2"/></g></symbol><symbol fill="none" viewBox="0 0 24 24" id="droplet" xmlns="http://www.w3.org/2000/svg"><path stroke="currentColor" stroke-width="2" d="M18 14.353C18 17.472 15.314 20 12 20s-6-2.528-6-5.647S8.5 8.5 12 4c3.5 4.5 6 7.234 6 10.353z"/></symbol><symbol fill="none" viewBox="0 0 24 24" id="duplicate" xmlns="http://www.w3.org/2000/svg"><rect width="12" height="12" x="8" y="8" stroke="currentColor" stroke-linejoin="round" stroke-width="2" rx="1"/><path fill="currentColor" fill-rule="evenodd" d="M5 3a2 2 0 00-2 2v10a2 2 0 002 2h1v-2H5V5h10v1h2V5a2 2 0 00-2-2H5z" clip-rule="evenodd"/></symbol><symbol fill="none" viewBox="0 0 24 24" id="exchange-horizontal" xmlns="http://www.w3.org/2000/svg"><g stroke="currentColor" stroke-linecap="round" stroke-width="2"><path d="M4 17h12M7.5 13.5L4 17l3.5 3.5M7 7h13M16.5 3.5L20 7l-3.5 3.5"/></g></symbol><symbol fill="none" viewBox="0 0 24 24" id="exchange-vertical" xmlns="http://www.w3.org/2000/svg"><g stroke="currentColor" stroke-linecap="round" stroke-width="2"><path d="M17 20V8M13.5 16.5L17 20l3.5-3.5M7 17V4M3.5 7.5L7 4l3.5 3.5"/></g></symbol><symbol viewBox="0 0 24 24" id="exclamation" xmlns="http://www.w3.org/2000/svg"><g fill="currentColor"><path d="M9.413 5.971l1.07 7.708a1.531 1.531 0 003.034 0l1.07-7.708a2.612 2.612 0 10-5.174 0z"/><circle cx="12" cy="19" r="2"/></g></symbol><symbol fill="none" viewBox="0 0 24 24" id="exclamation-triangle" xmlns="http://www.w3.org/2000/svg"><path stroke="currentColor" stroke-width="2" d="M10.245 4.208c.759-1.387 2.751-1.387 3.51 0l7.018 12.832c.73 1.333-.235 2.96-1.754 2.96H4.98c-1.519 0-2.483-1.627-1.754-2.96l7.018-12.832z"/><path fill="currentColor" d="M10.615 8.996l.314 4.08a1 1 0 00.997.924h.148a1 1 0 00.997-.923l.314-4.081a1.39 1.39 0 10-2.77 0z"/><circle cx="12" cy="16.5" r="1.5" fill="currentColor"/></symbol><symbol fill="none" viewBox="0 0 24 24" id="expand" xmlns="http://www.w3.org/2000/svg"><g fill="currentColor"><path d="M4 4V3H3v1h1zm4.793 6.207a1 1 0 001.414-1.414l-1.414 1.414zM8.5 5a1 1 0 000-2v2zM3 8.5a1 1 0 002 0H3zm.293-3.793l5.5 5.5 1.414-1.414-5.5-5.5-1.414 1.414zM4 5h4.5V3H4v2zM3 4v4.5h2V4H3zM20 4h1V3h-1v1zm-1 5a1 1 0 102 0h-2zm-3.5-6a1 1 0 100 2V3zm-1.707 5.793a1 1 0 001.414 1.414l-1.414-1.414zM19 4v5h2V4h-2zm1-1h-4.5v2H20V3zm-.707.293l-5.5 5.5 1.414 1.414 5.5-5.5-1.414-1.414zM4 20H3v1h1v-1zm4.5 1a1 1 0 100-2v2zm1.707-5.793a1 1 0 00-1.414-1.414l1.414 1.414zM5 15.5a1 1 0 10-2 0h2zM4 21h4.5v-2H4v2zm.707-.293l5.5-5.5-1.414-1.414-5.5 5.5 1.414 1.414zM5 20v-4.5H3V20h2zM20 20v1h1v-1h-1zm-4.793-6.207a1 1 0 00-1.414 1.414l1.414-1.414zM21 15.5a1 1 0 10-2 0h2zM15.5 19a1 1 0 100 2v-2zm5.207.293l-5.5-5.5-1.414 1.414 5.5 5.5 1.414-1.414zM21 20v-4.5h-2V20h2zm-1-1h-4.5v2H20v-2z"/></g></symbol><symbol fill="none" viewBox="0 0 24 24" id="eye" xmlns="http://www.w3.org/2000/svg"><g stroke="currentColor" stroke-width="2"><path stroke-linejoin="round" d="M3 12c5.4-8 12.6-8 18 0-5.4 8-12.6 8-18 0z"/><circle cx="12" cy="12" r="3"/></g></symbol><symbol fill="none" viewBox="0 0 24 24" id="eye-off" xmlns="http://www.w3.org/2000/svg"><path stroke="currentColor" stroke-linecap="round" stroke-width="2" d="M5 5l14 14"/><path fill="currentColor" fill-rule="evenodd" d="M9.48 8.894a4 4 0 105.627 5.627l-1.43-1.43a2 2 0 11-2.767-2.767l-1.43-1.43zm6.483 3.655a4 4 0 00-4.511-4.511l4.51 4.51z" clip-rule="evenodd"/><path fill="currentColor" fill-rule="evenodd" d="M7.068 6.482C5.305 7.573 3.65 9.247 2.17 11.44a1 1 0 000 1.12C4.971 16.706 8.39 19 12 19c1.957 0 3.858-.674 5.634-1.951l-1.436-1.437C14.79 16.557 13.37 17 12 17c-2.555 0-5.284-1.542-7.78-5 1.387-1.923 2.848-3.254 4.31-4.056L7.068 6.482zm10.693 7.865A16.915 16.915 0 0019.78 12C17.285 8.542 14.555 7 12 7c-.47 0-.947.052-1.427.16L8.965 5.55A8.759 8.759 0 0112 5c3.611 0 7.029 2.293 9.829 6.44a1 1 0 010 1.12c-.834 1.235-1.723 2.305-2.655 3.2l-1.413-1.413z" clip-rule="evenodd"/></symbol><symbol fill="none" viewBox="0 0 24 24" id="flag" xmlns="http://www.w3.org/2000/svg"><g stroke="currentColor" stroke-linecap="round" stroke-width="2"><path d="M6 5v15"/><path stroke-linejoin="round" d="M13 5.5V4H7a1 1 0 00-1 1v8h7v1.5h7v-9h-7zm0 0v3"/></g></symbol><symbol fill="none" viewBox="0 0 24 24" id="flask" xmlns="http://www.w3.org/2000/svg"><g stroke="currentColor" stroke-width="2"><path stroke-linejoin="round" d="M9.5 10V4h5v6l4.743 5.174A2.88 2.88 0 0117.12 20H6.88a2.88 2.88 0 01-2.123-4.826L9.5 10z"/><path stroke-linecap="round" d="M8.5 4h7"/><path d="M6 14c3.5 2 4 0 6 0s2.5 2 6 0"/></g></symbol><symbol fill="none" viewBox="0 0 24 24" id="folder" xmlns="http://www.w3.org/2000/svg"><path stroke="currentColor" stroke-linejoin="round" stroke-width="2" d="M3 18V6a2 2 0 012-2h4.539a2 2 0 011.562.75L12.2 6.126a1 1 0 00.78.375H20a1 1 0 011 1V18a1 1 0 01-1 1H4a1 1 0 01-1-1z"/></symbol><symbol fill="none" viewBox="0 0 24 24" id="folder-add" xmlns="http://www.w3.org/2000/svg"><g stroke="currentColor" stroke-width="2"><path stroke-linejoin="round" d="M3 18V6a2 2 0 012-2h4.539a2 2 0 011.562.75L12.2 6.126a1 1 0 00.78.375H20a1 1 0 011 1V18a1 1 0 01-1 1H4a1 1 0 01-1-1z"/><path stroke-linecap="round" d="M9.5 12.5h5M12 15v-5"/></g></symbol><symbol fill="none" viewBox="0 0 24 24" id="folder-open" xmlns="http://www.w3.org/2000/svg"><path stroke="currentColor" stroke-linejoin="round" stroke-width="2" d="M20 10H7v7a2 2 0 01-2 2h13a2 2 0 002-2v-7z"/><path fill="currentColor" fill-rule="evenodd" d="M4 6a1 1 0 011-1h2.172a1 1 0 01.707.293L9 6.414A2 2 0 0010.414 7H16v1h2V7a2 2 0 00-2-2h-5.586L9.293 3.879A3 3 0 007.172 3H5a3 3 0 00-3 3v11a3 3 0 003 3h11a2 2 0 001.732-1H10v-1H5a1 1 0 01-1-1V6z" clip-rule="evenodd"/></symbol><symbol fill="none" viewBox="0 0 24 24" id="folder-remove" xmlns="http://www.w3.org/2000/svg"><g stroke="currentColor" stroke-width="2"><path stroke-linejoin="round" d="M3 18V6a2 2 0 012-2h4.539a2 2 0 011.562.75L12.2 6.126a1 1 0 00.78.375H20a1 1 0 011 1V18a1 1 0 01-1 1H4a1 1 0 01-1-1z"/><path stroke-linecap="round" d="M9.5 12.5h5"/></g></symbol><symbol fill="none" viewBox="0 0 24 24" id="funnel" xmlns="http://www.w3.org/2000/svg"><path stroke="currentColor" stroke-linejoin="round" stroke-width="2" d="M20 4H4v2l6 6v8.5l4-2.5v-6l6-6V4z"/></symbol><symbol fill="none" viewBox="0 0 24 24" id="gift" xmlns="http://www.w3.org/2000/svg"><path stroke="currentColor" stroke-linejoin="round" stroke-width="2" d="M4 10a1 1 0 011-1h14a1 1 0 011 1v3H4v-3z"/><path stroke="currentColor" stroke-width="2" d="M12 6v3H9a3 3 0 113-3zM12 7v2h2a2 2 0 10-2-2z"/><path fill="currentColor" fill-rule="evenodd" d="M3.997 10.333a1.996 1.996 0 00-.114.667v9a2 2 0 002 2h12.179a2 2 0 002-2v-9c0-.234-.04-.458-.114-.667V13h-1.886v7H5.882v-7H3.998v-2.667z" clip-rule="evenodd"/><path stroke="currentColor" stroke-width="2" d="M12 10v11"/></symbol><symbol fill="none" viewBox="0 0 24 24" id="globe" xmlns="http://www.w3.org/2000/svg"><g stroke="currentColor" stroke-width="2"><circle cx="12" cy="12" r="9"/><ellipse cx="12" cy="12" rx="3.5" ry="9"/><path d="M3 12h18"/></g></symbol><symbol viewBox="0 0 24 24" id="heading" xmlns="http://www.w3.org/2000/svg"><path fill="currentColor" d="M7 6H6a1 1 0 010-2h4a1 1 0 110 2H9v6h8V6h-1a1 1 0 110-2h4a1 1 0 110 2h-1v14h1a1 1 0 110 2h-4a1 1 0 110-2h1v-6H9v6h1a1 1 0 110 2H6a1 1 0 110-2h1V6z"/></symbol><symbol fill="none" viewBox="0 0 24 24" id="heart" xmlns="http://www.w3.org/2000/svg"><path stroke="currentColor" stroke-width="2" d="M12 8c-1.574-1.635-4.46-2.135-6.035-.5-1.573 1.635-1.34 3.836 0 5.752C7.306 15.168 9.41 16.89 12 19c2.59-2.11 4.694-3.832 6.035-5.748 1.34-1.916 1.573-4.117 0-5.752C16.46 5.865 13.574 6.365 12 8z"/></symbol><symbol fill="none" viewBox="0 0 24 24" id="home" xmlns="http://www.w3.org/2000/svg"><g stroke="currentColor" stroke-linejoin="round" stroke-width="2"><path stroke-linecap="round" d="M6 10v9a1 1 0 001 1h10a1 1 0 001-1v-9M6 10l6-6 6 6M6 10l-2 2m14-2l2 2"/><path d="M10 13h4v4h-4z"/></g></symbol><symbol fill="none" viewBox="0 0 24 24" id="humbleicon" xmlns="http://www.w3.org/2000/svg"><g stroke="currentColor" stroke-width="2"><path stroke-linecap="round" d="M8 4a2 2 0 012 2v11a2 2 0 11-4 0V6a2 2 0 012-2zM16 12a2 2 0 012 2v3a2 2 0 11-4 0v-3a2 2 0 012-2z"/><circle cx="16" cy="6" r="2"/></g></symbol><symbol fill="none" viewBox="0 0 24 24" id="image" xmlns="http://www.w3.org/2000/svg"><path stroke="currentColor" stroke-width="2" d="M21 19V5a1 1 0 00-1-1H4a1 1 0 00-1 1v14a1 1 0 001 1h16a1 1 0 001-1z"/><circle cx="15.5" cy="8.5" r="1.5" fill="currentColor"/><path stroke="currentColor" stroke-linecap="round" stroke-linejoin="round" stroke-width="2" d="M15.5 15.5L9.5 9 3 17"/><path fill="currentColor" d="M17 12l.707-.707a1 1 0 00-1.414 0L17 12zm3.293 4.707a1 1 0 001.414-1.414l-1.414 1.414zm-4-4l4 4 1.414-1.414-4-4-1.414 1.414zm-1.086 2.5l2.5-2.5-1.414-1.414-2.5 2.5 1.414 1.414z"/></symbol><symbol fill="none" viewBox="0 0 24 24" id="images" xmlns="http://www.w3.org/2000/svg"><path stroke="currentColor" stroke-width="2" d="M17 19V9a1 1 0 00-1-1H4a1 1 0 00-1 1v10a1 1 0 001 1h12a1 1 0 001-1z"/><circle cx="12" cy="11" r="1" fill="currentColor"/><path stroke="currentColor" stroke-linecap="round" stroke-linejoin="round" stroke-width="2" d="M12 17.063L7.68 13 3 18"/><path fill="currentColor" d="M13.923 14l.698-.716a1 1 0 00-1.396 0l.698.716zm2.379 3.716a1 1 0 101.396-1.432l-1.396 1.432zm-3.077-3l3.077 3 1.396-1.432-3.077-3-1.396 1.432zm-.527 1.875l1.923-1.875-1.396-1.432-1.923 1.875 1.396 1.432z"/><path fill="currentColor" fill-rule="evenodd" d="M20.059 4.929v9.142h-.883v2h.883a2 2 0 002-2V4.93a2 2 0 00-2-2H7.94a2 2 0 00-2 2v.857h2V4.93h12.12z" clip-rule="evenodd"/></symbol><symbol fill="none" viewBox="0 0 24 24" id="key" xmlns="http://www.w3.org/2000/svg"><g fill="currentColor"><path d="M10.199 10.401l.733.68.386-.415-.159-.545-.96.28zM5 16l-.733-.68A1 1 0 004 16h1zm0 3.5H4a1 1 0 001 1v-1zm3 0v1a1 1 0 001-1H8zm0-2v-1a1 1 0 00-1 1h1zm2 0v1a1 1 0 001-1h-1zm0-2v-1a1 1 0 00-1 1h1zm2 0v1a1 1 0 00.707-.293L12 15.5zm1.677-1.677l.264-.965-.56-.153-.411.411.707.707zM19 9a4 4 0 01-4 4v2a6 6 0 006-6h-2zm-4-4a4 4 0 014 4h2a6 6 0 00-6-6v2zm-4 4a4 4 0 014-4V3a6 6 0 00-6 6h2zm.16 1.121A4 4 0 0111 9H9c0 .582.083 1.146.239 1.68l1.92-.559zm-5.427 6.56l5.199-5.6-1.466-1.36-5.199 5.598 1.466 1.361zM6 19.5V16H4v3.5h2zm2-1H5v2h3v-2zm-1-1v2h2v-2H7zm3-1H8v2h2v-2zm-1-1v2h2v-2H9zm3-1h-2v2h2v-2zm.97-1.384l-1.677 1.677 1.414 1.414 1.677-1.677-1.414-1.414zM15 13c-.368 0-.723-.05-1.06-.142l-.527 1.93A6.035 6.035 0 0015 15v-2z"/><circle cx="15.5" cy="8.5" r="1.5"/></g></symbol><symbol fill="none" viewBox="0 0 24 24" id="layers" xmlns="http://www.w3.org/2000/svg"><g stroke="currentColor" stroke-linejoin="round" stroke-width="2"><path d="M4 8l8-4 8 4-8 4-8-4z"/><path stroke-linecap="round" d="M4 12l8 4 8-4M4 16l8 4 8-4"/></g></symbol><symbol fill="none" viewBox="0 0 24 24" id="location" xmlns="http://www.w3.org/2000/svg"><circle cx="12" cy="9.5" r="2" fill="currentColor"/><path stroke="currentColor" stroke-width="2" d="M17.5 9.5c0 3.038-2 6.5-5.5 10.5-3.5-4-5.5-7.462-5.5-10.5a5.5 5.5 0 1111 0z"/></symbol><symbol fill="none" viewBox="0 0 24 24" id="lock" xmlns="http://www.w3.org/2000/svg"><g stroke="currentColor" stroke-width="2"><rect width="12" height="9" x="6" y="10" stroke-linejoin="round" rx="1"/><path stroke-linecap="round" d="M12 14v2"/><path d="M8 10V8a4 4 0 118 0v2"/></g></symbol><symbol fill="none" viewBox="0 0 24 24" id="lock-open" xmlns="http://www.w3.org/2000/svg"><rect width="12" height="9" x="6" y="11" stroke="currentColor" stroke-linejoin="round" stroke-width="2" rx="1"/><path stroke="currentColor" stroke-linecap="round" stroke-width="2" d="M12 15v2"/><path fill="currentColor" d="M15 7a1 1 0 102 0h-2zm.874-1l.968-.25-.968.25zM9 7a3 3 0 013-3V2a5 5 0 00-5 5h2zM7 7v4h2V7H7zm5-3c1.396 0 2.572.955 2.905 2.25l1.937-.5A5.002 5.002 0 0012 2v2zm2.905 2.25c.062.238.095.49.095.75h2c0-.43-.055-.849-.158-1.25l-1.936.5z"/></symbol><symbol fill="none" viewBox="0 0 24 24" id="mail" xmlns="http://www.w3.org/2000/svg"><g stroke="currentColor" stroke-width="2"><path stroke-linejoin="round" d="M20 6H4a1 1 0 00-1 1v10a1 1 0 001 1h16a1 1 0 001-1V7a1 1 0 00-1-1z"/><path stroke-linecap="round" d="M3 8l7.89 5.26a2 2 0 002.22 0L21 8"/></g></symbol><symbol fill="none" viewBox="0 0 24 24" id="mail-open" xmlns="http://www.w3.org/2000/svg"><g stroke="currentColor" stroke-width="2"><path stroke-linejoin="round" d="M21 19V8.588a1 1 0 00-.514-.874l-7.03-3.905a3 3 0 00-2.913 0L3.514 7.714A1 1 0 003 8.588V19a1 1 0 001 1h16a1 1 0 001-1z"/><path stroke-linecap="round" d="M3 10l7.89 5.26a2 2 0 002.22 0L21 10M9 14l-6 4M15 14l6 4"/></g></symbol><symbol fill="none" viewBox="0 0 24 24" id="map" xmlns="http://www.w3.org/2000/svg"><path stroke="currentColor" stroke-linejoin="round" stroke-width="2" d="M8.074 4.233L3.52 6.716a1 1 0 00-.52.878v10.721a1 1 0 001.479.878l3.595-1.96a1 1 0 01.872-.042l6.108 2.618a1 1 0 00.872-.042l4.553-2.483a1 1 0 00.521-.878V5.685a1 1 0 00-1.479-.878l-3.595 1.96a1 1 0 01-.872.042L8.946 4.19a1 1 0 00-.872.042z"/><path fill="currentColor" d="M14.5 16.5a1 1 0 102 0h-2zm0-9.5v9.5h2V7h-2zM7.5 8.5a1 1 0 012 0h-2zm0 8.5V8.5h2V17h-2z"/></symbol><symbol fill="none" viewBox="0 0 24 24" id="microphone" xmlns="http://www.w3.org/2000/svg"><g stroke="currentColor" stroke-width="2"><rect width="5" height="9" x="9.5" y="4" rx="2.5"/><path stroke-linecap="round" d="M17.5 10.5a5.5 5.5 0 11-11 0M8 20h4m4 0h-4m0 0v-4"/></g></symbol><symbol fill="none" viewBox="0 0 24 24" id="microphone-off" xmlns="http://www.w3.org/2000/svg"><path stroke="currentColor" stroke-linecap="round" stroke-width="2" d="M8 20h4m4 0h-4m0 0v-4M5 5l14 14"/><path fill="currentColor" fill-rule="evenodd" d="M14.692 14.106A4.5 4.5 0 017.5 10.5a1 1 0 00-2 0 6.5 6.5 0 0010.616 5.03l-1.424-1.424zm2.761-.067A6.47 6.47 0 0018.5 10.5a1 1 0 10-2 0 4.48 4.48 0 01-.508 2.078l1.461 1.46z" clip-rule="evenodd"/><path fill="currentColor" fill-rule="evenodd" d="M8.5 7.914V10.5a3.5 3.5 0 005.475 2.89L12.5 11.914a1.5 1.5 0 01-2-1.415v-.585l-2-2zm5 2.172V6.5a1.5 1.5 0 00-3 0v.586L8.712 5.298A3.501 3.501 0 0115.5 6.5v4c0 .47-.092.917-.26 1.326l-1.74-1.74z" clip-rule="evenodd"/></symbol><symbol fill="none" viewBox="0 0 24 24" id="minus" xmlns="http://www.w3.org/2000/svg"><path stroke="currentColor" stroke-linecap="round" stroke-width="2" d="M18 12H6"/></symbol><symbol fill="none" viewBox="0 0 24 24" id="minus-circle" xmlns="http://www.w3.org/2000/svg"><g stroke="currentColor" stroke-width="2"><path stroke-linecap="round" d="M16 12H8"/><circle cx="12" cy="12" r="9"/></g></symbol><symbol fill="none" stroke="currentColor" viewBox="0 0 24 24" stroke-width="2" id="mobile" xmlns="http://www.w3.org/2000/svg"><path d="M17 19V5a1 1 0 00-1-1H8a1 1 0 00-1 1v14a1 1 0 001 1h8a1 1 0 001-1z"/><path stroke-linecap="round" d="M10 17h4"/></symbol><symbol fill="none" viewBox="0 0 24 24" id="moon" xmlns="http://www.w3.org/2000/svg"><path stroke="currentColor" stroke-linejoin="round" stroke-width="2" d="M20 14.12A7.78 7.78 0 019.88 4a7.782 7.782 0 002.9 15A7.782 7.782 0 0020 14.12z"/></symbol><symbol fill="none" viewBox="0 0 24 24" id="music-note" xmlns="http://www.w3.org/2000/svg"><g stroke="currentColor" stroke-width="2"><ellipse cx="6.5" cy="18" rx="2.5" ry="2"/><ellipse cx="17.5" cy="15" rx="2.5" ry="2"/><path stroke-linejoin="round" d="M9 18V7l11-3v11"/></g></symbol><symbol fill="none" viewBox="0 0 24 24" id="pencil" xmlns="http://www.w3.org/2000/svg"><path fill="currentColor" d="M4 20H3v1h1v-1zm0-3.5l-.707-.707A1 1 0 003 16.5h1zM7.5 20v1a1 1 0 00.707-.293L7.5 20zM5 20v-3.5H3V20h2zm-.293-2.793L16 5.914 14.586 4.5 3.293 15.793l1.414 1.414zM16 5.914L18.086 8 19.5 6.586 17.414 4.5 16 5.914zM18.086 8L6.793 19.293l1.414 1.414L19.5 9.414 18.086 8zM7.5 19H4v2h3.5v-2zM18.086 8L19.5 9.414a2 2 0 000-2.828L18.086 8zM16 5.914L17.414 4.5a2 2 0 00-2.828 0L16 5.914z"/><path stroke="currentColor" stroke-width="2" d="M13 7l4 4"/></symbol><symbol fill="none" viewBox="0 0 24 24" id="plus" xmlns="http://www.w3.org/2000/svg"><g stroke="currentColor" stroke-linecap="round" stroke-width="2"><path d="M12 19V5M19 12H5"/></g></symbol><symbol fill="none" stroke="currentColor" viewBox="0 0 24 24" id="plus-circle" xmlns="http://www.w3.org/2000/svg"><g stroke-width="2"><path stroke-linecap="round" d="M12 16V8M16 12H8"/><circle cx="12" cy="12" r="9"/></g></symbol><symbol fill="none" viewBox="0 0 24 24" id="print" xmlns="http://www.w3.org/2000/svg"><path stroke="currentColor" stroke-linejoin="round" stroke-width="2" d="M8 4h8v5H8zM8 15h8v4H8z"/><path fill="currentColor" fill-rule="evenodd" d="M6 8a3 3 0 00-3 3v6a1 1 0 001 1h4v-2H5v-5a1 1 0 011-1h12a1 1 0 011 1v5h-3v2h4a1 1 0 001-1v-6a3 3 0 00-3-3H6z" clip-rule="evenodd"/><circle cx="7" cy="12" r="1" fill="currentColor"/></symbol><symbol fill="none" viewBox="0 0 24 24" id="rain" xmlns="http://www.w3.org/2000/svg"><path stroke="currentColor" stroke-linecap="round" stroke-width="2" d="M12 19l.857-6M9.5 12l-.857 6M16.5 12l-.857 6"/><path fill="currentColor" d="M9.268 8.732a1 1 0 001.414-1.414L9.268 8.732zm-1.41-.706a2.485 2.485 0 011.41.706l1.414-1.414a4.485 4.485 0 00-2.54-1.272l-.284 1.98z"/><path stroke="currentColor" stroke-linecap="round" stroke-linejoin="round" stroke-width="2" d="M6 13.663A3.5 3.5 0 018.37 7.11a5.002 5.002 0 019.614 1.49 2.751 2.751 0 011.59 4.122"/></symbol><symbol fill="none" viewBox="0 0 24 24" id="refresh" xmlns="http://www.w3.org/2000/svg"><g clip-path="url(#clip0)"><path fill="currentColor" d="M3.07 13.124a1 1 0 011.985-.248l-1.985.248zm3.98 3.826a7 7 0 009.9 0l1.414 1.414a9 9 0 01-12.728 0L7.05 16.95zm9.9 0l2.121-2.122 1.414 1.415-2.121 2.12-1.414-1.413zM5.055 12.876A6.965 6.965 0 007.05 16.95l-1.414 1.414a8.965 8.965 0 01-2.566-5.24l1.985-.248z"/><path stroke="currentColor" stroke-linecap="round" stroke-width="2" d="M19.778 20v-4.464H15"/><path fill="currentColor" d="M20.93 10.876a1 1 0 01-1.985.248l1.985-.248zM16.95 7.05a7 7 0 00-9.9 0L5.636 5.636a9 9 0 0112.728 0L16.95 7.05zm-9.9 0L4.93 9.172 3.515 7.757l2.121-2.121L7.05 7.05zm11.895 4.074A6.965 6.965 0 0016.95 7.05l1.414-1.414a8.966 8.966 0 012.566 5.24l-1.985.248z"/><path stroke="currentColor" stroke-linecap="round" stroke-width="2" d="M4.222 4v4.464H9"/></g></symbol><symbol fill="none" viewBox="0 0 24 24" id="rss" xmlns="http://www.w3.org/2000/svg"><path stroke="currentColor" stroke-linecap="round" stroke-width="2" d="M13 19a8 8 0 00-8-8M19 19c0-7.732-6.268-14-14-14"/><circle cx="6" cy="18" r="2" fill="currentColor"/></symbol><symbol fill="none" stroke="currentColor" viewBox="0 0 24 24" id="search" xmlns="http://www.w3.org/2000/svg"><g stroke-width="2"><path stroke-linecap="round" d="M20 20l-6-6"/><circle cx="9.5" cy="9.5" r="5.5"/></g></symbol><symbol fill="none" viewBox="0 0 24 24" id="share" xmlns="http://www.w3.org/2000/svg"><g stroke="currentColor" stroke-linecap="round" stroke-width="2"><path d="M12 5v8.5M15 7l-3-3-3 3"/><path stroke-linejoin="round" d="M5 12v5a2 2 0 002 2h10a2 2 0 002-2v-5"/></g></symbol><symbol fill="none" viewBox="0 0 24 24" id="snow" xmlns="http://www.w3.org/2000/svg"><circle cx="13" cy="14.5" r="1" fill="currentColor"/><circle cx="13" cy="17.5" r="1" fill="currentColor"/><circle cx="16" cy="13" r="1" fill="currentColor"/><circle cx="16" cy="16" r="1" fill="currentColor"/><circle cx="10" cy="13" r="1" fill="currentColor"/><circle cx="10" cy="16" r="1" fill="currentColor"/><path fill="currentColor" d="M9.268 8.732a1 1 0 001.414-1.414L9.268 8.732zm-1.41-.706a2.485 2.485 0 011.41.706l1.414-1.414a4.485 4.485 0 00-2.54-1.272l-.284 1.98z"/><path stroke="currentColor" stroke-linecap="round" stroke-linejoin="round" stroke-width="2" d="M6 13.663A3.5 3.5 0 018.37 7.11a5.002 5.002 0 019.614 1.49 2.751 2.751 0 011.59 4.122"/></symbol><symbol fill="none" viewBox="0 0 24 24" id="square" xmlns="http://www.w3.org/2000/svg"><rect width="16" height="16" x="4" y="4" stroke="currentColor" stroke-linejoin="round" stroke-width="2" rx="1"/></symbol><symbol fill="none" viewBox="0 0 24 24" id="star" xmlns="http://www.w3.org/2000/svg"><path stroke="currentColor" stroke-linejoin="round" stroke-width="2" d="M12.951 3.691a1 1 0 00-1.902 0L9.477 8.528H4.392a1 1 0 00-.588 1.809l4.114 2.99-1.571 4.836a1 1 0 001.538 1.118L12 16.291l4.114 2.99a1 1 0 001.54-1.118l-1.572-4.837 4.114-2.99a1 1 0 00-.588-1.808h-5.085L12.95 3.69z"/></symbol><symbol fill="none" viewBox="0 0 24 24" id="storm" xmlns="http://www.w3.org/2000/svg"><path stroke="currentColor" stroke-linecap="round" stroke-linejoin="round" stroke-width="2" d="M13.5 10l-3 5h4l-3 5.5"/><path fill="currentColor" d="M9.268 9.732a1 1 0 101.414-1.414L9.268 9.732zm-1.41-.706a2.485 2.485 0 011.41.706l1.414-1.414a4.485 4.485 0 00-2.54-1.272l-.284 1.98z"/><path stroke="currentColor" stroke-linecap="round" stroke-linejoin="round" stroke-width="2" d="M7.5 15a3.5 3.5 0 11.87-6.891 5.002 5.002 0 019.614 1.49A2.751 2.751 0 0117.25 15"/></symbol><symbol fill="none" viewBox="0 0 24 24" id="sun" xmlns="http://www.w3.org/2000/svg"><g stroke="currentColor" stroke-width="2"><circle cx="12" cy="12" r="4"/><path stroke-linecap="round" d="M12 4.5V3M12 21v-1.5M21 12h-1.5M4.5 12H3M17.303 6.697l1.061-1.061M5.636 18.364l1.06-1.06M18.364 18.364l-1.06-1.06M6.697 6.697L5.636 5.636"/></g></symbol><symbol fill="none" viewBox="0 0 24 24" id="support" xmlns="http://www.w3.org/2000/svg"><g stroke="currentColor" stroke-width="2"><circle cx="12" cy="12" r="9"/><circle cx="12" cy="12" r="4"/><path d="M18 18l-3-3M9 9L6 6M15 9l3-3M6 18l3-3"/></g></symbol><symbol fill="none" viewBox="0 0 24 24" id="tag" xmlns="http://www.w3.org/2000/svg"><path stroke="currentColor" stroke-linejoin="round" stroke-width="2" d="M4 10.586V5a1 1 0 011-1h5.586a1 1 0 01.707.293l8.5 8.5a1 1 0 010 1.414l-5.586 5.586a1 1 0 01-1.414 0l-8.5-8.5A1 1 0 014 10.586z"/><circle cx="8.5" cy="8.5" r="1.5" fill="currentColor"/></symbol><symbol fill="none" viewBox="0 0 24 24" id="tags" xmlns="http://www.w3.org/2000/svg"><path stroke="currentColor" stroke-linejoin="round" stroke-width="2" d="M3 10.95V6a1 1 0 011-1h4.95a1 1 0 01.707.293l7.636 7.636a1 1 0 010 1.415l-4.95 4.949a1 1 0 01-1.414 0l-7.636-7.636A1 1 0 013 10.948z"/><path stroke="currentColor" stroke-linejoin="round" stroke-width="2" d="M15.636 20l5.657-5.656a1 1 0 000-1.415L13.363 5"/><circle cx="6.5" cy="8.5" r="1.5" fill="currentColor"/></symbol><symbol viewBox="0 0 24 24" id="text" xmlns="http://www.w3.org/2000/svg"><path fill="currentColor" d="M20 3H4v3a1 1 0 002 0V5h5v14h-1a1 1 0 100 2h4a1 1 0 100-2h-1V5h5v1a1 1 0 102 0V3z"/></symbol><symbol fill="none" viewBox="0 0 24 24" id="times" xmlns="http://www.w3.org/2000/svg"><g stroke="currentColor" stroke-linecap="round" stroke-width="2"><path d="M6 18L18 6M18 18L6 6"/></g></symbol><symbol fill="none" viewBox="0 0 24 24" id="times-circle" xmlns="http://www.w3.org/2000/svg"><g stroke="currentColor" stroke-width="2"><circle cx="12" cy="12" r="9"/><path stroke-linecap="round" d="M9 15l6-6M15 15L9 9"/></g></symbol><symbol fill="none" stroke="currentColor" viewBox="0 0 24 24" id="trash" xmlns="http://www.w3.org/2000/svg"><g stroke-width="2"><path d="M6 6l.934 13.071A1 1 0 007.93 20h8.138a1 1 0 00.997-.929L18 6"/><path stroke-linecap="round" stroke-linejoin="round" d="M12 11v4"/><path stroke-linejoin="round" d="M21 6H3"/><path d="M8.5 6l.544-1.632A2 2 0 0110.941 3h2.117a2 2 0 011.898 1.368L15.5 6"/></g></symbol><symbol fill="none" viewBox="0 0 24 24" id="trending-down" xmlns="http://www.w3.org/2000/svg"><g stroke="currentColor" stroke-linecap="round" stroke-width="2" clip-path="url(#clip0)"><path stroke-linejoin="round" d="M3 7.5l6 6 4-4 7.5 7.5"/><path d="M16 17.5h4.95v-5"/></g></symbol><symbol fill="none" viewBox="0 0 24 24" id="trending-up" xmlns="http://www.w3.org/2000/svg"><g stroke="currentColor" stroke-linecap="round" stroke-width="2" clip-path="url(#clip0)"><path stroke-linejoin="round" d="M3 17l6-6 4 4 7.5-7.5"/><path d="M16 7h4.95v5"/></g></symbol><symbol fill="none" viewBox="0 0 24 24" id="triangle" xmlns="http://www.w3.org/2000/svg"><path stroke="currentColor" stroke-width="2" d="M11.125 2.584a1 1 0 011.75 0l8.805 15.932A1 1 0 0120.805 20H3.195a1 1 0 01-.875-1.484l8.805-15.932z"/></symbol><symbol fill="none" viewBox="0 0 24 24" id="upload" xmlns="http://www.w3.org/2000/svg"><g stroke="currentColor" stroke-linecap="round" stroke-width="2"><path d="M12 10v9M15 13l-3-3-3 3"/><path stroke-linejoin="round" d="M17.5 15c1.519 0 2.5-1.231 2.5-2.75a2.75 2.75 0 00-2.016-2.65A5 5 0 008.37 8.108a3.5 3.5 0 00-1.87 6.746"/></g></symbol><symbol fill="none" viewBox="0 0 24 24" id="user" xmlns="http://www.w3.org/2000/svg"><g stroke="currentColor" stroke-width="2"><circle cx="12" cy="8" r="3"/><path stroke-linecap="round" stroke-linejoin="round" d="M6 19.25v-1.5C6 15.679 7.919 14 10.286 14h3.428C16.081 14 18 15.679 18 17.75v1.5"/></g></symbol><symbol fill="none" viewBox="0 0 24 24" id="user-add" xmlns="http://www.w3.org/2000/svg"><g stroke="currentColor" stroke-width="2"><circle cx="10" cy="8" r="3"/><path stroke-linecap="round" stroke-linejoin="round" d="M4 19.25v-1.5C4 15.679 5.919 14 8.286 14h3.428C14.081 14 16 15.679 16 17.75v1.5"/><path stroke-linecap="round" d="M15 11h6m-3 3V8"/></g></symbol><symbol fill="none" viewBox="0 0 24 24" id="user-remove" xmlns="http://www.w3.org/2000/svg"><g stroke="currentColor" stroke-width="2"><circle cx="10" cy="8" r="3"/><path stroke-linecap="round" d="M16 11h5"/><path stroke-linecap="round" stroke-linejoin="round" d="M4 19.25v-1.5C4 15.679 5.919 14 8.286 14h3.428C14.081 14 16 15.679 16 17.75v1.5"/></g></symbol><symbol fill="none" viewBox="0 0 24 24" id="users" xmlns="http://www.w3.org/2000/svg"><path fill="currentColor" fill-rule="evenodd" d="M16.168 15h.546C18.66 15 20 16.352 20 17.75v1.5a1 1 0 102 0v-1.5c0-2.745-2.496-4.75-5.286-4.75h-2.326a6.064 6.064 0 011.78 2z" clip-rule="evenodd"/><circle cx="9" cy="8" r="3" stroke="currentColor" stroke-width="2"/><path fill="currentColor" fill-rule="evenodd" d="M13.751 9.562a4.993 4.993 0 01-1.001 1.745 4 4 0 100-6.615 4.994 4.994 0 011.001 1.746 2 2 0 110 3.124z" clip-rule="evenodd"/><path stroke="currentColor" stroke-linecap="round" stroke-linejoin="round" stroke-width="2" d="M3 19.25v-1.5C3 15.679 4.919 14 7.286 14h3.428C13.081 14 15 15.679 15 17.75v1.5"/></symbol><symbol fill="none" viewBox="0 0 24 24" id="volume" xmlns="http://www.w3.org/2000/svg"><path stroke="currentColor" stroke-linejoin="round" stroke-width="2" d="M10 9H7v6h3l5 4V5l-5 4z"/></symbol><symbol fill="none" viewBox="0 0 24 24" id="volume-1" xmlns="http://www.w3.org/2000/svg"><g stroke="currentColor" stroke-width="2"><path stroke-linejoin="round" d="M8 9H5v6h3l5 4V5L8 9z"/><path stroke-linecap="round" d="M17 8a5.657 5.657 0 010 8"/></g></symbol><symbol fill="none" viewBox="0 0 24 24" id="volume-2" xmlns="http://www.w3.org/2000/svg"><g stroke="currentColor" stroke-width="2"><path stroke-linejoin="round" d="M6 9H3v6h3l5 4V5L6 9z"/><path stroke-linecap="round" d="M18.5 5.5a9.192 9.192 0 010 13M15 8a5.657 5.657 0 010 8"/></g></symbol><symbol fill="none" viewBox="0 0 24 24" id="volume-off" xmlns="http://www.w3.org/2000/svg"><g stroke="currentColor" stroke-width="2"><path stroke-linejoin="round" d="M7 9H4v6h3l5 4V5L7 9z"/><path stroke-linecap="round" d="M16 9.5l5 5M21 9.5l-5 5"/></g></symbol><symbol fill="none" viewBox="0 0 24 24" id="zoom-in" xmlns="http://www.w3.org/2000/svg"><g stroke="currentColor" stroke-width="2"><path stroke-linecap="round" d="M20 20l-5-5"/><circle cx="10" cy="10" r="6"/><path stroke-linecap="round" d="M7.5 10h5M10 12.5v-5"/></g></symbol><symbol fill="none" viewBox="0 0 24 24" id="zoom-out" xmlns="http://www.w3.org/2000/svg"><g stroke="currentColor" stroke-width="2"><path stroke-linecap="round" d="M20 20l-5-5"/><circle cx="10" cy="10" r="6"/><path stroke-linecap="round" d="M7.5 10h5"/></g></symbol></svg>