<?xml version="1.0" encoding="utf-8"?><svg xmlns="http://www.w3.org/2000/svg" xmlns:xlink="http://www.w3.org/1999/xlink"><symbol fill="none" stroke="currentColor" viewBox="0 0 24 24" id="align-objects-bottom" xmlns="http://www.w3.org/2000/svg"><g stroke-linecap="round" stroke-width="2"><path d="M20 20H4M12 17V6M15 14l-3 3-3-3"/></g></symbol><symbol fill="none" stroke="currentColor" viewBox="0 0 24 24" id="align-objects-center" xmlns="http://www.w3.org/2000/svg"><g stroke-linecap="round" stroke-width="2"><path d="M12 4v16M16 12h5M18 9l-3 3 3 3M8 12H3M6 9l3 3-3 3"/></g></symbol><symbol fill="none" stroke="currentColor" viewBox="0 0 24 24" id="align-objects-left" xmlns="http://www.w3.org/2000/svg"><g stroke-linecap="round" stroke-width="2"><path d="M4 4v16M7 12h11M10 9l-3 3 3 3"/></g></symbol><symbol fill="none" stroke="currentColor" viewBox="0 0 24 24" id="align-objects-middle" xmlns="http://www.w3.org/2000/svg"><g stroke-linecap="round" stroke-width="2"><path d="M4 12h16M12 8V3M9 6l3 3 3-3M12 16v5M9 18l3-3 3 3"/></g></symbol><symbol fill="none" stroke="currentColor" viewBox="0 0 24 24" id="align-objects-right" xmlns="http://www.w3.org/2000/svg"><g stroke-linecap="round" stroke-width="2"><path d="M20 4v16M17 12H6M14 9l3 3-3 3"/></g></symbol><symbol fill="none" stroke="currentColor" viewBox="0 0 24 24" id="align-objects-top" xmlns="http://www.w3.org/2000/svg"><g stroke-linecap="round" stroke-width="2"><path d="M20 4H4M12 7v11M15 10l-3-3-3 3"/></g></symbol><symbol fill="none" stroke="currentColor" viewBox="0 0 24 24" id="arrow-down" xmlns="http://www.w3.org/2000/svg"><g stroke-linecap="round" stroke-width="2"><path d="M12 4v16M6 14l6 6 6-6"/></g></symbol><symbol fill="none" stroke="currentColor" viewBox="0 0 24 24" id="arrow-left" xmlns="http://www.w3.org/2000/svg"><g stroke-linecap="round" stroke-width="2"><path d="M20 12H4M10 6l-6 6 6 6"/></g></symbol><symbol fill="none" stroke="currentColor" viewBox="0 0 24 24" id="arrow-right" xmlns="http://www.w3.org/2000/svg"><g stroke-linecap="round" stroke-width="2"><path d="M4 12h16M14 18l6-6-6-6"/></g></symbol><symbol fill="none" stroke="currentColor" viewBox="0 0 24 24" id="arrow-up" xmlns="http://www.w3.org/2000/svg"><g stroke-linecap="round" stroke-width="2"><path d="M12 20V4M18 10l-6-6-6 6"/></g></symbol><symbol fill="none" stroke="currentColor" viewBox="0 0 24 24" id="arrows" xmlns="http://www.w3.org/2000/svg"><g stroke-linecap="round" stroke-linejoin="round" stroke-width="2"><path d="M4 12h16M4 12l2-2v4l-2-2zm16 0l-2 2v-4l2 2zM12 4v16m0-16l2 2h-4l2-2zm0 16l-2-2h4l-2 2z"/></g></symbol><symbol fill="currentColor" viewBox="0 0 24 24" id="bars" xmlns="http://www.w3.org/2000/svg"><rect width="18" height="3" x="3" y="5" rx="1"/><rect width="18" height="3" x="3" y="10.5" rx="1"/><rect width="18" height="3" x="3" y="16" rx="1"/></symbol><symbol fill="none" stroke="currentColor" viewBox="0 0 24 24" id="brush-big" xmlns="http://www.w3.org/2000/svg"><g stroke-width="2"><path d="M6 16l4.5 4.5 4-4a.707.707 0 011 0v0a.707.707 0 001 0l2.293-2.293a1 1 0 000-1.414l-2.086-2.086a1 1 0 010-1.414l3.586-3.586a1 1 0 000-1.414l-.586-.586a1 1 0 00-1.414 0l-3.586 3.586a1 1 0 01-1.414 0l-2.086-2.086a1 1 0 00-1.414 0L7.5 7.5a.707.707 0 000 1v0a.707.707 0 010 1l-4 4L6 16zm0 0l2.5-2.5M7.5 8.5l8 8"/></g></symbol><symbol fill="none" stroke="currentColor" viewBox="0 0 24 24" id="check" xmlns="http://www.w3.org/2000/svg"><path stroke-linecap="round" stroke-width="3" d="M5 14l3.293 3.293a1 1 0 001.414 0L19 8"/></symbol><symbol fill="none" stroke="currentColor" viewBox="0 0 24 24" id="chevron-down" xmlns="http://www.w3.org/2000/svg"><path stroke-linecap="round" stroke-width="2" d="M5 10l7 7 7-7"/></symbol><symbol fill="none" stroke="currentColor" viewBox="0 0 24 24" id="chevron-left" xmlns="http://www.w3.org/2000/svg"><path stroke-linecap="round" stroke-width="2" d="M14 5l-7 7 7 7"/></symbol><symbol fill="none" stroke="currentColor" viewBox="0 0 24 24" id="chevron-right" xmlns="http://www.w3.org/2000/svg"><path stroke-linecap="round" stroke-width="2" d="M10 5l7 7-7 7"/></symbol><symbol fill="none" stroke="currentColor" viewBox="0 0 24 24" id="chevron-up" xmlns="http://www.w3.org/2000/svg"><path stroke-linecap="round" stroke-width="2" d="M5 14l7-7 7 7"/></symbol><symbol fill="none" stroke="currentColor" viewBox="0 0 24 24" id="cog" xmlns="http://www.w3.org/2000/svg"><path fill="currentColor" d="M13 13.731a2 2 0 11-2-3.462 2 2 0 112 3.462z" stroke="none"/><path stroke-width="2" d="M18.005 15.98l-.482-.006-.306.373c-.274.335-.58.645-.916.924l-.366.306.007.477.021 1.486a1 1 0 01-.737.98l-1.819.495a1 1 0 01-1.139-.484l-.699-1.272-.233-.425-.478-.08a6.7 6.7 0 01-1.244-.335l-.454-.17-.415.252-1.243.753a1 1 0 01-1.228-.151l-1.328-1.338a1 1 0 01-.148-1.217l.762-1.278.245-.41-.165-.447c-.15-.409-.26-.83-.332-1.259l-.078-.475-.421-.234-1.273-.71a1 1 0 01-.479-1.133l.5-1.863a1 1 0 01.98-.741l1.458.021.482.007.306-.373c.275-.335.58-.645.916-.924l.366-.306-.007-.477-.021-1.486a1 1 0 01.737-.98l1.819-.494a1 1 0 011.139.483l.699 1.273.233.424.478.08a6.72 6.72 0 011.244.335l.454.17.415-.251 1.243-.754a1 1 0 011.228.151l1.328 1.338a1 1 0 01.148 1.217L18.44 8.73l-.245.41.165.447c.148.405.261.832.332 1.259l.078.475.421.234 1.273.71a1 1 0 01.479 1.133l-.5 1.863a1 1 0 01-.98.741l-1.458-.021v-.001z"/></symbol><symbol fill="none" stroke="currentColor" viewBox="0 0 24 24" id="desktop" xmlns="http://www.w3.org/2000/svg"><g stroke-width="2"><path d="M20 5H4a1 1 0 00-1 1v9a1 1 0 001 1h16a1 1 0 001-1V6a1 1 0 00-1-1zM8 20h8M12 20v-5"/></g></symbol><symbol fill="none" stroke="currentColor" viewBox="0 0 24 24" id="document" xmlns="http://www.w3.org/2000/svg"><g stroke-linejoin="round" stroke-width="2"><path d="M5 20V4a1 1 0 011-1h6.172a2 2 0 011.414.586l4.828 4.828A2 2 0 0119 9.828V20a1 1 0 01-1 1H6a1 1 0 01-1-1z"/><path d="M12 3v6a1 1 0 001 1h6"/></g></symbol><symbol fill="none" stroke="currentColor" viewBox="0 0 24 24" id="document-add" xmlns="http://www.w3.org/2000/svg"><g stroke-linejoin="round" stroke-width="2"><path d="M15 15H9M12 18v-6M5 20V4a1 1 0 011-1h6.172a2 2 0 011.414.586l4.828 4.828A2 2 0 0119 9.828V20a1 1 0 01-1 1H6a1 1 0 01-1-1z"/><path d="M12 3v6a1 1 0 001 1h6"/></g></symbol><symbol fill="currentColor" viewBox="0 0 24 24" id="dots-horizontal" xmlns="http://www.w3.org/2000/svg"><rect width="4" height="4" x="3" y="10" rx="2"/><rect width="4" height="4" x="10" y="10" rx="2"/><rect width="4" height="4" x="17" y="10" rx="2"/></symbol><symbol fill="none" stroke="currentColor" viewBox="0 0 24 24" id="exchange-vertical" xmlns="http://www.w3.org/2000/svg"><g stroke-linecap="round" stroke-width="2"><path d="M16.5 19.5v-16M13 16l3.5 3.5L20 16M7.5 19.5v-16M4 7l3.5-3.5L11 7"/></g></symbol><symbol viewBox="0 0 24 24" id="exclamation-triangle" xmlns="http://www.w3.org/2000/svg"><path stroke="currentColor" fill="none" stroke-width="2" d="M10.268 5c.77-1.333 2.694-1.333 3.464 0l6.928 12c.77 1.333-.192 3-1.732 3H5.072c-1.54 0-2.502-1.667-1.732-3l6.928-12z"/><path fill="currentColor" d="M10.59 9.083l.334 4a1 1 0 00.996.917h.16a1 1 0 00.996-.917l.334-4A1 1 0 0012.413 8h-.826a1 1 0 00-.997 1.083z"/><circle cx="12" cy="16.5" r="1.5" fill="currentColor"/></symbol><symbol fill="currentColor" viewBox="0 0 24 24" id="heading" xmlns="http://www.w3.org/2000/svg"><path d="M3 5V4a1 1 0 011-1h6a1 1 0 011 1v1a1 1 0 01-1 1H9v4.5h6V6h-1a1 1 0 01-1-1V4a1 1 0 011-1h6a1 1 0 011 1v1a1 1 0 01-1 1h-1v12h1a1 1 0 011 1v1a1 1 0 01-1 1h-6a1 1 0 01-1-1v-1a1 1 0 011-1h1v-4.5H9V18h1a1 1 0 011 1v1a1 1 0 01-1 1H4a1 1 0 01-1-1v-1a1 1 0 011-1h1V6H4a1 1 0 01-1-1z"/></symbol><symbol fill="none" stroke="currentColor" viewBox="0 0 24 24" id="image" xmlns="http://www.w3.org/2000/svg"><path stroke-width="2" d="M21 19V5a1 1 0 00-1-1H4a1 1 0 00-1 1v14a1 1 0 001 1h16a1 1 0 001-1z"/><circle cx="14.5" cy="8.5" r="1.5" fill="currentColor" stroke="none"/><path stroke-linecap="round" stroke-linejoin="round" stroke-width="2" d="M14 15l-4-6-4 6h4M18 15l-2-3-2 3"/></symbol><symbol fill="none" stroke="currentColor" viewBox="0 0 24 24" stroke-width="2" id="mobile" xmlns="http://www.w3.org/2000/svg"><path d="M17 19V5a1 1 0 00-1-1H8a1 1 0 00-1 1v14a1 1 0 001 1h8a1 1 0 001-1z"/><path stroke-linecap="round" d="M10 17h4"/></symbol><symbol fill="none" stroke="currentColor" viewBox="0 0 24 24" id="plus" xmlns="http://www.w3.org/2000/svg"><g stroke-linecap="round" stroke-width="3"><path d="M12 19V5M19 12H5"/></g></symbol><symbol fill="none" stroke="currentColor" viewBox="0 0 24 24" id="plus-circle" xmlns="http://www.w3.org/2000/svg"><g stroke-width="2"><path stroke-linecap="round" d="M12 16V8M16 12H8"/><circle cx="12" cy="12" r="9"/></g></symbol><symbol fill="none" stroke="currentColor" viewBox="0 0 24 24" id="search" xmlns="http://www.w3.org/2000/svg"><g stroke-width="2"><path stroke-linecap="round" d="M20 20l-6-6"/><circle cx="9.5" cy="9.5" r="5.5"/></g></symbol><symbol fill="currentColor" viewBox="0 0 24 24" id="text" xmlns="http://www.w3.org/2000/svg"><path d="M20 3H4a1 1 0 00-1 1v3a1 1 0 001 1h1a1 1 0 001-1V6h4v12H9a1 1 0 00-1 1v1a1 1 0 001 1h6a1 1 0 001-1v-1a1 1 0 00-1-1h-1V6h4v1a1 1 0 001 1h1a1 1 0 001-1V4a1 1 0 00-1-1z"/></symbol><symbol fill="none" stroke="currentColor" viewBox="0 0 24 24" id="times" xmlns="http://www.w3.org/2000/svg"><g stroke-linecap="round" stroke-width="3"><path d="M6 18L18 6M18 18L6 6"/></g></symbol><symbol fill="none" stroke="currentColor" viewBox="0 0 24 24" id="trash" xmlns="http://www.w3.org/2000/svg"><g stroke-width="2"><path d="M6 6l.934 13.071A1 1 0 007.93 20h8.138a1 1 0 00.997-.929L18 6"/><path stroke-linecap="round" stroke-linejoin="round" d="M12 11v4"/><path stroke-linejoin="round" d="M21 6H3"/><path d="M8.5 6l.544-1.632A2 2 0 0110.941 3h2.117a2 2 0 011.898 1.368L15.5 6"/></g></symbol><symbol fill="none" stroke="currentColor" viewBox="0 0 24 24" id="upload" xmlns="http://www.w3.org/2000/svg"><g stroke-linecap="round" stroke-width="2"><path d="M12 11v9M15 13l-3-3-3 3"/><path d="M19 14.792a3.02 3.02 0 001-2.233c0-1.578-1.242-2.881-2.853-3.085.02-.155.03-.312.03-.472C17.177 6.792 15.28 5 12.94 5c-1.546 0-2.898.782-3.637 1.95a5.024 5.024 0 00-.598-.035C6.106 6.915 4 8.906 4 11.362c0 1.504.79 2.833 2 3.638"/></g></symbol></svg>