<?xml version="1.0" encoding="utf-8"?><svg xmlns="http://www.w3.org/2000/svg" xmlns:xlink="http://www.w3.org/1999/xlink"><symbol fill="none" viewBox="0 0 24 24" id="align-objects-bottom" xmlns="http://www.w3.org/2000/svg"><path stroke="currentColor" stroke-linecap="round" stroke-linejoin="round" stroke-width="2" d="M20 20H4m8-3V6m0 11l3-3m-3 3l-3-3"/></symbol><symbol fill="none" viewBox="0 0 24 24" id="align-objects-center" xmlns="http://www.w3.org/2000/svg"><path stroke="currentColor" stroke-linecap="round" stroke-linejoin="round" stroke-width="2" d="M12 4v16m4-8h5m-3-3l-3 3 3 3M8 12H3m3-3l3 3-3 3"/></symbol><symbol fill="none" viewBox="0 0 24 24" id="align-objects-left" xmlns="http://www.w3.org/2000/svg"><path stroke="currentColor" stroke-linecap="round" stroke-linejoin="round" stroke-width="2" d="M4 4v16m3-8h11M7 12l3-3m-3 3l3 3"/></symbol><symbol fill="none" viewBox="0 0 24 24" id="align-objects-middle" xmlns="http://www.w3.org/2000/svg"><path stroke="currentColor" stroke-linecap="round" stroke-linejoin="round" stroke-width="2" d="M4 12h16m-8-4V3M9 6l3 3 3-3m-3 10v5m-3-3l3-3 3 3"/></symbol><symbol fill="none" viewBox="0 0 24 24" id="align-objects-right" xmlns="http://www.w3.org/2000/svg"><path stroke="currentColor" stroke-linecap="round" stroke-linejoin="round" stroke-width="2" d="M20 4v16m-3-8H6m11 0l-3-3m3 3l-3 3"/></symbol><symbol fill="none" viewBox="0 0 24 24" id="align-objects-top" xmlns="http://www.w3.org/2000/svg"><path stroke="currentColor" stroke-linecap="round" stroke-linejoin="round" stroke-width="2" d="M20 4H4m8 3v11m0-11l3 3m-3-3l-3 3"/></symbol><symbol fill="none" viewBox="0 0 24 24" id="align-text-center" xmlns="http://www.w3.org/2000/svg"><g stroke="currentColor" stroke-linecap="round" stroke-width="2"><path d="M4 6h16M7 10h10M4 14h16M9 18h6"/></g></symbol><symbol fill="none" viewBox="0 0 24 24" id="align-text-justify" xmlns="http://www.w3.org/2000/svg"><g stroke="currentColor" stroke-linecap="round" stroke-width="2"><path d="M4 6h16M4 10h16M4 14h16M4 18h16"/></g></symbol><symbol fill="none" viewBox="0 0 24 24" id="align-text-left" xmlns="http://www.w3.org/2000/svg"><g stroke="currentColor" stroke-linecap="round" stroke-width="2"><path d="M4 6h16M4 10h13M4 14h16M4 18h5.5"/></g></symbol><symbol fill="none" viewBox="0 0 24 24" id="align-text-right" xmlns="http://www.w3.org/2000/svg"><g stroke="currentColor" stroke-linecap="round" stroke-width="2"><path d="M4 6h16M7 10h13M4 14h16M14 18h6"/></g></symbol><symbol fill="none" viewBox="0 0 24 24" id="archive" xmlns="http://www.w3.org/2000/svg"><g stroke="currentColor" stroke-width="2"><path stroke-linejoin="round" d="M3 5a1 1 0 011-1h16a1 1 0 011 1v3H3V5z"/><path stroke-linecap="round" d="M9.5 13h5"/><path stroke-linejoin="round" d="M4 8h16v11a1 1 0 01-1 1H5a1 1 0 01-1-1V8z"/></g></symbol><symbol fill="none" stroke="currentColor" viewBox="0 0 24 24" id="arrow-down" xmlns="http://www.w3.org/2000/svg"><g stroke-linecap="round" stroke-width="2"><path d="M12 4v16M6 14l6 6 6-6"/></g></symbol><symbol fill="none" viewBox="0 0 24 24" id="arrow-go-back" xmlns="http://www.w3.org/2000/svg"><path stroke="currentColor" stroke-linecap="round" stroke-linejoin="round" stroke-width="2" d="M11 18h3.75a5.25 5.25 0 100-10.5H5M7.5 4L4 7.5 7.5 11"/></symbol><symbol fill="none" viewBox="0 0 24 24" id="arrow-go-forward" xmlns="http://www.w3.org/2000/svg"><path stroke="currentColor" stroke-linecap="round" stroke-linejoin="round" stroke-width="2" d="M13 18H9.25a5.25 5.25 0 110-10.5H19M16.5 4L20 7.5 16.5 11"/></symbol><symbol fill="none" viewBox="0 0 24 24" id="arrow-left" xmlns="http://www.w3.org/2000/svg"><path stroke="currentColor" stroke-linecap="round" stroke-linejoin="round" stroke-width="2" d="M20 12H4m0 0l6-6m-6 6l6 6"/></symbol><symbol fill="none" viewBox="0 0 24 24" id="arrow-left-down" xmlns="http://www.w3.org/2000/svg"><g stroke="currentColor" stroke-linecap="round" stroke-width="2"><path d="M17.657 6.343L6.343 17.657M6.343 9.172v8.485h8.485"/></g></symbol><symbol fill="none" viewBox="0 0 24 24" id="arrow-left-up" xmlns="http://www.w3.org/2000/svg"><path stroke="currentColor" stroke-linecap="round" stroke-linejoin="round" stroke-width="2" d="M17.657 17.9L6.343 6.585m0 0v8.485m0-8.485h8.485"/></symbol><symbol fill="none" viewBox="0 0 24 24" id="arrow-right" xmlns="http://www.w3.org/2000/svg"><path stroke="currentColor" stroke-linecap="round" stroke-linejoin="round" stroke-width="2" d="M4 12h16m0 0l-6 6m6-6l-6-6"/></symbol><symbol fill="none" viewBox="0 0 24 24" id="arrow-right-down" xmlns="http://www.w3.org/2000/svg"><path stroke="currentColor" stroke-linecap="round" stroke-linejoin="round" stroke-width="2" d="M6.343 6.343l11.314 11.314m0 0H9.172m8.485 0V9.172"/></symbol><symbol fill="none" viewBox="0 0 24 24" id="arrow-right-up" xmlns="http://www.w3.org/2000/svg"><path stroke="currentColor" stroke-linecap="round" stroke-linejoin="round" stroke-width="2" d="M6.343 17.657L17.657 6.343m0 0v8.485m0-8.485H9.172"/></symbol><symbol fill="none" viewBox="0 0 24 24" id="arrow-up" xmlns="http://www.w3.org/2000/svg"><path stroke="currentColor" stroke-linecap="round" stroke-linejoin="round" stroke-width="2" d="M12 20V4m0 0l6 6m-6-6l-6 6"/></symbol><symbol fill="none" viewBox="0 0 24 24" id="arrows" xmlns="http://www.w3.org/2000/svg"><path stroke="currentColor" stroke-width="2" d="M12 4v6m0 4v6"/><path stroke="currentColor" stroke-linecap="round" stroke-linejoin="round" stroke-width="2" d="M9.5 6.5L12 4l2.5 2.5m-5 11L12 20l2.5-2.5m-8-8L4 12l2.5 2.5m11-5L20 12l-2.5 2.5M5.5 12h13"/></symbol><symbol fill="none" viewBox="0 0 24 24" id="arrows-horizontal" xmlns="http://www.w3.org/2000/svg"><path stroke="currentColor" stroke-linecap="round" stroke-linejoin="round" stroke-width="2" d="M7 9l-3 3m0 0l3 3m-3-3h16m-3 3l3-3m0 0l-3-3"/></symbol><symbol fill="none" viewBox="0 0 24 24" id="arrows-vertical" xmlns="http://www.w3.org/2000/svg"><path stroke="currentColor" stroke-linecap="round" stroke-linejoin="round" stroke-width="2" d="M9 17l3 3m0 0l3-3m-3 3V4m3 3l-3-3m0 0L9 7"/></symbol><symbol fill="none" viewBox="0 0 24 24" id="ban" xmlns="http://www.w3.org/2000/svg"><path stroke="currentColor" stroke-width="2" d="M5.5 5.5l13 13M21 12a9 9 0 11-18 0 9 9 0 0118 0z"/></symbol><symbol fill="none" viewBox="0 0 24 24" id="bars" xmlns="http://www.w3.org/2000/svg"><path stroke="currentColor" stroke-linecap="round" stroke-linejoin="round" stroke-width="2" d="M4 6h16M4 12h16M4 18h16"/></symbol><symbol fill="none" viewBox="0 0 24 24" id="bell" xmlns="http://www.w3.org/2000/svg"><path stroke="currentColor" stroke-linecap="round" stroke-linejoin="round" stroke-width="2" d="M5 17h2m0 0h10M7 17v-6a5 5 0 0110 0v6m0 0h2M11.5 5.5V4a.5.5 0 011 0v1.5M13 20a1 1 0 11-2 0h2z"/></symbol><symbol fill="none" viewBox="0 0 24 24" id="book" xmlns="http://www.w3.org/2000/svg"><g stroke="currentColor" stroke-linejoin="round" stroke-width="2"><path d="M18 16V4H8a2 2 0 00-2 2v12"/><path d="M18 20H8a2 2 0 110-4h10c-.673 1.613-.66 2.488 0 4z"/></g></symbol><symbol fill="none" viewBox="0 0 24 24" id="book-open" xmlns="http://www.w3.org/2000/svg"><path stroke="currentColor" stroke-linecap="round" stroke-linejoin="round" stroke-width="2" d="M12 8.618V17.5m0-8.882a1 1 0 00-.553-.894l-.491-.246a7 7 0 00-4.12-.669l-.773.11A8 8 0 014.93 7H4v10h.38a8 8 0 002.197-.308l.553-.158a5 5 0 013.61.336l1.26.63m0-8.882a1 1 0 01.553-.894l.491-.246a7 7 0 014.12-.669l.773.11c.375.054.753.081 1.131.081H20v10h-.38a8 8 0 01-2.197-.308l-.553-.158a5 5 0 00-3.61.336L12 17.5"/></symbol><symbol fill="none" viewBox="0 0 24 24" id="bookmark" xmlns="http://www.w3.org/2000/svg"><path stroke="currentColor" stroke-linejoin="round" stroke-width="2" d="M6 20V5a1 1 0 011-1h10a1 1 0 011 1v15l-6-3-6 3z"/></symbol><symbol fill="none" viewBox="0 0 24 24" id="briefcase" xmlns="http://www.w3.org/2000/svg"><path stroke="currentColor" stroke-linecap="round" stroke-width="2" d="M8 8V6a2 2 0 012-2h4a2 2 0 012 2v2M4 14l3.15.787a20 20 0 009.7 0L20 14"/><path stroke="currentColor" stroke-linejoin="round" stroke-width="2" d="M4 10a2 2 0 012-2h12a2 2 0 012 2v8a2 2 0 01-2 2H6a2 2 0 01-2-2v-8z"/><circle cx="12" cy="12" r="1" fill="currentColor"/></symbol><symbol fill="none" viewBox="0 0 24 24" id="brush-big" xmlns="http://www.w3.org/2000/svg"><path stroke="currentColor" stroke-linecap="round" stroke-linejoin="round" stroke-width="2" d="M6 16l4.5 4.5 4-4a.707.707 0 011 0M6 16l-2.5-2.5 4-4a.707.707 0 000-1M6 16l2-2m7.5 2.5a.707.707 0 001 0l2.293-2.293a1 1 0 000-1.414l-2.086-2.086a1 1 0 010-1.414l3.586-3.586a1 1 0 000-1.414l-.586-.586a1 1 0 00-1.414 0l-3.586 3.586a1 1 0 01-1.414 0l-2.086-2.086a1 1 0 00-1.414 0L7.5 7.5a.707.707 0 000 1m8 8l-8-8"/></symbol><symbol fill="none" viewBox="0 0 24 24" id="calendar" xmlns="http://www.w3.org/2000/svg"><g stroke="currentColor" stroke-width="2"><path stroke-linejoin="round" d="M4 6a1 1 0 011-1h14a1 1 0 011 1v4H4V6z"/><path stroke-linecap="round" d="M8 6.5v-3M16 6.5v-3"/><path stroke-linejoin="round" d="M4 10h16v9a1 1 0 01-1 1H5a1 1 0 01-1-1v-9z"/></g></symbol><symbol fill="none" viewBox="0 0 24 24" id="camera" xmlns="http://www.w3.org/2000/svg"><g stroke="currentColor" stroke-width="2"><path d="M20 17V8a1 1 0 00-1-1h-2.382a1 1 0 01-.894-.553l-.448-.894A1 1 0 0014.382 5H9.618a1 1 0 00-.894.553l-.448.894A1 1 0 017.382 7H5a1 1 0 00-1 1v9a1 1 0 001 1h14a1 1 0 001-1z"/><path d="M15 12a3 3 0 11-6 0 3 3 0 016 0z"/></g></symbol><symbol fill="none" viewBox="0 0 24 24" id="camera-off" xmlns="http://www.w3.org/2000/svg"><g stroke="currentColor" stroke-linecap="round" stroke-width="2"><path d="M3 5l16 16M20 18V8a1 1 0 00-1-1h-2.382a1 1 0 01-.894-.553l-.448-.894A1 1 0 0014.382 5H9.721a1 1 0 00-.949.684L8.5 6.5M16 18H5a1 1 0 01-1-1V8a1 1 0 011-1v0M11 9.17A3 3 0 0114.83 13"/></g></symbol><symbol fill="none" viewBox="0 0 24 24" id="camera-video" xmlns="http://www.w3.org/2000/svg"><g stroke="currentColor" stroke-width="2"><path d="M16 16V8a1 1 0 00-1-1H5a1 1 0 00-1 1v8a1 1 0 001 1h10a1 1 0 001-1z"/><path stroke-linejoin="round" d="M20 7l-4 3v4l4 3V7z"/></g></symbol><symbol fill="none" viewBox="0 0 24 24" id="camera-video-off" xmlns="http://www.w3.org/2000/svg"><path stroke="currentColor" stroke-linecap="round" stroke-linejoin="round" stroke-width="2" d="M3 5l14 14M9 7h6a1 1 0 011 1v5.5a1 1 0 00.4.8L20 17V7l-4 3m-1 7H5a1 1 0 01-1-1V8a1 1 0 011-1"/></symbol><symbol fill="none" viewBox="0 0 24 24" id="cart" xmlns="http://www.w3.org/2000/svg"><circle cx="7.5" cy="18.5" r="1.5" fill="currentColor"/><circle cx="16.5" cy="18.5" r="1.5" fill="currentColor"/><path stroke="currentColor" stroke-linecap="round" stroke-linejoin="round" stroke-width="2" d="M3 5h2l.6 3m0 0L7 15h10l2-7H5.6z"/></symbol><symbol fill="none" viewBox="0 0 24 24" id="chart" xmlns="http://www.w3.org/2000/svg"><path stroke="currentColor" stroke-linecap="round" stroke-width="2" d="M17 5v15m-5-9v9m-5-6v6"/></symbol><symbol fill="none" viewBox="0 0 24 24" id="chat" xmlns="http://www.w3.org/2000/svg"><g fill="currentColor"><path d="M4 19l-.93-.37a1 1 0 001.125 1.35L4 19zm4.706-.936l.474-.881-.317-.17-.352.07.195.98zm-3.082-3.147l.93.37.163-.414-.196-.399-.897.443zM19 12c0 3.246-2.853 6-6.53 6v2c4.641 0 8.53-3.514 8.53-8h-2zM5.941 12c0-3.246 2.854-6 6.53-6V4C7.83 4 3.94 7.514 3.94 12h2zm6.53-6C16.147 6 19 8.754 19 12h2c0-4.486-3.889-8-8.53-8v2zm0 12c-1.205 0-2.328-.3-3.291-.817l-.948 1.761A8.934 8.934 0 0012.471 20v-2zm-8.276 1.98l4.706-.936-.39-1.961-4.706.936.39 1.962zm2.326-5.506A5.564 5.564 0 015.94 12h-2c0 1.2.282 2.338.786 3.36l1.794-.886zm-1.826.073L3.07 18.631l1.858.738 1.624-4.083-1.858-.739z"/><circle cx="9" cy="12" r="1"/><circle cx="12.5" cy="12" r="1"/><circle cx="16" cy="12" r="1"/></g></symbol><symbol fill="none" viewBox="0 0 24 24" id="chats" xmlns="http://www.w3.org/2000/svg"><path stroke="currentColor" stroke-linejoin="round" stroke-width="2" d="M9.882 15C13.261 15 16 12.538 16 9.5S13.261 4 9.882 4C6.504 4 3.765 6.462 3.765 9.5c0 .818.198 1.594.554 2.292L3 15l3.824-.736c.9.468 1.944.736 3.058.736z"/><path stroke="currentColor" stroke-linecap="round" stroke-linejoin="round" stroke-width="2" d="M10.804 18.124a6.593 6.593 0 003.314.876 6.623 6.623 0 003.059-.736L21 19l-1.32-3.208a5.02 5.02 0 00.555-2.292c0-1.245-.46-2.393-1.235-3.315-.749-.89-1.792-1.569-3-1.92"/><circle r="1" fill="currentColor" transform="matrix(-1 0 0 1 13 9.5)"/><circle r="1" fill="currentColor" transform="matrix(-1 0 0 1 10 9.5)"/><circle r="1" fill="currentColor" transform="matrix(-1 0 0 1 7 9.5)"/></symbol><symbol fill="none" viewBox="0 0 24 24" id="check" xmlns="http://www.w3.org/2000/svg"><path stroke="currentColor" stroke-linecap="round" stroke-linejoin="round" stroke-width="2" d="M5 14l4 4L19 8"/></symbol><symbol fill="none" viewBox="0 0 24 24" id="check-circle" xmlns="http://www.w3.org/2000/svg"><g stroke="currentColor" stroke-width="2"><path stroke-linecap="round" stroke-linejoin="round" d="M8 13l2.5 2.5L16 10"/><path d="M21 12a9 9 0 11-18 0 9 9 0 0118 0z"/></g></symbol><symbol fill="none" stroke="currentColor" viewBox="0 0 24 24" id="chevron-down" xmlns="http://www.w3.org/2000/svg"><path stroke-linecap="round" stroke-width="2" d="M5 10l7 7 7-7"/></symbol><symbol fill="none" viewBox="0 0 24 24" id="chevron-left" xmlns="http://www.w3.org/2000/svg"><path stroke="currentColor" stroke-linecap="round" stroke-linejoin="round" stroke-width="2" d="M14 5l-7 7 7 7"/></symbol><symbol fill="none" viewBox="0 0 24 24" id="chevron-right" xmlns="http://www.w3.org/2000/svg"><path stroke="currentColor" stroke-linecap="round" stroke-linejoin="round" stroke-width="2" d="M10 5l7 7-7 7"/></symbol><symbol fill="none" viewBox="0 0 24 24" id="chevron-up" xmlns="http://www.w3.org/2000/svg"><path stroke="currentColor" stroke-linecap="round" stroke-linejoin="round" stroke-width="2" d="M5 14l7-7 7 7"/></symbol><symbol fill="none" viewBox="0 0 24 24" id="circle" xmlns="http://www.w3.org/2000/svg"><path stroke="currentColor" stroke-linejoin="round" stroke-width="2" d="M21 12a9 9 0 11-18 0 9 9 0 0118 0z"/></symbol><symbol fill="none" viewBox="0 0 24 24" id="clipboard" xmlns="http://www.w3.org/2000/svg"><path stroke="currentColor" stroke-linejoin="round" stroke-width="2" d="M9 4H6a1 1 0 00-1 1v15a1 1 0 001 1h12a1 1 0 001-1V5a1 1 0 00-1-1h-3M9 3h6v4H9V3z"/></symbol><symbol fill="none" viewBox="0 0 24 24" id="clock" xmlns="http://www.w3.org/2000/svg"><path stroke="currentColor" stroke-linecap="round" stroke-linejoin="round" stroke-width="2" d="M12 6.5V12l3.5 2m5.5-2a9 9 0 11-18 0 9 9 0 0118 0z"/></symbol><symbol fill="none" viewBox="0 0 24 24" id="cloud" xmlns="http://www.w3.org/2000/svg"><path stroke="currentColor" stroke-linecap="round" stroke-linejoin="round" stroke-width="2" d="M8 9.036a3.485 3.485 0 011.975.99M4 12.5A3.5 3.5 0 007.5 16h9.75a2.75 2.75 0 00.734-5.4A5 5 0 008.37 9.108 3.5 3.5 0 004 12.5z"/></symbol><symbol fill="none" viewBox="0 0 24 24" id="cloud-sun" xmlns="http://www.w3.org/2000/svg"><path stroke="currentColor" stroke-linecap="round" stroke-linejoin="round" stroke-width="2" d="M10 3.5V3m-6.5 7H3m11.596-4.596l.354-.354m-9.546.354L5.05 5.05M9 13.036a3.484 3.484 0 011.975.99M12.645 7a4 4 0 00-6.59 3.666M5 16.5A3.5 3.5 0 008.5 20h9.75a2.75 2.75 0 00.734-5.4 5 5 0 00-9.614-1.491A3.504 3.504 0 005 16.5z"/></symbol><symbol fill="none" viewBox="0 0 24 24" id="code" xmlns="http://www.w3.org/2000/svg"><g stroke="currentColor" stroke-linecap="round" stroke-width="2"><path stroke-linejoin="round" d="M7 8l-4 4 4 4"/><path d="M10.5 18l3-12"/><path stroke-linejoin="round" d="M17 8l4 4-4 4"/></g></symbol><symbol fill="none" viewBox="0 0 24 24" id="coffee" xmlns="http://www.w3.org/2000/svg"><path stroke="currentColor" stroke-linecap="round" stroke-linejoin="round" stroke-width="2" d="M17 12H4v4a4 4 0 004 4h5a4 4 0 004-4v-4zm0 0h2a2 2 0 012 2v1a2 2 0 01-2 2h-2m-4-8s1-1 .5-2l-1-2C12 4 13 3 13 3M8.64 9s1-1 .5-2l-1-2c-.5-1 .5-2 .5-2"/></symbol><symbol fill="none" viewBox="0 0 24 24" id="cog" xmlns="http://www.w3.org/2000/svg"><path stroke="currentColor" stroke-linejoin="round" stroke-width="2" d="M14.203 1.29l-1.559-.205a1 1 0 00-.983.47L10.12 4.071a1 1 0 01-.47.402l-1.31.543a1 1 0 01-.616.048l-2.87-.691a1 1 0 00-1.028.363L2.87 5.984a1 1 0 00-.085 1.087l1.41 2.593a1 1 0 01.113.609l-.185 1.405a1 1 0 01-.266.558l-2.034 2.14a1 1 0 00-.198 1.071l.601 1.453a1 1 0 00.898.617l2.952.075a1 1 0 01.583.206l1.124.863a1 1 0 01.35.51l.837 2.831a1 1 0 00.828.708l1.559.205a1 1 0 00.983-.47l1.541-2.517a1 1 0 01.47-.402l1.31-.543a1 1 0 01.616-.048l2.87.691a1 1 0 001.028-.363l.957-1.247a1 1 0 00.085-1.087l-1.41-2.593a1 1 0 01-.113-.609l.184-1.405a1 1 0 01.267-.558l2.034-2.14a1 1 0 00.198-1.071L21.776 7.1a1 1 0 00-.898-.617l-2.951-.075a1 1 0 01-.584-.206l-1.124-.863a1 1 0 01-.35-.51l-.837-2.831a1 1 0 00-.828-.708z"/><path stroke="currentColor" stroke-linejoin="round" stroke-width="2" d="M15 12a3 3 0 11-6 0 3 3 0 016 0z"/></symbol><symbol fill="none" viewBox="0 0 24 24" id="columns-one-two-thirds" xmlns="http://www.w3.org/2000/svg"><path stroke="currentColor" stroke-linejoin="round" stroke-width="2" d="M9 4v16m-5 0h16a1 1 0 001-1V5a1 1 0 00-1-1H4a1 1 0 00-1 1v14a1 1 0 001 1z"/></symbol><symbol fill="none" viewBox="0 0 24 24" id="columns-three-thirds" xmlns="http://www.w3.org/2000/svg"><path stroke="currentColor" stroke-linejoin="round" stroke-width="2" d="M9 4v16m6-16v16M4 20h16a1 1 0 001-1V5a1 1 0 00-1-1H4a1 1 0 00-1 1v14a1 1 0 001 1z"/></symbol><symbol fill="none" viewBox="0 0 24 24" id="columns-two-halfs" xmlns="http://www.w3.org/2000/svg"><path stroke="currentColor" stroke-linejoin="round" stroke-width="2" d="M12 4v16m-8 0h16a1 1 0 001-1V5a1 1 0 00-1-1H4a1 1 0 00-1 1v14a1 1 0 001 1z"/></symbol><symbol fill="none" viewBox="0 0 24 24" id="corner-down-left" xmlns="http://www.w3.org/2000/svg"><g stroke="currentColor" stroke-linecap="round" stroke-width="2"><path d="M20 5v6.5a3 3 0 01-3 3H5"/><path d="M7.5 18L4 14.5 7.5 11"/></g></symbol><symbol fill="none" viewBox="0 0 24 24" id="corner-down-right" xmlns="http://www.w3.org/2000/svg"><path stroke="currentColor" stroke-linecap="round" stroke-linejoin="round" stroke-width="2" d="M4 5v6.5a3 3 0 003 3h12M16.5 18l3.5-3.5-3.5-3.5"/></symbol><symbol fill="none" viewBox="0 0 24 24" id="corner-left-down" xmlns="http://www.w3.org/2000/svg"><g stroke="currentColor" stroke-linecap="round" stroke-width="2"><path d="M19 4h-6.5a3 3 0 00-3 3v12"/><path d="M6 16.5L9.5 20l3.5-3.5"/></g></symbol><symbol fill="none" viewBox="0 0 24 24" id="corner-left-up" xmlns="http://www.w3.org/2000/svg"><g stroke="currentColor" stroke-linecap="round" stroke-width="2"><path d="M19 20h-6.5a3 3 0 01-3-3V5"/><path d="M6 7.5L9.5 4 13 7.5"/></g></symbol><symbol fill="none" viewBox="0 0 24 24" id="corner-right-down" xmlns="http://www.w3.org/2000/svg"><g stroke="currentColor" stroke-linecap="round" stroke-width="2"><path d="M5 4h6.5a3 3 0 013 3v12"/><path d="M18 16.5L14.5 20 11 16.5"/></g></symbol><symbol fill="none" viewBox="0 0 24 24" id="corner-right-up" xmlns="http://www.w3.org/2000/svg"><g stroke="currentColor" stroke-linecap="round" stroke-width="2"><path d="M5 20h6.5a3 3 0 003-3V5"/><path d="M18 7.5L14.5 4 11 7.5"/></g></symbol><symbol fill="none" viewBox="0 0 24 24" id="corner-top-left" xmlns="http://www.w3.org/2000/svg"><path stroke="currentColor" stroke-linecap="round" stroke-linejoin="round" stroke-width="2" d="M20 19v-6.5a3 3 0 00-3-3H5M7.5 6L4 9.5 7.5 13"/></symbol><symbol fill="none" viewBox="0 0 24 24" id="corner-up-right" xmlns="http://www.w3.org/2000/svg"><path stroke="currentColor" stroke-linecap="round" stroke-linejoin="round" stroke-width="2" d="M4 19v-6.5a3 3 0 013-3h12M16.5 6L20 9.5 16.5 13"/></symbol><symbol fill="none" viewBox="0 0 24 24" id="crop" xmlns="http://www.w3.org/2000/svg"><path stroke="currentColor" stroke-linecap="round" stroke-linejoin="round" stroke-width="2" d="M4 7h12a1 1 0 011 1v12M7 10v6a1 1 0 001 1h6M7 4v3m10 10h3"/></symbol><symbol fill="none" viewBox="0 0 24 24" id="database" xmlns="http://www.w3.org/2000/svg"><g stroke="currentColor" stroke-width="2"><path d="M20 12c0 1.657-3.582 3-8 3s-8-1.343-8-3M20 18c0 1.657-3.582 3-8 3s-8-1.343-8-3"/><ellipse cx="12" cy="6" rx="8" ry="3"/><path d="M4 6v12M20 6v12"/></g></symbol><symbol fill="none" viewBox="0 0 24 24" id="desktop" xmlns="http://www.w3.org/2000/svg"><path stroke="currentColor" stroke-linecap="round" stroke-linejoin="round" stroke-width="2" d="M8 20h8m-4 0v-4M4 5h16a1 1 0 011 1v9a1 1 0 01-1 1H4a1 1 0 01-1-1V6a1 1 0 011-1z"/></symbol><symbol fill="none" stroke="currentColor" viewBox="0 0 24 24" id="document" xmlns="http://www.w3.org/2000/svg"><g stroke-linejoin="round" stroke-width="2"><path d="M5 20V4a1 1 0 011-1h6.172a2 2 0 011.414.586l4.828 4.828A2 2 0 0119 9.828V20a1 1 0 01-1 1H6a1 1 0 01-1-1z"/><path d="M12 3v6a1 1 0 001 1h6"/></g></symbol><symbol fill="none" viewBox="0 0 24 24" id="document-add" xmlns="http://www.w3.org/2000/svg"><g stroke="currentColor" stroke-linejoin="round" stroke-width="2"><path stroke-linecap="round" d="M14.5 15.5h-5M12 18v-5"/><path d="M5 20V4a1 1 0 011-1h6.172a2 2 0 011.414.586l4.828 4.828A2 2 0 0119 9.828V20a1 1 0 01-1 1H6a1 1 0 01-1-1z"/><path d="M12 3v6a1 1 0 001 1h6"/></g></symbol><symbol fill="none" viewBox="0 0 24 24" id="document-remove" xmlns="http://www.w3.org/2000/svg"><g stroke="currentColor" stroke-linejoin="round" stroke-width="2"><path stroke-linecap="round" d="M14.5 15.5h-5"/><path d="M5 20V4a1 1 0 011-1h6.172a2 2 0 011.414.586l4.828 4.828A2 2 0 0119 9.828V20a1 1 0 01-1 1H6a1 1 0 01-1-1z"/><path d="M12 3v6a1 1 0 001 1h6"/></g></symbol><symbol fill="none" viewBox="0 0 24 24" id="documents" xmlns="http://www.w3.org/2000/svg"><path stroke="currentColor" stroke-linejoin="round" stroke-width="2" d="M13 3v7h7M6 7H5a1 1 0 00-1 1v12a1 1 0 001 1h9a1 1 0 001-1v-1M8 4v12a1 1 0 001 1h10a1 1 0 001-1V9.389a1 1 0 00-.263-.676l-4.94-5.389A1 1 0 0014.06 3H9a1 1 0 00-1 1z"/></symbol><symbol fill="currentColor" viewBox="0 0 24 24" id="dots-horizontal" xmlns="http://www.w3.org/2000/svg"><rect width="4" height="4" x="3" y="10" rx="2"/><rect width="4" height="4" x="10" y="10" rx="2"/><rect width="4" height="4" x="17" y="10" rx="2"/></symbol><symbol fill="none" viewBox="0 0 24 24" id="dots-vertical" xmlns="http://www.w3.org/2000/svg"><g fill="currentColor"><rect width="4" height="4" x="10" y="3" rx="2"/><rect width="4" height="4" x="10" y="10" rx="2"/><rect width="4" height="4" x="10" y="17" rx="2"/></g></symbol><symbol fill="none" viewBox="0 0 24 24" id="download" xmlns="http://www.w3.org/2000/svg"><path stroke="currentColor" stroke-linecap="round" stroke-linejoin="round" stroke-width="2" d="M12 11.5V20m0 0l3-3m-3 3l-3-3M8 7.036a3.484 3.484 0 011.975.99M17.5 14c1.519 0 2.5-1.231 2.5-2.75a2.75 2.75 0 00-2.016-2.65A5 5 0 008.37 7.108a3.5 3.5 0 00-1.87 6.746"/></symbol><symbol fill="none" viewBox="0 0 24 24" id="download-alt" xmlns="http://www.w3.org/2000/svg"><path stroke="currentColor" stroke-linecap="round" stroke-linejoin="round" stroke-width="2" d="M12 5v8.5m0 0l3-3m-3 3l-3-3M5 15v2a2 2 0 002 2h10a2 2 0 002-2v-2"/></symbol><symbol fill="none" viewBox="0 0 24 24" id="droplet" xmlns="http://www.w3.org/2000/svg"><path stroke="currentColor" stroke-width="2" d="M18 14.353C18 17.472 15.314 20 12 20s-6-2.528-6-5.647S8.5 8.5 12 4c3.5 4.5 6 7.234 6 10.353z"/></symbol><symbol fill="none" viewBox="0 0 24 24" id="duplicate" xmlns="http://www.w3.org/2000/svg"><path stroke="currentColor" stroke-linejoin="round" stroke-width="2" d="M6 16H5a1 1 0 01-1-1V5a1 1 0 011-1h10a1 1 0 011 1v1M9 20h10a1 1 0 001-1V9a1 1 0 00-1-1H9a1 1 0 00-1 1v10a1 1 0 001 1z"/></symbol><symbol fill="none" viewBox="0 0 24 24" id="exchange-horizontal" xmlns="http://www.w3.org/2000/svg"><path stroke="currentColor" stroke-linecap="round" stroke-linejoin="round" stroke-width="2" d="M4 17h12M4 17l3.5-3.5M4 17l3.5 3.5M7 7h13m0 0l-3.5-3.5M20 7l-3.5 3.5"/></symbol><symbol fill="none" viewBox="0 0 24 24" id="exchange-vertical" xmlns="http://www.w3.org/2000/svg"><path stroke="currentColor" stroke-linecap="round" stroke-linejoin="round" stroke-width="2" d="M17 20V8m0 12l-3.5-3.5M17 20l3.5-3.5M7 17V4m0 0L3.5 7.5M7 4l3.5 3.5"/></symbol><symbol viewBox="0 0 24 24" id="exclamation" xmlns="http://www.w3.org/2000/svg"><g fill="currentColor"><path d="M9.413 5.971l1.07 7.708a1.531 1.531 0 003.034 0l1.07-7.708a2.612 2.612 0 10-5.174 0z"/><circle cx="12" cy="19" r="2"/></g></symbol><symbol fill="none" viewBox="0 0 24 24" id="exclamation-triangle" xmlns="http://www.w3.org/2000/svg"><path stroke="currentColor" stroke-width="2" d="M10.245 4.208c.759-1.387 2.751-1.387 3.51 0l7.018 12.832c.73 1.333-.235 2.96-1.754 2.96H4.98c-1.519 0-2.483-1.627-1.754-2.96l7.018-12.832z"/><path fill="currentColor" d="M10.615 8.996l.314 4.08a1 1 0 00.997.924h.148a1 1 0 00.997-.923l.314-4.081a1.39 1.39 0 10-2.77 0z"/><circle cx="12" cy="16.5" r="1.5" fill="currentColor"/></symbol><symbol fill="none" viewBox="0 0 24 24" id="expand" xmlns="http://www.w3.org/2000/svg"><path stroke="currentColor" stroke-linecap="round" stroke-linejoin="round" stroke-width="2" d="M4 8.5V4m0 0h4.5M4 4l5.5 5.5m10.5-1V4m0 0h-4.5M20 4l-5.5 5.5M4 15.5V20m0 0h4.5M4 20l5.5-5.5m10.5 1V20m0 0h-4.5m4.5 0l-5.5-5.5"/></symbol><symbol fill="none" viewBox="0 0 24 24" id="eye" xmlns="http://www.w3.org/2000/svg"><path stroke="currentColor" stroke-linejoin="round" stroke-width="2" d="M3 12c5.4-8 12.6-8 18 0-5.4 8-12.6 8-18 0z"/><path stroke="currentColor" stroke-linejoin="round" stroke-width="2" d="M15 12a3 3 0 11-6 0 3 3 0 016 0z"/></symbol><symbol fill="none" viewBox="0 0 24 24" id="eye-off" xmlns="http://www.w3.org/2000/svg"><path stroke="currentColor" stroke-linecap="round" stroke-linejoin="round" stroke-width="2" d="M3 5l16 16M11.148 9.123a3 3 0 013.722 3.752M8.41 6.878C12.674 4.762 17.267 6.47 21 12c-1.027 1.521-2.119 2.753-3.251 3.696m-2.509 1.59C11.076 19.142 6.631 17.38 3 12c1.01-1.496 2.083-2.713 3.196-3.65"/></symbol><symbol fill="none" viewBox="0 0 24 24" id="flag" xmlns="http://www.w3.org/2000/svg"><g stroke="currentColor" stroke-linecap="round" stroke-width="2"><path d="M6 5v15"/><path stroke-linejoin="round" d="M13 5.5V4H7a1 1 0 00-1 1v8h7v1.5h7v-9h-7zm0 0v3"/></g></symbol><symbol fill="none" viewBox="0 0 24 24" id="flask" xmlns="http://www.w3.org/2000/svg"><g stroke="currentColor" stroke-width="2"><path stroke-linejoin="round" d="M9.5 10V4h5v6l4.743 5.174A2.88 2.88 0 0117.12 20H6.88a2.88 2.88 0 01-2.123-4.826L9.5 10z"/><path stroke-linecap="round" d="M8.5 4h7"/><path d="M6 14c3.5 2 4 0 6 0s2.5 2 6 0"/></g></symbol><symbol fill="none" viewBox="0 0 24 24" id="folder" xmlns="http://www.w3.org/2000/svg"><path stroke="currentColor" stroke-linejoin="round" stroke-width="2" d="M3 18V6a2 2 0 012-2h4.539a2 2 0 011.562.75L12.2 6.126a1 1 0 00.78.375H20a1 1 0 011 1V18a1 1 0 01-1 1H4a1 1 0 01-1-1z"/></symbol><symbol fill="none" viewBox="0 0 24 24" id="folder-add" xmlns="http://www.w3.org/2000/svg"><g stroke="currentColor" stroke-width="2"><path stroke-linejoin="round" d="M3 18V6a2 2 0 012-2h4.539a2 2 0 011.562.75L12.2 6.126a1 1 0 00.78.375H20a1 1 0 011 1V18a1 1 0 01-1 1H4a1 1 0 01-1-1z"/><path stroke-linecap="round" d="M9.5 12.5h5M12 15v-5"/></g></symbol><symbol fill="none" viewBox="0 0 24 24" id="folder-open" xmlns="http://www.w3.org/2000/svg"><path stroke="currentColor" stroke-linejoin="round" stroke-width="2" d="M17 8V7a1 1 0 00-1-1h-5.586a1 1 0 01-.707-.293L8.293 4.293A1 1 0 007.586 4H4a1 1 0 00-1 1v12a2 2 0 002 2h14a1 1 0 001-1v-7a1 1 0 00-1-1H8a1 1 0 00-1 1v6a2 2 0 01-2 2v0"/></symbol><symbol fill="none" viewBox="0 0 24 24" id="folder-remove" xmlns="http://www.w3.org/2000/svg"><g stroke="currentColor" stroke-width="2"><path stroke-linejoin="round" d="M3 18V6a2 2 0 012-2h4.539a2 2 0 011.562.75L12.2 6.126a1 1 0 00.78.375H20a1 1 0 011 1V18a1 1 0 01-1 1H4a1 1 0 01-1-1z"/><path stroke-linecap="round" d="M9.5 12.5h5"/></g></symbol><symbol fill="none" viewBox="0 0 24 24" id="funnel" xmlns="http://www.w3.org/2000/svg"><path stroke="currentColor" stroke-linejoin="round" stroke-width="2" d="M20 4H4v2l6 6v8.5l4-2.5v-6l6-6V4z"/></symbol><symbol fill="none" viewBox="0 0 24 24" id="gift" xmlns="http://www.w3.org/2000/svg"><path stroke="currentColor" stroke-linejoin="round" stroke-width="2" d="M12 9V6a3 3 0 10-3 3h3zm0 0V7a2 2 0 112 2h-2zm-7 4v7a1 1 0 001 1h12a1 1 0 001-1v-7m-7-3v11m8-8v-3a1 1 0 00-1-1H5a1 1 0 00-1 1v3h16z"/></symbol><symbol fill="none" viewBox="0 0 24 24" id="globe" xmlns="http://www.w3.org/2000/svg"><path stroke="currentColor" stroke-linejoin="round" stroke-width="2" d="M21 12a9 9 0 01-9 9m9-9a9 9 0 00-9-9m9 9H3m9 9a9 9 0 01-9-9m9 9c1.933 0 3.5-4.03 3.5-9S13.933 3 12 3m0 18c-1.933 0-3.5-4.03-3.5-9s1.567-9 3.5-9m-9 9a9 9 0 019-9"/></symbol><symbol viewBox="0 0 24 24" id="heading" xmlns="http://www.w3.org/2000/svg"><path fill="currentColor" d="M7 6H6a1 1 0 010-2h4a1 1 0 110 2H9v6h8V6h-1a1 1 0 110-2h4a1 1 0 110 2h-1v14h1a1 1 0 110 2h-4a1 1 0 110-2h1v-6H9v6h1a1 1 0 110 2H6a1 1 0 110-2h1V6z"/></symbol><symbol fill="none" viewBox="0 0 24 24" id="heart" xmlns="http://www.w3.org/2000/svg"><path stroke="currentColor" stroke-width="2" d="M12 8c-1.574-1.635-4.46-2.135-6.035-.5-1.573 1.635-1.34 3.836 0 5.752C7.306 15.168 9.41 16.89 12 19c2.59-2.11 4.694-3.832 6.035-5.748 1.34-1.916 1.573-4.117 0-5.752C16.46 5.865 13.574 6.365 12 8z"/></symbol><symbol fill="none" viewBox="0 0 24 24" id="home" xmlns="http://www.w3.org/2000/svg"><path stroke="currentColor" stroke-linecap="round" stroke-linejoin="round" stroke-width="2" d="M6 10v9a1 1 0 001 1h10a1 1 0 001-1v-9M6 10l6-6 6 6M6 10l-2 2m14-2l2 2m-10 1h4v4h-4v-4z"/></symbol><symbol fill="none" viewBox="0 0 24 24" id="humbleicon" xmlns="http://www.w3.org/2000/svg"><g stroke="currentColor" stroke-width="2"><path stroke-linecap="round" d="M8 4a2 2 0 012 2v11a2 2 0 11-4 0V6a2 2 0 012-2zM16 12a2 2 0 012 2v3a2 2 0 11-4 0v-3a2 2 0 012-2z"/><circle cx="16" cy="6" r="2"/></g></symbol><symbol fill="none" viewBox="0 0 24 24" id="image" xmlns="http://www.w3.org/2000/svg"><path stroke="currentColor" stroke-linecap="round" stroke-linejoin="round" stroke-width="2" d="M14 16l2.293-2.293a1 1 0 011.414 0L21 17M3 17l5.586-5.586a2 2 0 012.828 0L14.5 14.5M21 5v14a1 1 0 01-1 1H4a1 1 0 01-1-1V5a1 1 0 011-1h16a1 1 0 011 1zm-5 3a1 1 0 11-2 0 1 1 0 012 0z"/></symbol><symbol fill="none" viewBox="0 0 24 24" id="images" xmlns="http://www.w3.org/2000/svg"><path stroke="currentColor" stroke-linecap="round" stroke-linejoin="round" stroke-width="2" d="M3 19v-9a1 1 0 011-1h11a1 1 0 011 1v9a1 1 0 01-1 1H4a1 1 0 01-1-1zm0 0l4.293-4.293a1 1 0 011.414 0L14 20M7 6V5a1 1 0 011-1h12a1 1 0 011 1v10a1 1 0 01-1 1h-1m-7-4v.01"/></symbol><symbol fill="none" viewBox="0 0 24 24" id="key" xmlns="http://www.w3.org/2000/svg"><circle cx="15.5" cy="8.5" r="1.5" fill="currentColor"/><path stroke="currentColor" stroke-linecap="round" stroke-linejoin="round" stroke-width="2" d="M5 16l5.18-5.652C10.033 9.875 10 9.523 10 9a5 5 0 115 5c-.523 0-.868-.01-1.342-.158L12 15.5h-2v2H8v2H5V16z"/></symbol><symbol fill="none" viewBox="0 0 24 24" id="layers" xmlns="http://www.w3.org/2000/svg"><g stroke="currentColor" stroke-linejoin="round" stroke-width="2"><path d="M4 8l8-4 8 4-8 4-8-4z"/><path stroke-linecap="round" d="M4 12l8 4 8-4M4 16l8 4 8-4"/></g></symbol><symbol fill="none" viewBox="0 0 24 24" id="location" xmlns="http://www.w3.org/2000/svg"><circle cx="12" cy="9.5" r="2" fill="currentColor"/><path stroke="currentColor" stroke-width="2" d="M17.5 9.5c0 3.038-2 6.5-5.5 10.5-3.5-4-5.5-7.462-5.5-10.5a5.5 5.5 0 1111 0z"/></symbol><symbol fill="none" viewBox="0 0 24 24" id="lock" xmlns="http://www.w3.org/2000/svg"><path stroke="currentColor" stroke-linecap="round" stroke-linejoin="round" stroke-width="2" d="M12 14v2m-4-6V8a4 4 0 118 0v2m-9 9h10a1 1 0 001-1v-7a1 1 0 00-1-1H7a1 1 0 00-1 1v7a1 1 0 001 1z"/></symbol><symbol fill="none" viewBox="0 0 24 24" id="lock-open" xmlns="http://www.w3.org/2000/svg"><path stroke="currentColor" stroke-linecap="round" stroke-linejoin="round" stroke-width="2" d="M12 15v2m-4-6V7a4 4 0 118 0M7 20h10a1 1 0 001-1v-7a1 1 0 00-1-1H7a1 1 0 00-1 1v7a1 1 0 001 1z"/></symbol><symbol fill="none" viewBox="0 0 24 24" id="logout" xmlns="http://www.w3.org/2000/svg"><path stroke="currentColor" stroke-linecap="round" stroke-linejoin="round" stroke-width="2" d="M20 12h-9.5m7.5 3l3-3-3-3m-5-2V6a2 2 0 00-2-2H6a2 2 0 00-2 2v12a2 2 0 002 2h5a2 2 0 002-2v-1"/></symbol><symbol fill="none" viewBox="0 0 24 24" id="mail" xmlns="http://www.w3.org/2000/svg"><g stroke="currentColor" stroke-width="2"><path stroke-linejoin="round" d="M20 6H4a1 1 0 00-1 1v10a1 1 0 001 1h16a1 1 0 001-1V7a1 1 0 00-1-1z"/><path stroke-linecap="round" d="M3 8l7.89 5.26a2 2 0 002.22 0L21 8"/></g></symbol><symbol fill="none" viewBox="0 0 24 24" id="mail-open" xmlns="http://www.w3.org/2000/svg"><g stroke="currentColor" stroke-width="2"><path stroke-linejoin="round" d="M21 19V8.588a1 1 0 00-.514-.874l-7.03-3.905a3 3 0 00-2.913 0L3.514 7.714A1 1 0 003 8.588V19a1 1 0 001 1h16a1 1 0 001-1z"/><path stroke-linecap="round" d="M3 10l7.89 5.26a2 2 0 002.22 0L21 10M9 14l-6 4M15 14l6 4"/></g></symbol><symbol fill="none" viewBox="0 0 24 24" id="map" xmlns="http://www.w3.org/2000/svg"><path stroke="currentColor" stroke-linecap="round" stroke-linejoin="round" stroke-width="2" d="M15.5 7v9.5m-7 .5V8.5M3.521 6.716l4.553-2.483a1 1 0 01.872-.042l6.108 2.618a1 1 0 00.872-.042l3.595-1.96A1 1 0 0121 5.685v10.721a1 1 0 01-.521.878l-4.553 2.483a1 1 0 01-.872.042L8.946 17.19a1 1 0 00-.872.042l-3.595 1.96A1 1 0 013 18.315V7.595a1 1 0 01.521-.878z"/></symbol><symbol fill="none" viewBox="0 0 24 24" id="microphone" xmlns="http://www.w3.org/2000/svg"><path stroke="currentColor" stroke-linecap="round" stroke-linejoin="round" stroke-width="2" d="M17.5 10.5A5.5 5.5 0 0112 16m0 0a5.5 5.5 0 01-5.5-5.5M12 16v4m-4 0h4m0 0h4m-4-7a2.5 2.5 0 01-2.5-2.5v-4a2.5 2.5 0 015 0v4A2.5 2.5 0 0112 13z"/></symbol><symbol fill="none" viewBox="0 0 24 24" id="microphone-off" xmlns="http://www.w3.org/2000/svg"><path stroke="currentColor" stroke-linecap="round" stroke-linejoin="round" stroke-width="2" d="M4 4l16 16M6.5 10.5A5.5 5.5 0 0012 16v4m-4 0h4m0 0h4M9.5 9V6.5a2.5 2.5 0 015 0v4a2.5 2.5 0 01-1.5 2.292m4.5-2.292c0 1.93-.803 3.523-2.309 4.504"/></symbol><symbol fill="none" viewBox="0 0 24 24" id="minus" xmlns="http://www.w3.org/2000/svg"><path stroke="currentColor" stroke-linecap="round" stroke-width="2" d="M18 12H6"/></symbol><symbol fill="none" viewBox="0 0 24 24" id="minus-circle" xmlns="http://www.w3.org/2000/svg"><g stroke="currentColor" stroke-width="2"><path stroke-linecap="round" d="M16 12H8"/><path d="M21 12a9 9 0 11-18 0 9 9 0 0118 0z"/></g></symbol><symbol fill="none" viewBox="0 0 24 24" id="mobile" xmlns="http://www.w3.org/2000/svg"><path stroke="currentColor" stroke-linecap="round" stroke-linejoin="round" stroke-width="2" d="M10 17h4m3-12v14a1 1 0 01-1 1H8a1 1 0 01-1-1V5a1 1 0 011-1h8a1 1 0 011 1z"/></symbol><symbol fill="none" viewBox="0 0 24 24" id="moon" xmlns="http://www.w3.org/2000/svg"><path stroke="currentColor" stroke-linejoin="round" stroke-width="2" d="M20 14.12A7.78 7.78 0 019.88 4a7.782 7.782 0 002.9 15A7.782 7.782 0 0020 14.12z"/></symbol><symbol fill="none" viewBox="0 0 24 24" id="music-note" xmlns="http://www.w3.org/2000/svg"><path stroke="currentColor" stroke-linejoin="round" stroke-width="2" d="M9 18c0 1.105-1.12 2-2.5 2S4 19.105 4 18s1.12-2 2.5-2 2.5.895 2.5 2zm0 0V7l11-3v11m0 0c0 1.105-1.12 2-2.5 2s-2.5-.895-2.5-2 1.12-2 2.5-2 2.5.895 2.5 2z"/></symbol><symbol fill="none" viewBox="0 0 24 24" id="pencil" xmlns="http://www.w3.org/2000/svg"><path stroke="currentColor" stroke-linecap="round" stroke-linejoin="round" stroke-width="2" d="M13.5 7.5l3 3M4 20v-3.5L15.293 5.207a1 1 0 011.414 0l2.086 2.086a1 1 0 010 1.414L7.5 20H4z"/></symbol><symbol fill="none" viewBox="0 0 24 24" id="plus" xmlns="http://www.w3.org/2000/svg"><g stroke="currentColor" stroke-linecap="round" stroke-width="2"><path d="M12 19V5M19 12H5"/></g></symbol><symbol fill="none" viewBox="0 0 24 24" id="plus-circle" xmlns="http://www.w3.org/2000/svg"><g stroke="currentColor" stroke-width="2"><path stroke-linecap="round" d="M12 16V8m4 4H8"/><path d="M21 12a9 9 0 11-18 0 9 9 0 0118 0z"/></g></symbol><symbol fill="none" viewBox="0 0 24 24" id="print" xmlns="http://www.w3.org/2000/svg"><path stroke="currentColor" stroke-linejoin="round" stroke-width="2" d="M8 17H5a1 1 0 01-1-1v-5a2 2 0 012-2h12a2 2 0 012 2v5a1 1 0 01-1 1h-3M8 4h8v5H8V4zm0 11h8v4H8v-4z"/><circle cx="7" cy="12" r="1" fill="currentColor"/></symbol><symbol fill="none" viewBox="0 0 24 24" id="rain" xmlns="http://www.w3.org/2000/svg"><path stroke="currentColor" stroke-linecap="round" stroke-linejoin="round" stroke-width="2" d="M12.857 13L12 19m-2.5-7l-.857 6m7.857-6l-.857 6M8 7.036a3.484 3.484 0 011.975.99M6 13.662A3.5 3.5 0 018.37 7.11a5.002 5.002 0 019.614 1.49 2.751 2.751 0 011.59 4.122"/></symbol><symbol fill="none" viewBox="0 0 24 24" id="refresh" xmlns="http://www.w3.org/2000/svg"><path stroke="currentColor" stroke-linecap="round" stroke-linejoin="round" stroke-width="2" d="M20 20v-5h-5M4 4v5h5m10.938 2A8.001 8.001 0 005.07 8m-1.008 5a8.001 8.001 0 0014.868 3"/></symbol><symbol fill="none" viewBox="0 0 24 24" id="rss" xmlns="http://www.w3.org/2000/svg"><path stroke="currentColor" stroke-linecap="round" stroke-width="2" d="M13 19a8 8 0 00-8-8M19 19c0-7.732-6.268-14-14-14"/><circle cx="6" cy="18" r="2" fill="currentColor"/></symbol><symbol fill="none" viewBox="0 0 24 24" id="search" xmlns="http://www.w3.org/2000/svg"><g stroke="currentColor" stroke-width="2"><path stroke-linecap="round" d="M20 20l-6-6"/><path d="M15 9.5a5.5 5.5 0 11-11 0 5.5 5.5 0 0111 0z"/></g></symbol><symbol fill="none" viewBox="0 0 24 24" id="share" xmlns="http://www.w3.org/2000/svg"><path stroke="currentColor" stroke-linecap="round" stroke-linejoin="round" stroke-width="2" d="M12 5v8.5M15 7l-3-3-3 3m-4 5v5a2 2 0 002 2h10a2 2 0 002-2v-5"/></symbol><symbol fill="none" viewBox="0 0 24 24" id="snow" xmlns="http://www.w3.org/2000/svg"><path stroke="currentColor" stroke-linecap="round" stroke-linejoin="round" stroke-width="2" d="M10 13h.01M16 13h.01M13 14.5h.01M10 16h.01M16 16h.01M13 17.5h.01M8 7.036a3.484 3.484 0 011.975.99M6 13.662A3.5 3.5 0 018.37 7.11a5.002 5.002 0 019.614 1.49 2.751 2.751 0 011.59 4.122"/></symbol><symbol fill="none" viewBox="0 0 24 24" id="square" xmlns="http://www.w3.org/2000/svg"><path stroke="currentColor" stroke-linejoin="round" stroke-width="2" d="M4 5a1 1 0 011-1h14a1 1 0 011 1v14a1 1 0 01-1 1H5a1 1 0 01-1-1V5z"/></symbol><symbol fill="none" viewBox="0 0 24 24" id="star" xmlns="http://www.w3.org/2000/svg"><path stroke="currentColor" stroke-linejoin="round" stroke-width="2" d="M12.951 3.691a1 1 0 00-1.902 0L9.477 8.528H4.392a1 1 0 00-.588 1.809l4.114 2.99-1.571 4.836a1 1 0 001.538 1.118L12 16.291l4.114 2.99a1 1 0 001.54-1.118l-1.572-4.837 4.114-2.99a1 1 0 00-.588-1.808h-5.085L12.95 3.69z"/></symbol><symbol fill="none" viewBox="0 0 24 24" id="storm" xmlns="http://www.w3.org/2000/svg"><path stroke="currentColor" stroke-linecap="round" stroke-linejoin="round" stroke-width="2" d="M13.5 10l-3 5h4l-3 5.5M8 8.036a3.484 3.484 0 011.975.99M7.5 15a3.5 3.5 0 11.87-6.891 5.002 5.002 0 019.614 1.49A2.751 2.751 0 0117.25 15"/></symbol><symbol fill="none" viewBox="0 0 24 24" id="sun" xmlns="http://www.w3.org/2000/svg"><path stroke="currentColor" stroke-linecap="round" stroke-width="2" d="M12 4.5V3m0 18v-1.5m9-7.5h-1.5m-15 0H3m14.303-5.303l1.061-1.061M5.636 18.364l1.06-1.06m11.668 1.06l-1.06-1.06M6.696 6.696l-1.06-1.06M16 12a4 4 0 11-8 0 4 4 0 018 0z"/></symbol><symbol fill="none" viewBox="0 0 24 24" id="support" xmlns="http://www.w3.org/2000/svg"><path stroke="currentColor" stroke-width="2" d="M18 18l-3-3M9 9L6 6m9 3l3-3M6 18l3-3m12-3a9 9 0 11-18 0 9 9 0 0118 0zm-5 0a4 4 0 11-8 0 4 4 0 018 0z"/></symbol><symbol fill="none" viewBox="0 0 24 24" id="tag" xmlns="http://www.w3.org/2000/svg"><path stroke="currentColor" stroke-linejoin="round" stroke-width="2" d="M4 10.586V5a1 1 0 011-1h5.586a1 1 0 01.707.293l8.5 8.5a1 1 0 010 1.414l-5.586 5.586a1 1 0 01-1.414 0l-8.5-8.5A1 1 0 014 10.586z"/><circle cx="8.5" cy="8.5" r="1.5" fill="currentColor"/></symbol><symbol fill="none" viewBox="0 0 24 24" id="tags" xmlns="http://www.w3.org/2000/svg"><path stroke="currentColor" stroke-linejoin="round" stroke-width="2" d="M3 10.95V6a1 1 0 011-1h4.95a1 1 0 01.707.293l7.636 7.636a1 1 0 010 1.415l-4.95 4.949a1 1 0 01-1.414 0l-7.636-7.636A1 1 0 013 10.948z"/><path stroke="currentColor" stroke-linejoin="round" stroke-width="2" d="M15.636 20l5.657-5.656a1 1 0 000-1.415L13.363 5"/><circle cx="6.5" cy="8.5" r="1.5" fill="currentColor"/></symbol><symbol viewBox="0 0 24 24" id="text" xmlns="http://www.w3.org/2000/svg"><path fill="currentColor" d="M20 3H4v3a1 1 0 002 0V5h5v14h-1a1 1 0 100 2h4a1 1 0 100-2h-1V5h5v1a1 1 0 102 0V3z"/></symbol><symbol fill="none" viewBox="0 0 24 24" id="times" xmlns="http://www.w3.org/2000/svg"><g stroke="currentColor" stroke-linecap="round" stroke-width="2"><path d="M6 18L18 6M18 18L6 6"/></g></symbol><symbol fill="none" viewBox="0 0 24 24" id="times-circle" xmlns="http://www.w3.org/2000/svg"><g stroke="currentColor" stroke-width="2"><path d="M21 12a9 9 0 11-18 0 9 9 0 0118 0z"/><path stroke-linecap="round" d="M9 15l6-6m0 6L9 9"/></g></symbol><symbol fill="none" viewBox="0 0 24 24" id="trash" xmlns="http://www.w3.org/2000/svg"><path stroke="currentColor" stroke-linecap="round" stroke-linejoin="round" stroke-width="2" d="M6 6l.934 13.071A1 1 0 007.93 20h8.138a1 1 0 00.997-.929L18 6m-6 5v4m8-9H4m4.5 0l.544-1.632A2 2 0 0110.941 3h2.117a2 2 0 011.898 1.368L15.5 6"/></symbol><symbol fill="none" viewBox="0 0 24 24" id="trending-down" xmlns="http://www.w3.org/2000/svg"><path stroke="currentColor" stroke-linecap="round" stroke-linejoin="round" stroke-width="2" d="M20.5 17L13 9.5l-4 4-6-6m13 10h4.95v-5"/></symbol><symbol fill="none" viewBox="0 0 24 24" id="trending-up" xmlns="http://www.w3.org/2000/svg"><path stroke="currentColor" stroke-linecap="round" stroke-linejoin="round" stroke-width="2" d="M20.5 7.5L13 15l-4-4-6 6M16 7h4.95v5"/></symbol><symbol fill="none" viewBox="0 0 24 24" id="triangle" xmlns="http://www.w3.org/2000/svg"><path stroke="currentColor" stroke-width="2" d="M11.125 2.584a1 1 0 011.75 0l8.805 15.932A1 1 0 0120.805 20H3.195a1 1 0 01-.875-1.484l8.805-15.932z"/></symbol><symbol fill="none" viewBox="0 0 24 24" id="upload" xmlns="http://www.w3.org/2000/svg"><path stroke="currentColor" stroke-linecap="round" stroke-linejoin="round" stroke-width="2" d="M12 10v9m0-9l3 3m-3-3l-3 3m8.5 2c1.519 0 2.5-1.231 2.5-2.75a2.75 2.75 0 00-2.016-2.65A5 5 0 008.37 8.108a3.5 3.5 0 00-1.87 6.746"/></symbol><symbol fill="none" viewBox="0 0 24 24" id="user" xmlns="http://www.w3.org/2000/svg"><path stroke="currentColor" stroke-linecap="round" stroke-linejoin="round" stroke-width="2" d="M18 19v-1.25c0-2.071-1.919-3.75-4.286-3.75h-3.428C7.919 14 6 15.679 6 17.75V19m9-11a3 3 0 11-6 0 3 3 0 016 0z"/></symbol><symbol fill="none" viewBox="0 0 24 24" id="user-add" xmlns="http://www.w3.org/2000/svg"><path stroke="currentColor" stroke-linecap="round" stroke-linejoin="round" stroke-width="2" d="M15 11h3m0 0h3m-3 0v3m0-3V8m-3 11v-1.25c0-2.071-1.919-3.75-4.286-3.75H7.286C4.919 14 3 15.679 3 17.75V19m9-11a3 3 0 11-6 0 3 3 0 016 0z"/></symbol><symbol fill="none" viewBox="0 0 24 24" id="user-asking" xmlns="http://www.w3.org/2000/svg"><path stroke="currentColor" stroke-linecap="round" stroke-linejoin="round" stroke-width="2" d="M12 14H9.286C6.919 14 5 15.679 5 17.75V19M19 7v5a2 2 0 01-2 2h-2v5M14 8a3 3 0 11-6 0 3 3 0 016 0z"/></symbol><symbol fill="none" viewBox="0 0 24 24" id="user-remove" xmlns="http://www.w3.org/2000/svg"><path stroke="currentColor" stroke-linecap="round" stroke-linejoin="round" stroke-width="2" d="M16 11h6m-6 8v-1.25c0-2.071-1.919-3.75-4.286-3.75H8.286C5.919 14 4 15.679 4 17.75V19m9-11a3 3 0 11-6 0 3 3 0 016 0z"/></symbol><symbol fill="none" viewBox="0 0 24 24" id="users" xmlns="http://www.w3.org/2000/svg"><path stroke="currentColor" stroke-linecap="round" stroke-linejoin="round" stroke-width="2" d="M13 19v-1.25C13 15.679 11.081 14 8.714 14H7.286C4.919 14 3 15.679 3 17.75V19m12.286-5h1.428C19.081 14 21 15.679 21 17.75V19M15 5.17a3 3 0 110 5.659M11 8a3 3 0 11-6 0 3 3 0 016 0z"/></symbol><symbol fill="none" viewBox="0 0 24 24" id="verified" xmlns="http://www.w3.org/2000/svg"><path stroke="currentColor" stroke-linecap="round" stroke-linejoin="round" stroke-width="2" d="M8.5 12.5L11 15l4.5-4.5m-.595-5.512l-.48-.659a3 3 0 00-4.85 0l-.48.659-.804-.127a3 3 0 00-3.43 3.43l.127.804-.659.48a3 3 0 000 4.85l.659.48-.127.804a3 3 0 003.43 3.43l.804-.127.48.659a3 3 0 004.85 0l.48-.659.804.127a3 3 0 003.43-3.43l-.127-.804.659-.48a3 3 0 000-4.85l-.659-.48.127-.804a3 3 0 00-3.43-3.43l-.804.127z"/></symbol><symbol fill="none" viewBox="0 0 24 24" id="volume" xmlns="http://www.w3.org/2000/svg"><path stroke="currentColor" stroke-linejoin="round" stroke-width="2" d="M10 9H7v6h3l5 4V5l-5 4z"/></symbol><symbol fill="none" viewBox="0 0 24 24" id="volume-1" xmlns="http://www.w3.org/2000/svg"><g stroke="currentColor" stroke-width="2"><path stroke-linejoin="round" d="M8 9H5v6h3l5 4V5L8 9z"/><path stroke-linecap="round" d="M17 8a5.657 5.657 0 010 8"/></g></symbol><symbol fill="none" viewBox="0 0 24 24" id="volume-2" xmlns="http://www.w3.org/2000/svg"><g stroke="currentColor" stroke-width="2"><path stroke-linejoin="round" d="M6 9H3v6h3l5 4V5L6 9z"/><path stroke-linecap="round" d="M18.5 5.5a9.192 9.192 0 010 13M15 8a5.657 5.657 0 010 8"/></g></symbol><symbol fill="none" viewBox="0 0 24 24" id="volume-off" xmlns="http://www.w3.org/2000/svg"><g stroke="currentColor" stroke-width="2"><path stroke-linejoin="round" d="M7 9H4v6h3l5 4V5L7 9z"/><path stroke-linecap="round" d="M16 9.5l5 5M21 9.5l-5 5"/></g></symbol><symbol fill="none" viewBox="0 0 24 24" id="zoom-in" xmlns="http://www.w3.org/2000/svg"><g stroke="currentColor" stroke-width="2"><path d="M16 10a6 6 0 11-12 0 6 6 0 0112 0z"/><path stroke-linecap="round" d="M20 20l-5-5m-7.5-5H10m0 0h2.5M10 10v2.5m0-2.5V7.5"/></g></symbol><symbol fill="none" viewBox="0 0 24 24" id="zoom-out" xmlns="http://www.w3.org/2000/svg"><g stroke="currentColor" stroke-width="2"><path d="M16 10a6 6 0 11-12 0 6 6 0 0112 0z"/><path stroke-linecap="round" d="M20 20l-5-5m-7.5-5h5"/></g></symbol></svg>