<?xml version="1.0" encoding="utf-8"?><svg xmlns="http://www.w3.org/2000/svg" xmlns:xlink="http://www.w3.org/1999/xlink"><symbol fill="none" stroke="currentColor" viewBox="0 0 24 24" id="align-objects-bottom" xmlns="http://www.w3.org/2000/svg"><g stroke-linecap="round" stroke-width="2"><path d="M20 20H4M12 17V6M15 14l-3 3-3-3"/></g></symbol><symbol fill="none" stroke="currentColor" viewBox="0 0 24 24" id="align-objects-center" xmlns="http://www.w3.org/2000/svg"><g stroke-linecap="round" stroke-width="2"><path d="M12 4v16M16 12h5M18 9l-3 3 3 3M8 12H3M6 9l3 3-3 3"/></g></symbol><symbol fill="none" stroke="currentColor" viewBox="0 0 24 24" id="align-objects-left" xmlns="http://www.w3.org/2000/svg"><g stroke-linecap="round" stroke-width="2"><path d="M4 4v16M7 12h11M10 9l-3 3 3 3"/></g></symbol><symbol fill="none" stroke="currentColor" viewBox="0 0 24 24" id="align-objects-middle" xmlns="http://www.w3.org/2000/svg"><g stroke-linecap="round" stroke-width="2"><path d="M4 12h16M12 8V3M9 6l3 3 3-3M12 16v5M9 18l3-3 3 3"/></g></symbol><symbol fill="none" stroke="currentColor" viewBox="0 0 24 24" id="align-objects-right" xmlns="http://www.w3.org/2000/svg"><g stroke-linecap="round" stroke-width="2"><path d="M20 4v16M17 12H6M14 9l3 3-3 3"/></g></symbol><symbol fill="none" stroke="currentColor" viewBox="0 0 24 24" id="align-objects-top" xmlns="http://www.w3.org/2000/svg"><g stroke-linecap="round" stroke-width="2"><path d="M20 4H4M12 7v11M15 10l-3-3-3 3"/></g></symbol><symbol fill="none" stroke="currentColor" viewBox="0 0 24 24" id="arrow-down" xmlns="http://www.w3.org/2000/svg"><g stroke-linecap="round" stroke-width="2"><path d="M12 4v16M6 14l6 6 6-6"/></g></symbol><symbol fill="none" viewBox="0 0 24 24" id="arrow-go-back" xmlns="http://www.w3.org/2000/svg"><g stroke="currentColor" stroke-linecap="round" stroke-width="2"><path d="M11 18h3.75c2.9 0 5.25-2.35 5.25-5.25v0c0-2.9-2.35-5.25-5.25-5.25H5"/><path d="M7.5 4L4 7.5 7.5 11"/></g></symbol><symbol fill="none" viewBox="0 0 24 24" id="arrow-go-forward" xmlns="http://www.w3.org/2000/svg"><g stroke="currentColor" stroke-linecap="round" stroke-width="2"><path d="M13 18H9.25A5.25 5.25 0 014 12.75v0C4 9.85 6.35 7.5 9.25 7.5H19"/><path d="M16.5 4L20 7.5 16.5 11"/></g></symbol><symbol fill="none" stroke="currentColor" viewBox="0 0 24 24" id="arrow-left" xmlns="http://www.w3.org/2000/svg"><g stroke-linecap="round" stroke-width="2"><path d="M20 12H4M10 6l-6 6 6 6"/></g></symbol><symbol fill="none" stroke="currentColor" viewBox="0 0 24 24" id="arrow-right" xmlns="http://www.w3.org/2000/svg"><g stroke-linecap="round" stroke-width="2"><path d="M4 12h16M14 18l6-6-6-6"/></g></symbol><symbol fill="none" stroke="currentColor" viewBox="0 0 24 24" id="arrow-up" xmlns="http://www.w3.org/2000/svg"><g stroke-linecap="round" stroke-width="2"><path d="M12 20V4M18 10l-6-6-6 6"/></g></symbol><symbol viewBox="0 0 24 24" id="arrows" xmlns="http://www.w3.org/2000/svg"><g fill="currentColor"><path d="M4 12l-.707-.707-.707.707.707.707L4 12zm16 0l.707.707.707-.707-.707-.707L20 12zm-3.207 1.793a1 1 0 001.414 1.414l-1.414-1.414zm1.414-5a1 1 0 10-1.414 1.414l1.414-1.414zm-11 1.414a1 1 0 00-1.414-1.414l1.414 1.414zm-1.414 5a1 1 0 001.414-1.414l-1.414 1.414zM4 13h16v-2H4v2zm14.207 2.207l2.5-2.5-1.414-1.414-2.5 2.5 1.414 1.414zm-1.414-5l2.5 2.5 1.414-1.414-2.5-2.5-1.414 1.414zm-11-1.414l-2.5 2.5 1.414 1.414 2.5-2.5-1.414-1.414zm1.414 5l-2.5-2.5-1.414 1.414 2.5 2.5 1.414-1.414z"/><path fill-rule="evenodd" d="M11.293 20.707l.707.707.707-.707 2.5-2.5a1 1 0 00-1.414-1.414l-.793.793V14h-2v3.586l-.793-.793a1 1 0 00-1.414 1.414l2.5 2.5zM11 10V6.414l-.793.793a1 1 0 01-1.414-1.414l2.5-2.5.707-.707.707.707 2.5 2.5a1 1 0 01-1.414 1.414L13 6.414V10h-2z" clip-rule="evenodd"/></g></symbol><symbol fill="none" viewBox="0 0 24 24" id="ban" xmlns="http://www.w3.org/2000/svg"><g stroke="currentColor" stroke-width="2"><circle cx="12" cy="12" r="9"/><path d="M5.5 5.5l13 13"/></g></symbol><symbol fill="currentColor" viewBox="0 0 24 24" id="bars" xmlns="http://www.w3.org/2000/svg"><rect width="18" height="2" x="3" y="5" rx="1"/><path d="M3 12a1 1 0 011-1h16a1 1 0 110 2H4a1 1 0 01-1-1z"/><rect width="18" height="2" x="3" y="17" rx="1"/></symbol><symbol fill="none" viewBox="0 0 24 24" id="bell" xmlns="http://www.w3.org/2000/svg"><path fill="currentColor" d="M5 16a1 1 0 100 2v-2zm14 2a1 1 0 100-2v2zm-2-1h-1v1h1v-1zM7 17v1h1v-1H7zm-2 1h14v-2H5v2zm14-2h-2v2h2v-2zm-1 1v-6h-2v6h2zM6 11v6h2v-6H6zm1 5H5v2h2v-2zm1-5a4 4 0 014-4V5a6 6 0 00-6 6h2zm10 0a6 6 0 00-6-6v2a4 4 0 014 4h2zM10 19.5a2 2 0 104 0h-4zm0-.5v.5h4V19h-4z"/><path stroke="currentColor" stroke-linejoin="round" stroke-width="2" d="M11.5 6V4h1v2"/></symbol><symbol fill="none" viewBox="0 0 24 24" id="bookmark" xmlns="http://www.w3.org/2000/svg"><path stroke="currentColor" stroke-linejoin="round" stroke-width="2" d="M6 20V5a1 1 0 011-1h10a1 1 0 011 1v15l-6-3-6 3z"/></symbol><symbol fill="none" stroke="currentColor" viewBox="0 0 24 24" id="brush-big" xmlns="http://www.w3.org/2000/svg"><g stroke-width="2"><path d="M6 16l4.5 4.5 4-4a.707.707 0 011 0v0a.707.707 0 001 0l2.293-2.293a1 1 0 000-1.414l-2.086-2.086a1 1 0 010-1.414l3.586-3.586a1 1 0 000-1.414l-.586-.586a1 1 0 00-1.414 0l-3.586 3.586a1 1 0 01-1.414 0l-2.086-2.086a1 1 0 00-1.414 0L7.5 7.5a.707.707 0 000 1v0a.707.707 0 010 1l-4 4L6 16zm0 0l2.5-2.5M7.5 8.5l8 8"/></g></symbol><symbol fill="none" viewBox="0 0 24 24" id="camera" xmlns="http://www.w3.org/2000/svg"><g stroke="currentColor" stroke-width="2"><path d="M20 17V8a1 1 0 00-1-1h-2.382a1 1 0 01-.894-.553l-.448-.894A1 1 0 0014.382 5H9.618a1 1 0 00-.894.553l-.448.894A1 1 0 017.382 7H5a1 1 0 00-1 1v9a1 1 0 001 1h14a1 1 0 001-1z"/><circle cx="12" cy="12" r="3"/></g></symbol><symbol fill="none" viewBox="0 0 24 24" id="camera-off" xmlns="http://www.w3.org/2000/svg"><path stroke="currentColor" stroke-linecap="round" stroke-width="2" d="M4 4l16 16"/><path fill="currentColor" fill-rule="evenodd" d="M9.172 9.172a4 4 0 005.657 5.657l-1.415-1.415a2 2 0 11-2.828-2.828L9.172 9.172zm6.692 3.864l-4.9-4.9a4 4 0 014.9 4.9z" clip-rule="evenodd"/><path fill="currentColor" fill-rule="evenodd" d="M6 6H5a2 2 0 00-2 2v9a2 2 0 002 2h14l-2-2H5V8h2.382c.186 0 .369-.026.543-.075L6 6zm13 10.172V8h-2.382a2 2 0 01-1.789-1.106L14.382 6H9.618l-.263.526-1.49-1.49A2 2 0 019.618 4h4.764a2 2 0 011.789 1.106l.447.894H19a2 2 0 012 2v9c0 .34-.084.659-.233.938l-.06-.06L19 16.173zm1.09 2.505l-.09-.091c.026.026.05.06.073.102l.018-.011z" clip-rule="evenodd"/></symbol><symbol fill="none" viewBox="0 0 24 24" id="camera-video" xmlns="http://www.w3.org/2000/svg"><g stroke="currentColor" stroke-width="2"><path d="M16 16V8a1 1 0 00-1-1H5a1 1 0 00-1 1v8a1 1 0 001 1h10a1 1 0 001-1z"/><path stroke-linejoin="round" d="M20 7l-4 3v4l4 3V7z"/></g></symbol><symbol fill="none" viewBox="0 0 24 24" id="camera-video-off" xmlns="http://www.w3.org/2000/svg"><path stroke="currentColor" stroke-linejoin="round" stroke-width="2" d="M20 7l-4 3v4l4 3V7z"/><path stroke="currentColor" stroke-linecap="round" stroke-width="2" d="M3 5l14 14"/><path fill="currentColor" fill-rule="evenodd" d="M4.622 6.036A2 2 0 003 8v8a2 2 0 002 2h10c.447 0 .86-.146 1.192-.394L14.586 16H5V8h1.586L4.622 6.036zM15 13.586V8H9.414l-2-2H15a2 2 0 012 2v7.586l-2-2z" clip-rule="evenodd"/></symbol><symbol fill="none" viewBox="0 0 24 24" id="cart" xmlns="http://www.w3.org/2000/svg"><circle cx="7.5" cy="18.5" r="1.5" fill="currentColor"/><circle cx="16.5" cy="18.5" r="1.5" fill="currentColor"/><path stroke="currentColor" stroke-linecap="round" stroke-linejoin="round" stroke-width="2" d="M3 5h2l.6 3m0 0L7 15h10l2-7H5.6z"/></symbol><symbol fill="none" viewBox="0 0 24 24" id="chat" xmlns="http://www.w3.org/2000/svg"><g fill="currentColor"><path d="M4 19l-.93-.37a1 1 0 001.125 1.35L4 19zm4.706-.936l.474-.881-.317-.17-.352.07.195.98zm-3.082-3.147l.93.37.163-.414-.196-.399-.897.443zM19 12c0 3.246-2.853 6-6.53 6v2c4.641 0 8.53-3.514 8.53-8h-2zM5.941 12c0-3.246 2.854-6 6.53-6V4C7.83 4 3.94 7.514 3.94 12h2zm6.53-6C16.147 6 19 8.754 19 12h2c0-4.486-3.889-8-8.53-8v2zm0 12c-1.205 0-2.328-.3-3.291-.817l-.948 1.761A8.934 8.934 0 0012.471 20v-2zm-8.276 1.98l4.706-.936-.39-1.961-4.706.936.39 1.962zm2.326-5.506A5.564 5.564 0 015.94 12h-2c0 1.2.282 2.338.786 3.36l1.794-.886zm-1.826.073L3.07 18.631l1.858.738 1.624-4.083-1.858-.739z"/><circle cx="9" cy="12" r="1"/><circle cx="12.5" cy="12" r="1"/><circle cx="16" cy="12" r="1"/></g></symbol><symbol fill="none" viewBox="0 0 24 24" id="chats" xmlns="http://www.w3.org/2000/svg"><g fill="currentColor"><path d="M3 15l-.925-.38a1 1 0 001.114 1.362L3 15zm3.824-.736l.46-.887-.308-.16-.341.065.189.982zm-2.505-2.472l.925.38.175-.425-.209-.41-.89.455zM15 9.5c0 2.388-2.188 4.5-5.118 4.5v2C13.711 16 17 13.187 17 9.5h-2zm-10.235 0c0-2.388 2.188-4.5 5.117-4.5V3C6.054 3 2.765 5.813 2.765 9.5h2zM9.882 5C12.812 5 15 7.112 15 9.5h2C17 5.813 13.71 3 9.882 3v2zm0 9c-.953 0-1.84-.23-2.597-.623l-.923 1.774a7.623 7.623 0 003.52.849v-2zM3.19 15.982l3.824-.736-.378-1.964-3.824.736.378 1.964zm2.021-4.645A4.019 4.019 0 014.765 9.5h-2c0 .982.239 1.914.664 2.746l1.781-.909zm-1.815.074l-1.32 3.209 1.85.76 1.32-3.208-1.85-.76z"/><circle r="1" transform="matrix(-1 0 0 1 13 9.5)"/><circle r="1" transform="matrix(-1 0 0 1 10 9.5)"/><circle r="1" transform="matrix(-1 0 0 1 7 9.5)"/><path fill-rule="evenodd" d="M17.957 10.285c.803.807 1.278 1.86 1.278 2.972 0 .653-.158 1.274-.445 1.837l-.21.41.176.425.615 1.496-2.006-.386-.341-.066-.309.16a5.623 5.623 0 01-2.597.624 5.541 5.541 0 01-2.97-.834 8.6 8.6 0 01-3.006-.126c1.286 1.803 3.52 2.96 5.976 2.96a7.653 7.653 0 003.197-.691l3.496.673a1 1 0 001.114-1.363l-1.154-2.805c.3-.718.464-1.498.464-2.314 0-2.42-1.417-4.464-3.474-5.583a7.072 7.072 0 01.196 2.61z" clip-rule="evenodd"/></g></symbol><symbol fill="none" viewBox="0 0 24 24" id="check" xmlns="http://www.w3.org/2000/svg"><path fill="currentColor" d="M5.707 13.293a1 1 0 00-1.414 1.414l1.414-1.414zM9 18l-.707.707a1 1 0 001.414 0L9 18zm10.707-9.293a1 1 0 00-1.414-1.414l1.414 1.414zm-15.414 6l4 4 1.414-1.414-4-4-1.414 1.414zm5.414 4l10-10-1.414-1.414-10 10 1.414 1.414z"/></symbol><symbol fill="none" stroke="currentColor" viewBox="0 0 24 24" id="chevron-down" xmlns="http://www.w3.org/2000/svg"><path stroke-linecap="round" stroke-width="2" d="M5 10l7 7 7-7"/></symbol><symbol fill="none" stroke="currentColor" viewBox="0 0 24 24" id="chevron-left" xmlns="http://www.w3.org/2000/svg"><path stroke-linecap="round" stroke-width="2" d="M14 5l-7 7 7 7"/></symbol><symbol fill="none" stroke="currentColor" viewBox="0 0 24 24" id="chevron-right" xmlns="http://www.w3.org/2000/svg"><path stroke-linecap="round" stroke-width="2" d="M10 5l7 7-7 7"/></symbol><symbol fill="none" stroke="currentColor" viewBox="0 0 24 24" id="chevron-up" xmlns="http://www.w3.org/2000/svg"><path stroke-linecap="round" stroke-width="2" d="M5 14l7-7 7 7"/></symbol><symbol fill="none" viewBox="0 0 24 24" id="cloud" xmlns="http://www.w3.org/2000/svg"><path stroke="currentColor" stroke-width="2" d="M7.5 16a3.5 3.5 0 11.87-6.891A5.002 5.002 0 0118 11v.05a2.5 2.5 0 01-.5 4.95h-10z"/></symbol><symbol fill="none" viewBox="0 0 24 24" id="code" xmlns="http://www.w3.org/2000/svg"><g stroke="currentColor" stroke-linecap="round" stroke-width="2"><path stroke-linejoin="round" d="M7 8l-4 4 4 4"/><path d="M10.5 18l3-12"/><path stroke-linejoin="round" d="M17 8l4 4-4 4"/></g></symbol><symbol fill="none" stroke="currentColor" viewBox="0 0 24 24" id="cog" xmlns="http://www.w3.org/2000/svg"><path fill="currentColor" d="M13 13.731a2 2 0 11-2-3.462 2 2 0 112 3.462z" stroke="none"/><path stroke-width="2" d="M18.005 15.98l-.482-.006-.306.373c-.274.335-.58.645-.916.924l-.366.306.007.477.021 1.486a1 1 0 01-.737.98l-1.819.495a1 1 0 01-1.139-.484l-.699-1.272-.233-.425-.478-.08a6.7 6.7 0 01-1.244-.335l-.454-.17-.415.252-1.243.753a1 1 0 01-1.228-.151l-1.328-1.338a1 1 0 01-.148-1.217l.762-1.278.245-.41-.165-.447c-.15-.409-.26-.83-.332-1.259l-.078-.475-.421-.234-1.273-.71a1 1 0 01-.479-1.133l.5-1.863a1 1 0 01.98-.741l1.458.021.482.007.306-.373c.275-.335.58-.645.916-.924l.366-.306-.007-.477-.021-1.486a1 1 0 01.737-.98l1.819-.494a1 1 0 011.139.483l.699 1.273.233.424.478.08a6.72 6.72 0 011.244.335l.454.17.415-.251 1.243-.754a1 1 0 011.228.151l1.328 1.338a1 1 0 01.148 1.217L18.44 8.73l-.245.41.165.447c.148.405.261.832.332 1.259l.078.475.421.234 1.273.71a1 1 0 01.479 1.133l-.5 1.863a1 1 0 01-.98.741l-1.458-.021v-.001z"/></symbol><symbol fill="none" stroke="currentColor" viewBox="0 0 24 24" id="desktop" xmlns="http://www.w3.org/2000/svg"><g stroke-width="2"><path d="M20 5H4a1 1 0 00-1 1v9a1 1 0 001 1h16a1 1 0 001-1V6a1 1 0 00-1-1zM8 20h8M12 20v-5"/></g></symbol><symbol fill="none" stroke="currentColor" viewBox="0 0 24 24" id="document" xmlns="http://www.w3.org/2000/svg"><g stroke-linejoin="round" stroke-width="2"><path d="M5 20V4a1 1 0 011-1h6.172a2 2 0 011.414.586l4.828 4.828A2 2 0 0119 9.828V20a1 1 0 01-1 1H6a1 1 0 01-1-1z"/><path d="M12 3v6a1 1 0 001 1h6"/></g></symbol><symbol fill="none" stroke="currentColor" viewBox="0 0 24 24" id="document-add" xmlns="http://www.w3.org/2000/svg"><g stroke-linejoin="round" stroke-width="2"><path d="M15 15H9M12 18v-6M5 20V4a1 1 0 011-1h6.172a2 2 0 011.414.586l4.828 4.828A2 2 0 0119 9.828V20a1 1 0 01-1 1H6a1 1 0 01-1-1z"/><path d="M12 3v6a1 1 0 001 1h6"/></g></symbol><symbol fill="none" viewBox="0 0 24 24" id="documents" xmlns="http://www.w3.org/2000/svg"><path stroke="currentColor" stroke-linejoin="round" stroke-width="2" d="M8 16V4a1 1 0 011-1h5.06a1 1 0 01.737.324l4.94 5.39a1 1 0 01.263.675V16a1 1 0 01-1 1H9a1 1 0 01-1-1z"/><path stroke="currentColor" stroke-linejoin="round" stroke-width="2" d="M13 3v7h7"/><path fill="currentColor" fill-rule="evenodd" d="M6 6H5a2 2 0 00-2 2v12a2 2 0 002 2h9a2 2 0 002-2v-1h-2v1H5V8h1V6z" clip-rule="evenodd"/></symbol><symbol fill="currentColor" viewBox="0 0 24 24" id="dots-horizontal" xmlns="http://www.w3.org/2000/svg"><rect width="4" height="4" x="3" y="10" rx="2"/><rect width="4" height="4" x="10" y="10" rx="2"/><rect width="4" height="4" x="17" y="10" rx="2"/></symbol><symbol fill="none" viewBox="0 0 24 24" id="download" xmlns="http://www.w3.org/2000/svg"><g stroke="currentColor" stroke-linecap="round" stroke-width="2"><path d="M12 11.5V20M15 17l-3 3-3-3M17.5 14a2.5 2.5 0 00.5-4.95V9a5 5 0 00-9.63-1.891 3.5 3.5 0 00-1.87 6.746"/></g></symbol><symbol fill="none" viewBox="0 0 24 24" id="download-alt" xmlns="http://www.w3.org/2000/svg"><g stroke="currentColor" stroke-width="2"><path stroke-linecap="round" d="M12 6v8.5M15 11.5l-3 3-3-3"/><path d="M5 15v2a2 2 0 002 2h10a2 2 0 002-2v-2"/></g></symbol><symbol fill="none" viewBox="0 0 24 24" id="exchange-horizontal" xmlns="http://www.w3.org/2000/svg"><g stroke="currentColor" stroke-linecap="round" stroke-width="2"><path d="M4 16h12M7.5 12.5L4 16l3.5 3.5M7 8h13M16.5 4.5L20 8l-3.5 3.5"/></g></symbol><symbol fill="none" viewBox="0 0 24 24" id="exchange-vertical" xmlns="http://www.w3.org/2000/svg"><g stroke="currentColor" stroke-linecap="round" stroke-width="2"><path d="M16 20V8M12.5 16.5L16 20l3.5-3.5M8 17V4M4.5 7.5L8 4l3.5 3.5"/></g></symbol><symbol viewBox="0 0 24 24" id="exclamation" xmlns="http://www.w3.org/2000/svg"><g fill="currentColor"><path d="M9.413 5.971l1.07 7.708a1.531 1.531 0 003.034 0l1.07-7.708a2.612 2.612 0 10-5.174 0z"/><circle cx="12" cy="19" r="2"/></g></symbol><symbol fill="none" viewBox="0 0 24 24" id="exclamation-triangle" xmlns="http://www.w3.org/2000/svg"><path stroke="currentColor" stroke-width="2" d="M10.245 4.208c.759-1.387 2.751-1.387 3.51 0l7.018 12.832c.73 1.333-.235 2.96-1.754 2.96H4.98c-1.519 0-2.483-1.627-1.754-2.96l7.018-12.832z"/><path fill="currentColor" d="M10.615 8.996l.314 4.08a1 1 0 00.997.924h.148a1 1 0 00.997-.923l.314-4.081a1.39 1.39 0 10-2.77 0z"/><circle cx="12" cy="16.5" r="1.5" fill="currentColor"/></symbol><symbol fill="none" viewBox="0 0 24 24" id="expand" xmlns="http://www.w3.org/2000/svg"><g fill="currentColor"><path d="M4 4V3H3v1h1zm4.793 6.207a1 1 0 001.414-1.414l-1.414 1.414zM8.5 5a1 1 0 000-2v2zM3 8.5a1 1 0 002 0H3zm.293-3.793l5.5 5.5 1.414-1.414-5.5-5.5-1.414 1.414zM4 5h4.5V3H4v2zM3 4v4.5h2V4H3zM20 4h1V3h-1v1zm-1 5a1 1 0 102 0h-2zm-3.5-6a1 1 0 100 2V3zm-1.707 5.793a1 1 0 001.414 1.414l-1.414-1.414zM19 4v5h2V4h-2zm1-1h-4.5v2H20V3zm-.707.293l-5.5 5.5 1.414 1.414 5.5-5.5-1.414-1.414zM4 20H3v1h1v-1zm4.5 1a1 1 0 100-2v2zm1.707-5.793a1 1 0 00-1.414-1.414l1.414 1.414zM5 15.5a1 1 0 10-2 0h2zM4 21h4.5v-2H4v2zm.707-.293l5.5-5.5-1.414-1.414-5.5 5.5 1.414 1.414zM5 20v-4.5H3V20h2zM20 20v1h1v-1h-1zm-4.793-6.207a1 1 0 00-1.414 1.414l1.414-1.414zM21 15.5a1 1 0 10-2 0h2zM15.5 19a1 1 0 100 2v-2zm5.207.293l-5.5-5.5-1.414 1.414 5.5 5.5 1.414-1.414zM21 20v-4.5h-2V20h2zm-1-1h-4.5v2H20v-2z"/></g></symbol><symbol fill="none" viewBox="0 0 24 24" id="folder" xmlns="http://www.w3.org/2000/svg"><path stroke="currentColor" stroke-linejoin="round" stroke-width="2" d="M3 18V6a2 2 0 012-2h4.539a2 2 0 011.562.75L12.2 6.126a1 1 0 00.78.375H20a1 1 0 011 1V18a1 1 0 01-1 1H4a1 1 0 01-1-1z"/></symbol><symbol fill="none" viewBox="0 0 24 24" id="folder-add" xmlns="http://www.w3.org/2000/svg"><g stroke="currentColor" stroke-width="2"><path stroke-linejoin="round" d="M3 18V6a2 2 0 012-2h4.539a2 2 0 011.562.75L12.2 6.126a1 1 0 00.78.375H20a1 1 0 011 1V18a1 1 0 01-1 1H4a1 1 0 01-1-1z"/><path stroke-linecap="round" d="M9.5 12.5h5M12 15v-5"/></g></symbol><symbol fill="none" viewBox="0 0 24 24" id="folder-open" xmlns="http://www.w3.org/2000/svg"><path stroke="currentColor" stroke-linejoin="round" stroke-width="2" d="M20 10H7v7a2 2 0 01-2 2h13a2 2 0 002-2v-7z"/><path fill="currentColor" fill-rule="evenodd" d="M4 6a1 1 0 011-1h2.172a1 1 0 01.707.293L9 6.414A2 2 0 0010.414 7H16v1h2V7a2 2 0 00-2-2h-5.586L9.293 3.879A3 3 0 007.172 3H5a3 3 0 00-3 3v11a3 3 0 003 3h11a2 2 0 001.732-1H10v-1H5a1 1 0 01-1-1V6z" clip-rule="evenodd"/></symbol><symbol fill="none" viewBox="0 0 24 24" id="folder-remove" xmlns="http://www.w3.org/2000/svg"><g stroke="currentColor" stroke-width="2"><path stroke-linejoin="round" d="M3 18V6a2 2 0 012-2h4.539a2 2 0 011.562.75L12.2 6.126a1 1 0 00.78.375H20a1 1 0 011 1V18a1 1 0 01-1 1H4a1 1 0 01-1-1z"/><path stroke-linecap="round" d="M9.5 12.5h5"/></g></symbol><symbol fill="none" viewBox="0 0 24 24" id="funnel" xmlns="http://www.w3.org/2000/svg"><path stroke="currentColor" stroke-linejoin="round" stroke-width="2" d="M20 4H4v2l6 6v8.5l4-2.5v-6l6-6V4z"/></symbol><symbol viewBox="0 0 24 24" id="heading" xmlns="http://www.w3.org/2000/svg"><path fill="currentColor" d="M7 6H6a1 1 0 010-2h4a1 1 0 110 2H9v6h8V6h-1a1 1 0 110-2h4a1 1 0 110 2h-1v14h1a1 1 0 110 2h-4a1 1 0 110-2h1v-6H9v6h1a1 1 0 110 2H6a1 1 0 110-2h1V6z"/></symbol><symbol fill="none" viewBox="0 0 24 24" id="heart" xmlns="http://www.w3.org/2000/svg"><path stroke="currentColor" stroke-width="2" d="M12 8c-1.574-1.635-4.46-2.135-6.035-.5-1.573 1.635-1.34 3.836 0 5.752C7.306 15.168 9.41 16.89 12 19c2.59-2.11 4.694-3.832 6.035-5.748 1.34-1.916 1.573-4.117 0-5.752C16.46 5.865 13.574 6.365 12 8z"/></symbol><symbol fill="none" viewBox="0 0 24 24" id="humbleicon" xmlns="http://www.w3.org/2000/svg"><path fill="currentColor" fill-rule="evenodd" d="M12 20a8 8 0 100-16 8 8 0 000 16zM11 9a1 1 0 11-2 0 1 1 0 012 0zm3 4a1 1 0 100-2 1 1 0 000 2zm0 3a1 1 0 100-2 1 1 0 000 2zm-4-3a1 1 0 100-2 1 1 0 000 2zm1 2a1 1 0 11-2 0 1 1 0 012 0z" clip-rule="evenodd"/></symbol><symbol fill="none" viewBox="0 0 24 24" id="image" xmlns="http://www.w3.org/2000/svg"><path stroke="currentColor" stroke-width="2" d="M21 19V5a1 1 0 00-1-1H4a1 1 0 00-1 1v14a1 1 0 001 1h16a1 1 0 001-1z"/><circle cx="15.5" cy="8.5" r="1.5" fill="currentColor"/><path stroke="currentColor" stroke-linecap="round" stroke-linejoin="round" stroke-width="2" d="M15.5 15.5L9.5 9 3 17"/><path fill="currentColor" d="M17 12l.707-.707a1 1 0 00-1.414 0L17 12zm3.293 4.707a1 1 0 001.414-1.414l-1.414 1.414zm-4-4l4 4 1.414-1.414-4-4-1.414 1.414zm-1.086 2.5l2.5-2.5-1.414-1.414-2.5 2.5 1.414 1.414z"/></symbol><symbol fill="none" viewBox="0 0 24 24" id="images" xmlns="http://www.w3.org/2000/svg"><path stroke="currentColor" stroke-width="2" d="M17 19V9a1 1 0 00-1-1H4a1 1 0 00-1 1v10a1 1 0 001 1h12a1 1 0 001-1z"/><circle cx="12" cy="11" r="1" fill="currentColor"/><path stroke="currentColor" stroke-linecap="round" stroke-linejoin="round" stroke-width="2" d="M12 17.063L7.68 13 3 18"/><path fill="currentColor" d="M13.923 14l.698-.716a1 1 0 00-1.396 0l.698.716zm2.379 3.716a1 1 0 101.396-1.432l-1.396 1.432zm-3.077-3l3.077 3 1.396-1.432-3.077-3-1.396 1.432zm-.527 1.875l1.923-1.875-1.396-1.432-1.923 1.875 1.396 1.432z"/><path fill="currentColor" fill-rule="evenodd" d="M20.059 4.929v9.142h-.883v2h.883a2 2 0 002-2V4.93a2 2 0 00-2-2H7.94a2 2 0 00-2 2v.857h2V4.93h12.12z" clip-rule="evenodd"/></symbol><symbol fill="none" viewBox="0 0 24 24" id="minus-circle" xmlns="http://www.w3.org/2000/svg"><g stroke="currentColor" stroke-width="2"><path stroke-linecap="round" d="M16 12H8"/><circle cx="12" cy="12" r="9"/></g></symbol><symbol fill="none" stroke="currentColor" viewBox="0 0 24 24" stroke-width="2" id="mobile" xmlns="http://www.w3.org/2000/svg"><path d="M17 19V5a1 1 0 00-1-1H8a1 1 0 00-1 1v14a1 1 0 001 1h8a1 1 0 001-1z"/><path stroke-linecap="round" d="M10 17h4"/></symbol><symbol fill="none" viewBox="0 0 24 24" id="plus" xmlns="http://www.w3.org/2000/svg"><g stroke="currentColor" stroke-linecap="round" stroke-width="2"><path d="M12 19V5M19 12H5"/></g></symbol><symbol fill="none" stroke="currentColor" viewBox="0 0 24 24" id="plus-circle" xmlns="http://www.w3.org/2000/svg"><g stroke-width="2"><path stroke-linecap="round" d="M12 16V8M16 12H8"/><circle cx="12" cy="12" r="9"/></g></symbol><symbol fill="none" viewBox="0 0 24 24" id="refresh" xmlns="http://www.w3.org/2000/svg"><g clip-path="url(#clip0)"><path fill="currentColor" d="M3.07 13.124a1 1 0 011.985-.248l-1.985.248zm3.98 3.826a7 7 0 009.9 0l1.414 1.414a9 9 0 01-12.728 0L7.05 16.95zm9.9 0l2.121-2.122 1.414 1.415-2.121 2.12-1.414-1.413zM5.055 12.876A6.965 6.965 0 007.05 16.95l-1.414 1.414a8.965 8.965 0 01-2.566-5.24l1.985-.248z"/><path stroke="currentColor" stroke-linecap="round" stroke-width="2" d="M19.778 20v-4.464H15"/><path fill="currentColor" d="M20.93 10.876a1 1 0 01-1.985.248l1.985-.248zM16.95 7.05a7 7 0 00-9.9 0L5.636 5.636a9 9 0 0112.728 0L16.95 7.05zm-9.9 0L4.93 9.172 3.515 7.757l2.121-2.121L7.05 7.05zm11.895 4.074A6.965 6.965 0 0016.95 7.05l1.414-1.414a8.966 8.966 0 012.566 5.24l-1.985.248z"/><path stroke="currentColor" stroke-linecap="round" stroke-width="2" d="M4.222 4v4.464H9"/></g></symbol><symbol fill="none" stroke="currentColor" viewBox="0 0 24 24" id="search" xmlns="http://www.w3.org/2000/svg"><g stroke-width="2"><path stroke-linecap="round" d="M20 20l-6-6"/><circle cx="9.5" cy="9.5" r="5.5"/></g></symbol><symbol fill="none" viewBox="0 0 24 24" id="star" xmlns="http://www.w3.org/2000/svg"><path stroke="currentColor" stroke-linejoin="round" stroke-width="2" d="M12.951 3.691a1 1 0 00-1.902 0L9.477 8.528H4.392a1 1 0 00-.588 1.809l4.114 2.99-1.571 4.836a1 1 0 001.538 1.118L12 16.291l4.114 2.99a1 1 0 001.54-1.118l-1.572-4.837 4.114-2.99a1 1 0 00-.588-1.808h-5.085L12.95 3.69z"/></symbol><symbol viewBox="0 0 24 24" id="text" xmlns="http://www.w3.org/2000/svg"><path fill="currentColor" d="M20 3H4v3a1 1 0 002 0V5h5v14h-1a1 1 0 100 2h4a1 1 0 100-2h-1V5h5v1a1 1 0 102 0V3z"/></symbol><symbol fill="none" viewBox="0 0 24 24" id="times" xmlns="http://www.w3.org/2000/svg"><g stroke="currentColor" stroke-linecap="round" stroke-width="2"><path d="M6 18L18 6M18 18L6 6"/></g></symbol><symbol fill="none" stroke="currentColor" viewBox="0 0 24 24" id="trash" xmlns="http://www.w3.org/2000/svg"><g stroke-width="2"><path d="M6 6l.934 13.071A1 1 0 007.93 20h8.138a1 1 0 00.997-.929L18 6"/><path stroke-linecap="round" stroke-linejoin="round" d="M12 11v4"/><path stroke-linejoin="round" d="M21 6H3"/><path d="M8.5 6l.544-1.632A2 2 0 0110.941 3h2.117a2 2 0 011.898 1.368L15.5 6"/></g></symbol><symbol fill="none" viewBox="0 0 24 24" id="upload" xmlns="http://www.w3.org/2000/svg"><g stroke="currentColor" stroke-linecap="round" stroke-width="2"><path d="M12 10v9M15 13l-3-3-3 3"/><path d="M17.5 15a2.5 2.5 0 00.5-4.95V10a5 5 0 00-9.63-1.891 3.5 3.5 0 00-1.87 6.746"/></g></symbol><symbol fill="none" viewBox="0 0 24 24" id="user" xmlns="http://www.w3.org/2000/svg"><g stroke="currentColor" stroke-width="2"><circle cx="12" cy="7" r="3"/><path stroke-linejoin="round" d="M6 16.75C6 14.679 7.919 13 10.286 13h3.428C16.081 13 18 14.679 18 16.75v1.5c0 .414-.384.75-.857.75H6.857C6.384 19 6 18.664 6 18.25v-1.5z"/></g></symbol><symbol fill="none" viewBox="0 0 24 24" id="user-add" xmlns="http://www.w3.org/2000/svg"><g stroke="currentColor" stroke-width="2"><circle cx="10" cy="7" r="3"/><path stroke-linejoin="round" d="M4 16.75C4 14.679 5.919 13 8.286 13h3.428C14.081 13 16 14.679 16 16.75v1.5c0 .414-.384.75-.857.75H4.857C4.384 19 4 18.664 4 18.25v-1.5z"/><path stroke-linecap="round" d="M15 10h6m-3 3V7"/></g></symbol><symbol fill="none" viewBox="0 0 24 24" id="user-remove" xmlns="http://www.w3.org/2000/svg"><g stroke="currentColor" stroke-width="2"><circle cx="10" cy="7" r="3"/><path stroke-linecap="round" d="M16 10h5"/><path stroke-linejoin="round" d="M4 16.75C4 14.679 5.919 13 8.286 13h3.428C14.081 13 16 14.679 16 16.75v1.5c0 .414-.384.75-.857.75H4.857C4.384 19 4 18.664 4 18.25v-1.5z"/></g></symbol><symbol fill="none" viewBox="0 0 24 24" id="users" xmlns="http://www.w3.org/2000/svg"><circle cx="9" cy="7" r="3" stroke="currentColor" stroke-width="2"/><path fill="currentColor" fill-rule="evenodd" d="M13.751 8.562a4.994 4.994 0 01-1.001 1.745 4 4 0 100-6.615 4.994 4.994 0 011.001 1.746 2 2 0 110 3.124zM16.977 20H21a1 1 0 001-1v-2a5 5 0 00-5-5h-2.613a6.064 6.064 0 011.78 2H17a3 3 0 013 3v1h-3v1.75c0 .086-.008.17-.023.25z" clip-rule="evenodd"/><path stroke="currentColor" stroke-linejoin="round" stroke-width="2" d="M3 16.75C3 14.679 4.919 13 7.286 13h3.428C13.081 13 15 14.679 15 16.75v1.5c0 .414-.384.75-.857.75H3.857C3.384 19 3 18.664 3 18.25v-1.5z"/></symbol></svg>