<svg xmlns="http://www.w3.org/2000/svg" class="humbleicons__icon" width="1em" height="1em" fill="none" stroke="currentColor" viewBox="0 0 24 24" style="top: .125em; position: relative;">
    <path d="M13 4a1 1 0 10-2 0h2zm-2 16a1 1 0 102 0h-2zm0-16v16h2V4h-2z"/>
    <path d="M6.707 10.707a1 1 0 01-1.414-1.414l1.414 1.414zM12 4l-.707-.707.707-.707.707.707L12 4zm6.707 5.293a1 1 0 01-1.414 1.414l1.414-1.414zm-13.414 0l6-6 1.414 1.414-6 6-1.414-1.414zm7.414-6l6 6-1.414 1.414-6-6 1.414-1.414z"/>
</svg>
