<svg xmlns="http://www.w3.org/2000/svg" class="humbleicons__icon" width="1em" height="1em" fill="none" stroke="currentColor" viewBox="0 0 24 24" style="top: .125em; position: relative;">
    <path d="M20 13a1 1 0 100-2v2zM4 11a1 1 0 100 2v-2zm16 0H4v2h16v-2z"/>
    <path d="M10.707 6.707a1 1 0 00-1.414-1.414l1.414 1.414zM4 12l-.707-.707-.707.707.707.707L4 12zm5.293 6.707a1 1 0 001.414-1.414l-1.414 1.414zm0-13.414l-6 6 1.414 1.414 6-6-1.414-1.414zm-6 7.414l6 6 1.414-1.414-6-6-1.414 1.414z"/>
</svg>
