<svg xmlns="http://www.w3.org/2000/svg" class="humbleicons__icon" width="1em" height="1em" fill="none" stroke="currentColor" viewBox="0 0 24 24" style="top: .125em; position: relative;">
  <g stroke="currentColor" stroke-width="2">
    <path d="M20.693 7.811L19.28 6.397a1 1 0 00-1.414 0l-3.536 3.535a1 1 0 01-1.414 0l-2.121-2.12a1 1 0 00-1.414 0l-2.652 2.65a.25.25 0 000 .354.25.25 0 010 .354l-3.359 3.359a1 1 0 000 1.414l7.778 7.778a1 1 0 001.415 0l3.358-3.359a.25.25 0 01.354 0 .25.25 0 00.354 0l2.651-2.651a1 1 0 000-1.415l-2.121-2.12a1 1 0 010-1.415l3.535-3.536a1 1 0 000-1.414z"/>
    <path d="M7.258 11.347l8.486 8.485"/>
    <path stroke-linecap="round" d="M7.965 16.296l-2.12 2.122"/>
  </g>
</svg>
