<svg xmlns="http://www.w3.org/2000/svg" class="humbleicons__icon" width="1em" height="1em" fill="none" stroke="currentColor" viewBox="0 0 24 24" style="top: .125em; position: relative;">
  <path stroke="none" fill="currentColor" d="M13 13.731a2 2 0 11-2-3.462 2 2 0 112 3.462z"/>
  <path stroke="currentColor" stroke-width="2" d="M18.005 15.98l-.482-.006-.306.373c-.274.335-.58.645-.916.924l-.366.306.007.477.021 1.486a1 1 0 01-.737.98l-1.819.495a1 1 0 01-1.139-.484l-.699-1.272-.233-.425-.478-.08a6.7 6.7 0 01-1.244-.335l-.454-.17-.415.252-1.243.753a1 1 0 01-1.228-.151l-1.328-1.338a1 1 0 01-.148-1.217l.762-1.278.245-.41-.165-.447c-.15-.409-.26-.83-.332-1.259l-.078-.475-.421-.234-1.273-.71a1 1 0 01-.479-1.133l.5-1.863a1 1 0 01.98-.741l1.458.021.482.007.306-.373c.275-.335.58-.645.916-.924l.366-.306-.007-.477-.021-1.486a1 1 0 01.737-.98l1.819-.494a1 1 0 011.139.483l.699 1.273.233.424.478.08a6.72 6.72 0 011.244.335l.454.17.415-.251 1.243-.754a1 1 0 011.228.151l1.328 1.338a1 1 0 01.148 1.217L18.44 8.73l-.245.41.165.447c.148.405.261.832.332 1.259l.078.475.421.234 1.273.71a1 1 0 01.479 1.133l-.5 1.863a1 1 0 01-.98.741l-1.458-.021v-.001z"/>
</svg>
