<svg class="humbleicons__icon" width="1em" height="1em"  viewBox="0 0 24 24" style="top: .125em; position: relative;" >
  <g stroke="currentColor" stroke-width="2">
    <circle cx="12" cy="12" r="2.83" transform="rotate(60 12 12)"/>
    <path d="M13.938 5.875l.117.467.438.2c.346.157.677.348.99.57l.392.279.462-.132 1.106-.317a1 1 0 011.141.462l.688 1.192a1 1 0 01-.17 1.22l-.827.798-.346.335.045.479a5.99 5.99 0 010 1.142l-.047.48.347.334.828.8a1 1 0 01.17 1.22l-.688 1.192a1 1 0 01-1.141.462l-1.107-.317-.462-.132-.392.278a6.093 6.093 0 01-.99.572l-.438.2-.116.466-.28 1.117a1 1 0 01-.97.758h-1.376a1 1 0 01-.97-.758l-.28-1.117-.117-.467-.438-.2a6 6 0 01-.99-.57l-.392-.279-.462.132-1.106.317a1 1 0 01-1.141-.462l-.688-1.192a1 1 0 01.17-1.22l.827-.798.346-.335-.045-.479a5.993 5.993 0 010-1.142l.047-.48-.347-.334-.828-.8a1 1 0 01-.17-1.22l.688-1.192a1 1 0 011.141-.462l1.107.317.462.132.392-.278a6.084 6.084 0 01.99-.572l.438-.2.116-.466.28-1.118a1 1 0 01.97-.757h1.376a1 1 0 01.97.757l.28 1.118z"/>
  </g>
</svg>
