<svg xmlns="http://www.w3.org/2000/svg" class="humbleicons__icon" width="1em" height="1em" fill="currentColor" stroke="none" viewBox="0 0 24 24" style="top: .125em; position: relative;">
  <path  d="M17 20a1 1 0 100-2v2zM7 18a1 1 0 100 2v-2zM5 6h14V4H5v2zm14 0v8h2V6h-2zM5 14V6H3v8h2zm7 0h-1v2h1v-2zm-1 0H5v2h6v-2zm-4 6h4v-2H7v2zm4 0h1v-2h-1v2zm-1-5v4h2v-4h-2zm7 3h-4v2h4v-2zm-4 0h-1v2h1v-2zm6-4h-6v2h6v-2zm-6 0h-1v2h1v-2zm1 5v-4h-2v4h2zM3 14a2 2 0 002 2v-2H3zm16 0v2a2 2 0 002-2h-2zm0-8h2a2 2 0 00-2-2v2zM5 4a2 2 0 00-2 2h2V4z"/>
</svg>
