<svg xmlns="http://www.w3.org/2000/svg" class="humbleicons__icon" width="1em" height="1em" fill="none" stroke="currentColor" viewBox="0 0 24 24" style="top: .125em; position: relative;">
  <g  stroke-linecap="round" stroke-width="2">
    <path d="M12 11v9"/>
    <path d="M15 13l-3-3-3 3"/>
    <path d="M19 14.792c.617-.565 1-1.357 1-2.233 0-1.578-1.242-2.881-2.853-3.085.02-.155.03-.312.03-.472C17.177 6.792 15.28 5 12.94 5c-1.546 0-2.898.782-3.637 1.95a5.024 5.024 0 00-.598-.035C6.106 6.915 4 8.906 4 11.362c0 1.504.79 2.833 2 3.638"/>
  </g>
</svg>
