<svg class="humbleicons__icon" width="1em" height="1em" fill="none" stroke="currentColor" viewBox="0 0 24 24" style="top: .125em; position: relative;">
  <path  stroke-linejoin="round" stroke-width="2" d="M6 19V5a1 1 0 011-1h6.586a1 1 0 01.707.293l3.414 3.414a1 1 0 01.293.707V19a1 1 0 01-1 1H7a1 1 0 01-1-1z"/>
  <path fill="currentColor"  stroke-linejoin="round" stroke-width="2" d="M6 19V5a1 1 0 011-1h4a1 1 0 011 1v4a1 1 0 001 1h4a1 1 0 011 1v8a1 1 0 01-1 1H7a1 1 0 01-1-1z"/>
  <path  stroke-linejoin="round" stroke-width="2" d="M12 4v5a1 1 0 001 1h5"/>
</svg>
