<svg xmlns="http://www.w3.org/2000/svg"  viewBox="0 0 24 24">
  <g fill="currentColor">
    <path d="M4 12l-.707-.707-.707.707.707.707L4 12zm16 0l.707.707.707-.707-.707-.707L20 12zm-3.207 1.793a1 1 0 001.414 1.414l-1.414-1.414zm1.414-5a1 1 0 10-1.414 1.414l1.414-1.414zm-11 1.414a1 1 0 00-1.414-1.414l1.414 1.414zm-1.414 5a1 1 0 001.414-1.414l-1.414 1.414zM4 13h16v-2H4v2zm14.207 2.207l2.5-2.5-1.414-1.414-2.5 2.5 1.414 1.414zm-1.414-5l2.5 2.5 1.414-1.414-2.5-2.5-1.414 1.414zm-11-1.414l-2.5 2.5 1.414 1.414 2.5-2.5-1.414-1.414zm1.414 5l-2.5-2.5-1.414 1.414 2.5 2.5 1.414-1.414z"/>
    <path fill-rule="evenodd" d="M11.293 20.707l.707.707.707-.707 2.5-2.5a1 1 0 00-1.414-1.414l-.793.793V14h-2v3.586l-.793-.793a1 1 0 00-1.414 1.414l2.5 2.5zM11 10V6.414l-.793.793a1 1 0 01-1.414-1.414l2.5-2.5.707-.707.707.707 2.5 2.5a1 1 0 01-1.414 1.414L13 6.414V10h-2z" clip-rule="evenodd"/>
  </g>
</svg>
