<svg xmlns="http://www.w3.org/2000/svg" fill="none" viewBox="0 0 24 24">
  <path fill="currentColor" d="M5 16a1 1 0 100 2v-2zm14 2a1 1 0 100-2v2zm-2-1h-1v1h1v-1zM7 17v1h1v-1H7zm-2 1h14v-2H5v2zm14-2h-2v2h2v-2zm-1 1v-6h-2v6h2zM6 11v6h2v-6H6zm1 5H5v2h2v-2zm1-5a4 4 0 014-4V5a6 6 0 00-6 6h2zm10 0a6 6 0 00-6-6v2a4 4 0 014 4h2z"/>
  <path fill="currentColor" d="M10 19.5a2 2 0 104 0h-4zm0-.5v.5h4V19h-4z"/>
  <path stroke="currentColor" stroke-linejoin="round" stroke-width="2" d="M11.5 6V4h1v2"/>
</svg>
