<svg xmlns="http://www.w3.org/2000/svg" fill="none" viewBox="0 0 24 24">
  <path fill="currentColor" d="M4 7.321l-.277-.96A1 1 0 003 7.32h1zm4.183-1.205l-.277-.96.277.96zM4 16.474H3a1 1 0 001.277.961L4 16.475zm4.183-1.205l.277.961-.277-.96zM4.277 8.282L8.46 7.077l-.554-1.922-4.183 1.206.554 1.921zM8.46 7.077c1.044-.3 1.946.033 2.379.75l1.713-1.03c-1-1.662-2.935-2.135-4.646-1.642l.554 1.922zM4.277 17.435L8.46 16.23l-.554-1.922-4.183 1.206.554 1.921zm.723-.96V7.32H3v9.153h2zm3.46-.245c.643-.185 1.23-.161 1.665.014.407.165.744.481.92 1.05l1.91-.589c-.353-1.144-1.116-1.926-2.082-2.315-.936-.378-1.994-.362-2.967-.082l.554 1.922zM11 8.754V16h2V8.754h-2zm-.161-.926c.108.18.161.458.161.926h2c0-.532-.041-1.282-.448-1.957l-1.713 1.03z"/>
  <path stroke="currentColor" stroke-linejoin="round" stroke-width="2" d="M12 8c.529-1.714 2.201-2.35 3.817-1.884L20 7.321v9.153l-4.183-1.205C14.2 14.803 12.529 15.286 12 17"/>
  <path stroke="currentColor" stroke-linejoin="round" d="M12.5 17h-1v.5h1V17z"/>
</svg>
