<svg xmlns="http://www.w3.org/2000/svg" fill="none" viewBox="0 0 24 24">
  <g stroke="currentColor" stroke-width="2">
    <path d="M20 17V8C20 7.44772 19.5523 7 19 7H16.618C16.2393 7 15.893 6.786 15.7236 6.44721L15.2764 5.55279C15.107 5.214 14.7607 5 14.382 5H9.61803C9.23926 5 8.893 5.214 8.72361 5.55279L8.27639 6.44721C8.107 6.786 7.76074 7 7.38197 7H5C4.44772 7 4 7.44772 4 8V17C4 17.5523 4.44772 18 5 18H19C19.5523 18 20 17.5523 20 17Z"/>
    <path d="M15 12C15 13.6569 13.6569 15 12 15C10.3431 15 9 13.6569 9 12C9 10.3431 10.3431 9 12 9C13.6569 9 15 10.3431 15 12Z"/>
  </g>
</svg>

