<svg xmlns="http://www.w3.org/2000/svg" fill="none" viewBox="0 0 24 24">
  <g fill="currentColor">
    <path d="M3 15l-.925-.38a1 1 0 001.114 1.362L3 15zm3.824-.736l.46-.887-.308-.16-.341.065.189.982zm-2.505-2.472l.925.38.175-.425-.209-.41-.89.455zM15 9.5c0 2.388-2.188 4.5-5.118 4.5v2C13.711 16 17 13.187 17 9.5h-2zm-10.235 0c0-2.388 2.188-4.5 5.117-4.5V3C6.054 3 2.765 5.813 2.765 9.5h2zM9.882 5C12.812 5 15 7.112 15 9.5h2C17 5.813 13.71 3 9.882 3v2zm0 9c-.953 0-1.84-.23-2.597-.623l-.923 1.774a7.623 7.623 0 003.52.849v-2zM3.19 15.982l3.824-.736-.378-1.964-3.824.736.378 1.964zm2.021-4.645A4.019 4.019 0 014.765 9.5h-2c0 .982.239 1.914.664 2.746l1.781-.909zm-1.815.074l-1.32 3.209 1.85.76 1.32-3.208-1.85-.76z"/>
    <circle r="1" transform="matrix(-1 0 0 1 13 9.5)"/>
    <circle r="1" transform="matrix(-1 0 0 1 10 9.5)"/>
    <circle r="1" transform="matrix(-1 0 0 1 7 9.5)"/>
    <path fill-rule="evenodd" d="M17.957 10.285c.803.807 1.278 1.86 1.278 2.972 0 .653-.158 1.274-.445 1.837l-.21.41.176.425.615 1.496-2.006-.386-.341-.066-.309.16a5.623 5.623 0 01-2.597.624 5.541 5.541 0 01-2.97-.834 8.6 8.6 0 01-3.006-.126c1.286 1.803 3.52 2.96 5.976 2.96a7.653 7.653 0 003.197-.691l3.496.673a1 1 0 001.114-1.363l-1.154-2.805c.3-.718.464-1.498.464-2.314 0-2.42-1.417-4.464-3.474-5.583a7.072 7.072 0 01.196 2.61z" clip-rule="evenodd"/>
  </g>
</svg>
