<svg xmlns="http://www.w3.org/2000/svg" fill="none" viewBox="0 0 24 24">
  <g fill="currentColor">
    <path d="M4 19l-.93-.37a1 1 0 001.125 1.35L4 19zm4.706-.936l.474-.881-.317-.17-.352.07.195.98zm-3.082-3.147l.93.37.163-.414-.196-.399-.897.443zM19 12c0 3.246-2.853 6-6.53 6v2c4.641 0 8.53-3.514 8.53-8h-2zM5.941 12c0-3.246 2.854-6 6.53-6V4C7.83 4 3.94 7.514 3.94 12h2zm6.53-6C16.147 6 19 8.754 19 12h2c0-4.486-3.889-8-8.53-8v2zm0 12c-1.205 0-2.328-.3-3.291-.817l-.948 1.761A8.934 8.934 0 0012.471 20v-2zm-8.276 1.98l4.706-.936-.39-1.961-4.706.936.39 1.962zm2.326-5.506A5.564 5.564 0 015.94 12h-2c0 1.2.282 2.338.786 3.36l1.794-.886zm-1.826.073L3.07 18.631l1.858.738 1.624-4.083-1.858-.739z"/>
    <circle cx="9" cy="12" r="1"/>
    <circle cx="12.5" cy="12" r="1"/>
    <circle cx="16" cy="12" r="1"/>
  </g>
</svg>
