<svg xmlns="http://www.w3.org/2000/svg" fill="none" viewBox="0 0 24 24">
  <path stroke="currentColor" stroke-linejoin="round" stroke-width="2" d="M17 12H4v4a4 4 0 004 4h5a4 4 0 004-4v-4z"/>
  <path stroke="currentColor" stroke-linecap="round" stroke-width="2" d="M13 9s1-1 .5-2l-1-2C12 4 13 3 13 3"/>
  <path stroke="currentColor" stroke-linecap="round" stroke-width="2" d="M8.64 9s1-1 .5-2l-1-2c-.5-1 .5-2 .5-2"/>
  <path fill="currentColor" d="M17 13h2v-2h-2v2zm3 1v1h2v-1h-2zm-1 2h-2v2h2v-2zm1-1a1 1 0 01-1 1v2a3 3 0 003-3h-2zm-1-2a1 1 0 011 1h2a3 3 0 00-3-3v2z"/>
</svg>
