<svg xmlns="http://www.w3.org/2000/svg" width="24" height="24" fill="none" viewBox="0 0 24 24">
  <path stroke="currentColor" stroke-linejoin="round" stroke-width="2" d="M14.203 1.29l-1.559-.205a1 1 0 00-.983.47L10.12 4.071a1 1 0 01-.47.402l-1.31.543a1 1 0 01-.616.048l-2.87-.691a1 1 0 00-1.028.363L2.87 5.984a1 1 0 00-.085 1.087l1.41 2.593a1 1 0 01.113.609l-.185 1.405a1 1 0 01-.266.558l-2.034 2.14a1 1 0 00-.198 1.071l.601 1.453a1 1 0 00.898.617l2.952.075a1 1 0 01.583.206l1.124.863a1 1 0 01.35.51l.837 2.831a1 1 0 00.828.708l1.559.205a1 1 0 00.983-.47l1.541-2.517a1 1 0 01.47-.402l1.31-.543a1 1 0 01.616-.048l2.87.691a1 1 0 001.028-.363l.957-1.247a1 1 0 00.085-1.087l-1.41-2.593a1 1 0 01-.113-.609l.184-1.405a1 1 0 01.267-.558l2.034-2.14a1 1 0 00.198-1.071L21.776 7.1a1 1 0 00-.898-.617l-2.951-.075a1 1 0 01-.584-.206l-1.124-.863a1 1 0 01-.35-.51l-.837-2.831a1 1 0 00-.828-.708z"/>
  <path stroke="currentColor" stroke-linejoin="round" stroke-width="2" d="M15 12a3 3 0 11-6 0 3 3 0 016 0z"/>
</svg>
