<svg xmlns="http://www.w3.org/2000/svg" fill="none" viewBox="0 0 24 24">
  <ellipse cx="12" cy="6" stroke="currentColor" stroke-width="2" rx="8" ry="3"/>
  <path stroke="currentColor" stroke-width="2" d="M4 6v12"/>
  <path stroke="currentColor" stroke-width="2" d="M20 6v12"/>
  <path fill="currentColor" fill-rule="evenodd" d="M5 9.384c-.39.206-.74.439-1.035.7C3.437 10.552 3 11.197 3 12c0 .803.437 1.448.965 1.916.53.469 1.238.846 2.027 1.142C7.578 15.653 9.702 16 12 16c2.297 0 4.422-.348 6.008-.942.79-.296 1.498-.673 2.027-1.142.527-.468.965-1.113.965-1.916 0-.803-.438-1.448-.965-1.916a5.282 5.282 0 00-1.035-.7V12c0 .025-.01.17-.292.42-.28.248-.744.518-1.402.765-1.31.49-3.185.815-5.306.815s-3.997-.324-5.306-.815c-.658-.247-1.121-.517-1.402-.766C5.01 12.17 5 12.025 5 12V9.384z" clip-rule="evenodd"/>
  <path fill="currentColor" fill-rule="evenodd" d="M5 15.384c-.39.206-.74.439-1.035.7C3.437 16.552 3 17.197 3 18c0 .803.437 1.448.965 1.916.53.469 1.238.846 2.027 1.142C7.578 21.653 9.702 22 12 22c2.297 0 4.422-.348 6.008-.942.79-.296 1.498-.673 2.027-1.142.527-.468.965-1.113.965-1.916 0-.803-.438-1.448-.965-1.916a5.283 5.283 0 00-1.035-.7V18c0 .026-.01.17-.292.42-.28.248-.744.518-1.402.765-1.31.49-3.185.815-5.306.815s-3.997-.324-5.306-.815c-.658-.247-1.121-.517-1.402-.765C5.01 18.17 5 18.024 5 18v-2.616z" clip-rule="evenodd"/>
</svg>
