<svg xmlns="http://www.w3.org/2000/svg" fill="none" viewBox="0 0 24 24">
  <g fill="currentColor">
    <path d="M4 4V3H3v1h1zm4.793 6.207a1 1 0 001.414-1.414l-1.414 1.414zM8.5 5a1 1 0 000-2v2zM3 8.5a1 1 0 002 0H3zm.293-3.793l5.5 5.5 1.414-1.414-5.5-5.5-1.414 1.414zM4 5h4.5V3H4v2zM3 4v4.5h2V4H3z"/>
    <path d="M20 4h1V3h-1v1zm-1 5a1 1 0 102 0h-2zm-3.5-6a1 1 0 100 2V3zm-1.707 5.793a1 1 0 001.414 1.414l-1.414-1.414zM19 4v5h2V4h-2zm1-1h-4.5v2H20V3zm-.707.293l-5.5 5.5 1.414 1.414 5.5-5.5-1.414-1.414z"/>
    <path d="M4 20H3v1h1v-1zm4.5 1a1 1 0 100-2v2zm1.707-5.793a1 1 0 00-1.414-1.414l1.414 1.414zM5 15.5a1 1 0 10-2 0h2zM4 21h4.5v-2H4v2zm.707-.293l5.5-5.5-1.414-1.414-5.5 5.5 1.414 1.414zM5 20v-4.5H3V20h2z"/>
    <path d="M20 20v1h1v-1h-1zm-4.793-6.207a1 1 0 00-1.414 1.414l1.414-1.414zM21 15.5a1 1 0 10-2 0h2zM15.5 19a1 1 0 100 2v-2zm5.207.293l-5.5-5.5-1.414 1.414 5.5 5.5 1.414-1.414zM21 20v-4.5h-2V20h2zm-1-1h-4.5v2H20v-2z"/>
  </g>
</svg>
