<svg xmlns="http://www.w3.org/2000/svg" fill="none" viewBox="0 0 24 24">
  <path stroke="currentColor" stroke-linecap="round" stroke-width="2" d="M5 5l14 14"/>
  <path fill="currentColor" fill-rule="evenodd" d="M9.48 8.894a4 4 0 105.627 5.627l-1.43-1.43a2 2 0 11-2.767-2.767l-1.43-1.43zm6.483 3.655a4 4 0 00-4.511-4.511l4.51 4.51z" clip-rule="evenodd"/>
  <path fill="currentColor" fill-rule="evenodd" d="M7.068 6.482C5.305 7.573 3.65 9.247 2.17 11.44a1 1 0 000 1.12C4.971 16.706 8.39 19 12 19c1.957 0 3.858-.674 5.634-1.951l-1.436-1.437C14.79 16.557 13.37 17 12 17c-2.555 0-5.284-1.542-7.78-5 1.387-1.923 2.848-3.254 4.31-4.056L7.068 6.482zm10.693 7.865A16.915 16.915 0 0019.78 12C17.285 8.542 14.555 7 12 7c-.47 0-.947.052-1.427.16L8.965 5.55A8.759 8.759 0 0112 5c3.611 0 7.029 2.293 9.829 6.44a1 1 0 010 1.12c-.834 1.235-1.723 2.305-2.655 3.2l-1.413-1.413z" clip-rule="evenodd"/>
</svg>
