<svg xmlns="http://www.w3.org/2000/svg" fill="none" viewBox="0 0 24 24">
  <g stroke="currentColor" stroke-width="2">
    <path d="M21 19L21 5C21 4.44772 20.5523 4 20 4L4 4C3.44772 4 3 4.44771 3 5L3 19C3 19.5523 3.44772 20 4 20L20 20C20.5523 20 21 19.5523 21 19Z"/>
    <path d="M16 8C16 8.55228 15.5523 9 15 9C14.4477 9 14 8.55228 14 8C14 7.44772 14.4477 7 15 7C15.5523 7 16 7.44772 16 8Z"/>
    <path stroke-linecap="round" stroke-linejoin="round" d="M15.5 15.5L9.5 9L3 17"/>
    <path stroke-linejoin="round" d="M14.5 14.5L17 12L21 16"/>
  </g>
</svg>
