<svg xmlns="http://www.w3.org/2000/svg" width="24" height="24" fill="none" viewBox="0 0 24 24">
  <path stroke="currentColor" stroke-width="2" d="M10 15.5a2.5 2.5 0 1 1-5 0 2.5 2.5 0 0 1 5 0Zm9 0a2.5 2.5 0 1 1-5 0 2.5 2.5 0 0 1 5 0Z"/>
  <path stroke="currentColor" stroke-linecap="round" stroke-linejoin="round" stroke-width="2" d="m10 15 .211-.106a4 4 0 0 1 3.578 0L14 15m3-6-1.65-4.125a1 1 0 0 0-1.245-.577l-1.473.491a2 2 0 0 1-1.264 0L9.894 4.3a1 1 0 0 0-1.245.576L7 9m-4 1c7.5-1 11-1 18 0"/>
</svg>
