<svg xmlns="http://www.w3.org/2000/svg" fill="none" viewBox="0 0 24 24">
  <g fill="currentColor">
    <path d="M10.199 10.401l.733.68.386-.415-.159-.545-.96.28zM5 16l-.733-.68A1 1 0 004 16h1zm0 3.5H4a1 1 0 001 1v-1zm3 0v1a1 1 0 001-1H8zm0-2v-1a1 1 0 00-1 1h1zm2 0v1a1 1 0 001-1h-1zm0-2v-1a1 1 0 00-1 1h1zm2 0v1a1 1 0 00.707-.293L12 15.5zm1.677-1.677l.264-.965-.56-.153-.411.411.707.707zM19 9a4 4 0 01-4 4v2a6 6 0 006-6h-2zm-4-4a4 4 0 014 4h2a6 6 0 00-6-6v2zm-4 4a4 4 0 014-4V3a6 6 0 00-6 6h2zm.16 1.121A4 4 0 0111 9H9c0 .582.083 1.146.239 1.68l1.92-.559zm-5.427 6.56l5.199-5.6-1.466-1.36-5.199 5.598 1.466 1.361zM6 19.5V16H4v3.5h2zm2-1H5v2h3v-2zm-1-1v2h2v-2H7zm3-1H8v2h2v-2zm-1-1v2h2v-2H9zm3-1h-2v2h2v-2zm.97-1.384l-1.677 1.677 1.414 1.414 1.677-1.677-1.414-1.414zM15 13c-.368 0-.723-.05-1.06-.142l-.527 1.93c.507.138 1.039.212 1.587.212v-2z"/>
    <circle cx="15.5" cy="8.5" r="1.5"/>
  </g>
</svg>
