<svg xmlns="http://www.w3.org/2000/svg" fill="none" viewBox="0 0 24 24">
  <rect width="12" height="9" x="6" y="11" stroke="currentColor" stroke-linejoin="round" stroke-width="2" rx="1"/>
  <path stroke="currentColor" stroke-linecap="round" stroke-width="2" d="M12 15v2"/>
  <path fill="currentColor" d="M15 7a1 1 0 102 0h-2zm.874-1l.968-.25-.968.25zM9 7a3 3 0 013-3V2a5 5 0 00-5 5h2zM7 7v4h2V7H7zm5-3c1.396 0 2.572.955 2.905 2.25l1.937-.5A5.002 5.002 0 0012 2v2zm2.905 2.25c.062.238.095.49.095.75h2c0-.43-.055-.849-.158-1.25l-1.936.5z"/>
</svg>
