<svg xmlns="http://www.w3.org/2000/svg" width="24" height="24" fill="none" viewBox="0 0 24 24">
  <path stroke="currentColor" stroke-linecap="round" stroke-linejoin="round" stroke-width="2" d="M4 4.667v6.666c0 .368.274.667.611.667H6M4 4.667C4 4.298 4.274 4 4.611 4h9.778c.337 0 .611.298.611.667m-11 0 4.718 4.288a1.145 1.145 0 0 0 1.564 0L15 4.667m0 0v4.288m5 3.712v6.666c0 .369-.274.667-.611.667H9.61c-.336 0-.61-.299-.61-.667v-6.666m11 0c0-.368-.274-.667-.611-.667H9.61c-.337 0-.611.299-.611.667m11 0-4.718 4.288a1.145 1.145 0 0 1-1.564 0L9 12.667" />
</svg>