<svg xmlns="http://www.w3.org/2000/svg" fill="none" viewBox="0 0 24 24">
  <path fill="currentColor" d="M4 20H3v1h1v-1zm0-3.5l-.707-.707A1 1 0 003 16.5h1zM7.5 20v1a1 1 0 00.707-.293L7.5 20zM5 20v-3.5H3V20h2zm-.293-2.793L16 5.914 14.586 4.5 3.293 15.793l1.414 1.414zM16 5.914L18.086 8 19.5 6.586 17.414 4.5 16 5.914zM18.086 8L6.793 19.293l1.414 1.414L19.5 9.414 18.086 8zM7.5 19H4v2h3.5v-2zM18.086 8L19.5 9.414a2 2 0 000-2.828L18.086 8zM16 5.914L17.414 4.5a2 2 0 00-2.828 0L16 5.914z"/>
  <path stroke="currentColor" stroke-width="2" d="M13 7l4 4"/>
</svg>
