<svg xmlns="http://www.w3.org/2000/svg" fill="none" viewBox="0 0 24 24">
  <g stroke="currentColor" stroke-width="2">
    <circle cx="9" cy="7" r="3"/>
    <path d="M7 13h4a4 4 0 014 4v2H3v-2a4 4 0 014-4z"/>
  </g>
  <path fill="currentColor" fill-rule="evenodd" d="M13.751 8.562a4.994 4.994 0 01-1.001 1.745 4 4 0 100-6.615 4.994 4.994 0 011.001 1.746 2 2 0 110 3.124z" clip-rule="evenodd"/>
  <path fill="currentColor" fill-rule="evenodd" d="M16.977 20H21a1 1 0 001-1v-2a5 5 0 00-5-5h-2.613a6.064 6.064 0 011.78 2H17a3 3 0 013 3v1h-3v1.75c0 .086-.008.17-.023.25z" clip-rule="evenodd"/>
</svg>
